<mxfile host="Electron" agent="Mozilla/5.0 (Macintosh; Intel Mac OS X 10_15_7) AppleWebKit/537.36 (KHTML, like Gecko) draw.io/25.0.2 Chrome/128.0.6613.186 Electron/32.2.5 Safari/537.36" version="25.0.2">
  <diagram name="Страница — 1" id="AA9cZ-glA_Fp__WyKTjR">
    <mxGraphModel dx="4931" dy="3088" grid="1" gridSize="10" guides="1" tooltips="1" connect="1" arrows="1" fold="1" page="1" pageScale="1" pageWidth="827" pageHeight="1169" math="0" shadow="0">
      <root>
        <mxCell id="0" />
        <mxCell id="1" parent="0" />
        <object placeholders="1" c4Name="Поставщик ресурсов ЖКХ" c4Type="Software System" c4Description="" label="&lt;font style=&quot;font-size: 16px&quot;&gt;&lt;b&gt;%c4Name%&lt;/b&gt;&lt;/font&gt;&lt;div&gt;[%c4Type%]&lt;/div&gt;&lt;br&gt;&lt;div&gt;&lt;font style=&quot;font-size: 11px&quot;&gt;&lt;font color=&quot;#cccccc&quot;&gt;%c4Description%&lt;/font&gt;&lt;/div&gt;" id="nFB4tpNnGNIT1_HhN5Ei-108">
          <mxCell style="rounded=1;whiteSpace=wrap;html=1;labelBackgroundColor=none;fillColor=#8C8496;fontColor=#ffffff;align=center;arcSize=10;strokeColor=#736782;metaEdit=1;resizable=0;points=[[0.25,0,0],[0.5,0,0],[0.75,0,0],[1,0.25,0],[1,0.5,0],[1,0.75,0],[0.75,1,0],[0.5,1,0],[0.25,1,0],[0,0.75,0],[0,0.5,0],[0,0.25,0]];" parent="1" vertex="1">
            <mxGeometry x="950" y="440" width="240" height="120" as="geometry" />
          </mxCell>
        </object>
        <object placeholders="1" c4Name="Поставщик ресурсов ЖКХ" c4Type="Software System" c4Description="" label="&lt;font style=&quot;font-size: 16px&quot;&gt;&lt;b&gt;%c4Name%&lt;/b&gt;&lt;/font&gt;&lt;div&gt;[%c4Type%]&lt;/div&gt;&lt;br&gt;&lt;div&gt;&lt;font style=&quot;font-size: 11px&quot;&gt;&lt;font color=&quot;#cccccc&quot;&gt;%c4Description%&lt;/font&gt;&lt;/div&gt;" id="nFB4tpNnGNIT1_HhN5Ei-109">
          <mxCell style="rounded=1;whiteSpace=wrap;html=1;labelBackgroundColor=none;fillColor=#8C8496;fontColor=#ffffff;align=center;arcSize=10;strokeColor=#736782;metaEdit=1;resizable=0;points=[[0.25,0,0],[0.5,0,0],[0.75,0,0],[1,0.25,0],[1,0.5,0],[1,0.75,0],[0.75,1,0],[0.5,1,0],[0.25,1,0],[0,0.75,0],[0,0.5,0],[0,0.25,0]];" parent="1" vertex="1">
            <mxGeometry x="910" y="465" width="240" height="120" as="geometry" />
          </mxCell>
        </object>
        <mxCell id="nFB4tpNnGNIT1_HhN5Ei-131" style="edgeStyle=orthogonalEdgeStyle;rounded=0;orthogonalLoop=1;jettySize=auto;html=1;exitX=0.5;exitY=0;exitDx=0;exitDy=0;exitPerimeter=0;" parent="1" source="_bE7263p_LXFPztFBxZn-1" target="nFB4tpNnGNIT1_HhN5Ei-203" edge="1">
          <mxGeometry relative="1" as="geometry">
            <Array as="points">
              <mxPoint x="330" y="675" />
              <mxPoint x="780" y="675" />
              <mxPoint x="780" y="570" />
            </Array>
            <mxPoint x="490" y="675" as="sourcePoint" />
          </mxGeometry>
        </mxCell>
        <object placeholders="1" c4Name="Поставщик ресурсов ЖКХ" c4Type="Software System" c4Description="." label="&lt;font style=&quot;font-size: 16px&quot;&gt;&lt;b&gt;%c4Name%&lt;/b&gt;&lt;/font&gt;&lt;div&gt;[%c4Type%]&lt;/div&gt;&lt;br&gt;&lt;div&gt;&lt;font style=&quot;font-size: 11px&quot;&gt;&lt;font color=&quot;#cccccc&quot;&gt;%c4Description%&lt;/font&gt;&lt;/div&gt;" id="nFB4tpNnGNIT1_HhN5Ei-133">
          <mxCell style="rounded=1;whiteSpace=wrap;html=1;labelBackgroundColor=none;fillColor=#8C8496;fontColor=#ffffff;align=center;arcSize=10;strokeColor=#736782;metaEdit=1;resizable=0;points=[[0.25,0,0],[0.5,0,0],[0.75,0,0],[1,0.25,0],[1,0.5,0],[1,0.75,0],[0.75,1,0],[0.5,1,0],[0.25,1,0],[0,0.75,0],[0,0.5,0],[0,0.25,0]];" parent="1" vertex="1">
            <mxGeometry x="870" y="485" width="240" height="120" as="geometry" />
          </mxCell>
        </object>
        <object placeholders="1" c4Name="Платёжная система" c4Type="Software System" c4Description="Провайдер онлайн-платежей" label="&lt;font style=&quot;font-size: 16px&quot;&gt;&lt;b&gt;%c4Name%&lt;/b&gt;&lt;/font&gt;&lt;div&gt;[%c4Type%]&lt;/div&gt;&lt;br&gt;&lt;div&gt;&lt;font style=&quot;font-size: 11px&quot;&gt;&lt;font color=&quot;#cccccc&quot;&gt;%c4Description%&lt;/font&gt;&lt;/div&gt;" id="nFB4tpNnGNIT1_HhN5Ei-134">
          <mxCell style="rounded=1;whiteSpace=wrap;html=1;labelBackgroundColor=none;fillColor=#8C8496;fontColor=#ffffff;align=center;arcSize=10;strokeColor=#736782;metaEdit=1;resizable=0;points=[[0.25,0,0],[0.5,0,0],[0.75,0,0],[1,0.25,0],[1,0.5,0],[1,0.75,0],[0.75,1,0],[0.5,1,0],[0.25,1,0],[0,0.75,0],[0,0.5,0],[0,0.25,0]];" parent="1" vertex="1">
            <mxGeometry x="838" y="655" width="240" height="120" as="geometry" />
          </mxCell>
        </object>
        <mxCell id="nFB4tpNnGNIT1_HhN5Ei-135" style="edgeStyle=orthogonalEdgeStyle;rounded=0;orthogonalLoop=1;jettySize=auto;html=1;entryX=0;entryY=0.5;entryDx=0;entryDy=0;entryPerimeter=0;exitX=0.5;exitY=0;exitDx=0;exitDy=0;exitPerimeter=0;" parent="1" source="_bE7263p_LXFPztFBxZn-1" target="nFB4tpNnGNIT1_HhN5Ei-134" edge="1">
          <mxGeometry relative="1" as="geometry">
            <Array as="points">
              <mxPoint x="330" y="675" />
              <mxPoint x="780" y="675" />
              <mxPoint x="780" y="715" />
            </Array>
            <mxPoint x="460" y="675" as="sourcePoint" />
            <mxPoint x="500" y="699.9999999999998" as="targetPoint" />
          </mxGeometry>
        </mxCell>
        <mxCell id="nFB4tpNnGNIT1_HhN5Ei-170" style="edgeStyle=entityRelationEdgeStyle;rounded=0;orthogonalLoop=1;jettySize=auto;html=1;entryX=0;entryY=0.5;entryDx=0;entryDy=0;entryPerimeter=0;" parent="1" source="nFB4tpNnGNIT1_HhN5Ei-171" target="_bE7263p_LXFPztFBxZn-1" edge="1">
          <mxGeometry relative="1" as="geometry">
            <mxPoint x="-90" y="1600" as="targetPoint" />
          </mxGeometry>
        </mxCell>
        <object placeholders="1" c4Name="Бухгалтер" c4Type="Person" c4Description="Ведёт бухгалтерский учёт" label="&lt;font style=&quot;font-size: 16px&quot;&gt;&lt;b&gt;%c4Name%&lt;/b&gt;&lt;/font&gt;&lt;div&gt;[%c4Type%]&lt;/div&gt;&lt;br&gt;&lt;div&gt;&lt;font style=&quot;font-size: 11px&quot;&gt;&lt;font color=&quot;#cccccc&quot;&gt;%c4Description%&lt;/font&gt;&lt;/div&gt;" id="nFB4tpNnGNIT1_HhN5Ei-171">
          <mxCell style="html=1;fontSize=11;dashed=0;whiteSpace=wrap;fillColor=#083F75;strokeColor=#06315C;fontColor=#ffffff;shape=mxgraph.c4.person2;align=center;metaEdit=1;points=[[0.5,0,0],[1,0.5,0],[1,0.75,0],[0.75,1,0],[0.5,1,0],[0.25,1,0],[0,0.75,0],[0,0.5,0]];resizable=0;" parent="1" vertex="1">
            <mxGeometry x="-660" y="1510" width="200" height="180" as="geometry" />
          </mxCell>
        </object>
        <object placeholders="1" c4Name="Менеджер" c4Type="Person" c4Description="Работает с клиентами и объектами недвижимости, администрирует онлайн-сделки" label="&lt;font style=&quot;font-size: 16px&quot;&gt;&lt;b&gt;%c4Name%&lt;/b&gt;&lt;/font&gt;&lt;div&gt;[%c4Type%]&lt;/div&gt;&lt;br&gt;&lt;div&gt;&lt;font style=&quot;font-size: 11px&quot;&gt;&lt;font color=&quot;#cccccc&quot;&gt;%c4Description%&lt;/font&gt;&lt;/div&gt;" id="nFB4tpNnGNIT1_HhN5Ei-172">
          <mxCell style="html=1;fontSize=11;dashed=0;whiteSpace=wrap;fillColor=#083F75;strokeColor=#06315C;fontColor=#ffffff;shape=mxgraph.c4.person2;align=center;metaEdit=1;points=[[0.5,0,0],[1,0.5,0],[1,0.75,0],[0.75,1,0],[0.5,1,0],[0.25,1,0],[0,0.75,0],[0,0.5,0]];resizable=0;" parent="1" vertex="1">
            <mxGeometry x="-660" y="940" width="200" height="180" as="geometry" />
          </mxCell>
        </object>
        <mxCell id="nFB4tpNnGNIT1_HhN5Ei-189" style="edgeStyle=entityRelationEdgeStyle;rounded=0;orthogonalLoop=1;jettySize=auto;html=1;exitX=1;exitY=0.75;exitDx=0;exitDy=0;exitPerimeter=0;entryX=0;entryY=0.5;entryDx=0;entryDy=0;entryPerimeter=0;" parent="1" source="nFB4tpNnGNIT1_HhN5Ei-172" edge="1" target="_bE7263p_LXFPztFBxZn-1">
          <mxGeometry relative="1" as="geometry">
            <mxPoint x="-210" y="1080" as="targetPoint" />
          </mxGeometry>
        </mxCell>
        <mxCell id="nFB4tpNnGNIT1_HhN5Ei-192" style="edgeStyle=entityRelationEdgeStyle;rounded=0;orthogonalLoop=1;jettySize=auto;html=1;exitX=1;exitY=0.75;exitDx=0;exitDy=0;exitPerimeter=0;entryX=0;entryY=0.5;entryDx=0;entryDy=0;entryPerimeter=0;" parent="1" source="nFB4tpNnGNIT1_HhN5Ei-193" edge="1" target="_bE7263p_LXFPztFBxZn-1">
          <mxGeometry relative="1" as="geometry">
            <mxPoint x="-210" y="1360" as="targetPoint" />
          </mxGeometry>
        </mxCell>
        <object placeholders="1" c4Name="Бизнес-аналитик" c4Type="Person" c4Description="Оптимизирует процессы и развивает прикладные бизнес-системы. Администрирует системы" label="&lt;font style=&quot;font-size: 16px&quot;&gt;&lt;b&gt;%c4Name%&lt;/b&gt;&lt;/font&gt;&lt;div&gt;[%c4Type%]&lt;/div&gt;&lt;br&gt;&lt;div&gt;&lt;font style=&quot;font-size: 11px&quot;&gt;&lt;font color=&quot;#cccccc&quot;&gt;%c4Description%&lt;/font&gt;&lt;/div&gt;" id="nFB4tpNnGNIT1_HhN5Ei-193">
          <mxCell style="html=1;fontSize=11;dashed=0;whiteSpace=wrap;fillColor=#083F75;strokeColor=#06315C;fontColor=#ffffff;shape=mxgraph.c4.person2;align=center;metaEdit=1;points=[[0.5,0,0],[1,0.5,0],[1,0.75,0],[0.75,1,0],[0.5,1,0],[0.25,1,0],[0,0.75,0],[0,0.5,0]];resizable=0;" parent="1" vertex="1">
            <mxGeometry x="-660" y="1225" width="200" height="180" as="geometry" />
          </mxCell>
        </object>
        <mxCell id="nFB4tpNnGNIT1_HhN5Ei-194" value="" style="edgeStyle=entityRelationEdgeStyle;rounded=0;orthogonalLoop=1;jettySize=auto;html=1;entryX=0.25;entryY=0;entryDx=0;entryDy=0;entryPerimeter=0;" parent="1" target="_bE7263p_LXFPztFBxZn-1" edge="1">
          <mxGeometry relative="1" as="geometry">
            <mxPoint x="10" y="550" as="sourcePoint" />
            <mxPoint x="9.99999999999909" y="700" as="targetPoint" />
          </mxGeometry>
        </mxCell>
        <mxCell id="nFB4tpNnGNIT1_HhN5Ei-195" value="" style="image;html=1;image=img/lib/clip_art/networking/Firewall_02_128x128.png" parent="1" vertex="1">
          <mxGeometry x="40" y="580" width="80" height="80" as="geometry" />
        </mxCell>
        <mxCell id="nFB4tpNnGNIT1_HhN5Ei-196" value="" style="image;html=1;image=img/lib/clip_art/networking/Firewall_02_128x128.png" parent="1" vertex="1">
          <mxGeometry x="289" y="270" width="80" height="80" as="geometry" />
        </mxCell>
        <mxCell id="nFB4tpNnGNIT1_HhN5Ei-197" value="Firewall" style="text;html=1;align=center;verticalAlign=middle;whiteSpace=wrap;rounded=0;" parent="1" vertex="1">
          <mxGeometry x="110" y="605" width="60" height="30" as="geometry" />
        </mxCell>
        <mxCell id="nFB4tpNnGNIT1_HhN5Ei-198" value="Firewall" style="text;html=1;align=center;verticalAlign=middle;whiteSpace=wrap;rounded=0;" parent="1" vertex="1">
          <mxGeometry x="379" y="295" width="60" height="30" as="geometry" />
        </mxCell>
        <object placeholders="1" c4Name="Аналитик BI" c4Type="Person" c4Description="Анализирует данные и готовит отчётность" label="&lt;font style=&quot;font-size: 16px&quot;&gt;&lt;b&gt;%c4Name%&lt;/b&gt;&lt;/font&gt;&lt;div&gt;[%c4Type%]&lt;/div&gt;&lt;br&gt;&lt;div&gt;&lt;font style=&quot;font-size: 11px&quot;&gt;&lt;font color=&quot;#cccccc&quot;&gt;%c4Description%&lt;/font&gt;&lt;/div&gt;" id="nFB4tpNnGNIT1_HhN5Ei-201">
          <mxCell style="html=1;fontSize=11;dashed=0;whiteSpace=wrap;fillColor=#083F75;strokeColor=#06315C;fontColor=#ffffff;shape=mxgraph.c4.person2;align=center;metaEdit=1;points=[[0.5,0,0],[1,0.5,0],[1,0.75,0],[0.75,1,0],[0.5,1,0],[0.25,1,0],[0,0.75,0],[0,0.5,0]];resizable=0;" parent="1" vertex="1">
            <mxGeometry x="230" y="1574" width="200" height="180" as="geometry" />
          </mxCell>
        </object>
        <object placeholders="1" c4Name="Поставщик ресурсов ЖКХ" c4Type="Software System" c4Description="" label="&lt;font style=&quot;font-size: 16px&quot;&gt;&lt;b&gt;%c4Name%&lt;/b&gt;&lt;/font&gt;&lt;div&gt;[%c4Type%]&lt;/div&gt;&lt;br&gt;&lt;div&gt;&lt;font style=&quot;font-size: 11px&quot;&gt;&lt;font color=&quot;#cccccc&quot;&gt;%c4Description%&lt;/font&gt;&lt;/div&gt;" id="nFB4tpNnGNIT1_HhN5Ei-203">
          <mxCell style="rounded=1;whiteSpace=wrap;html=1;labelBackgroundColor=none;fillColor=#8C8496;fontColor=#ffffff;align=center;arcSize=10;strokeColor=#736782;metaEdit=1;resizable=0;points=[[0.25,0,0],[0.5,0,0],[0.75,0,0],[1,0.25,0],[1,0.5,0],[1,0.75,0],[0.75,1,0],[0.5,1,0],[0.25,1,0],[0,0.75,0],[0,0.5,0],[0,0.25,0]];" parent="1" vertex="1">
            <mxGeometry x="840" y="510" width="240" height="120" as="geometry" />
          </mxCell>
        </object>
        <object placeholders="1" c4Name="Государственные регистрационные органы" c4Type="Software System" c4Description="Отвечают за регистрационные действия с объектами недвижимости" label="&lt;font style=&quot;font-size: 16px&quot;&gt;&lt;b&gt;%c4Name%&lt;/b&gt;&lt;/font&gt;&lt;div&gt;[%c4Type%]&lt;/div&gt;&lt;br&gt;&lt;div&gt;&lt;font style=&quot;font-size: 11px&quot;&gt;&lt;font color=&quot;#cccccc&quot;&gt;%c4Description%&lt;/font&gt;&lt;/div&gt;" id="nFB4tpNnGNIT1_HhN5Ei-210">
          <mxCell style="rounded=1;whiteSpace=wrap;html=1;labelBackgroundColor=none;fillColor=#8C8496;fontColor=#ffffff;align=center;arcSize=10;strokeColor=#736782;metaEdit=1;resizable=0;points=[[0.25,0,0],[0.5,0,0],[0.75,0,0],[1,0.25,0],[1,0.5,0],[1,0.75,0],[0.75,1,0],[0.5,1,0],[0.25,1,0],[0,0.75,0],[0,0.5,0],[0,0.25,0]];" parent="1" vertex="1">
            <mxGeometry x="-680" y="670" width="240" height="120" as="geometry" />
          </mxCell>
        </object>
        <object placeholders="1" c4Name="Клиент" c4Type="Person" c4Description="Клиент" label="&lt;font style=&quot;font-size: 16px&quot;&gt;&lt;b&gt;%c4Name%&lt;/b&gt;&lt;/font&gt;&lt;div&gt;[%c4Type%]&lt;/div&gt;&lt;br&gt;&lt;div&gt;&lt;font style=&quot;font-size: 11px&quot;&gt;&lt;font color=&quot;#cccccc&quot;&gt;%c4Description%&lt;/font&gt;&lt;/div&gt;" id="nFB4tpNnGNIT1_HhN5Ei-213">
          <mxCell style="html=1;fontSize=11;dashed=0;whiteSpace=wrap;fillColor=#083F75;strokeColor=#06315C;fontColor=#ffffff;shape=mxgraph.c4.person2;align=center;metaEdit=1;points=[[0.5,0,0],[1,0.5,0],[1,0.75,0],[0.75,1,0],[0.5,1,0],[0.25,1,0],[0,0.75,0],[0,0.5,0]];resizable=0;" parent="1" vertex="1">
            <mxGeometry x="-90" y="370" width="200" height="180" as="geometry" />
          </mxCell>
        </object>
        <object placeholders="1" c4Name="Собственник" c4Type="Person" c4Description="Клиент" label="&lt;font style=&quot;font-size: 16px&quot;&gt;&lt;b&gt;%c4Name%&lt;/b&gt;&lt;/font&gt;&lt;div&gt;[%c4Type%]&lt;/div&gt;&lt;br&gt;&lt;div&gt;&lt;font style=&quot;font-size: 11px&quot;&gt;&lt;font color=&quot;#cccccc&quot;&gt;%c4Description%&lt;/font&gt;&lt;/div&gt;" id="nFB4tpNnGNIT1_HhN5Ei-214">
          <mxCell style="html=1;fontSize=11;dashed=0;whiteSpace=wrap;fillColor=#083F75;strokeColor=#06315C;fontColor=#ffffff;shape=mxgraph.c4.person2;align=center;metaEdit=1;points=[[0.5,0,0],[1,0.5,0],[1,0.75,0],[0.75,1,0],[0.5,1,0],[0.25,1,0],[0,0.75,0],[0,0.5,0]];resizable=0;" parent="1" vertex="1">
            <mxGeometry x="229" y="50" width="200" height="180" as="geometry" />
          </mxCell>
        </object>
        <object placeholders="1" c4Name="Система умного домофона" c4Type="Software System" c4Description="Провайдер умного домофона" label="&lt;font style=&quot;font-size: 16px&quot;&gt;&lt;b&gt;%c4Name%&lt;/b&gt;&lt;/font&gt;&lt;div&gt;[%c4Type%]&lt;/div&gt;&lt;br&gt;&lt;div&gt;&lt;font style=&quot;font-size: 11px&quot;&gt;&lt;font color=&quot;#cccccc&quot;&gt;%c4Description%&lt;/font&gt;&lt;/div&gt;" id="G_0oZVv-SX7uU9xHisf4-1">
          <mxCell style="rounded=1;whiteSpace=wrap;html=1;labelBackgroundColor=none;fillColor=#8C8496;fontColor=#ffffff;align=center;arcSize=10;strokeColor=#FF0000;metaEdit=1;resizable=0;points=[[0.25,0,0],[0.5,0,0],[0.75,0,0],[1,0.25,0],[1,0.5,0],[1,0.75,0],[0.75,1,0],[0.5,1,0],[0.25,1,0],[0,0.75,0],[0,0.5,0],[0,0.25,0]];strokeWidth=2;" parent="1" vertex="1">
            <mxGeometry x="1038" y="820" width="240" height="120" as="geometry" />
          </mxCell>
        </object>
        <object placeholders="1" c4Name="Система умного шлагбаума" c4Type="Software System" c4Description="Провайдер системы умного шлагбаума" label="&lt;font style=&quot;font-size: 16px&quot;&gt;&lt;b&gt;%c4Name%&lt;/b&gt;&lt;/font&gt;&lt;div&gt;[%c4Type%]&lt;/div&gt;&lt;br&gt;&lt;div&gt;&lt;font style=&quot;font-size: 11px&quot;&gt;&lt;font color=&quot;#cccccc&quot;&gt;%c4Description%&lt;/font&gt;&lt;/div&gt;" id="G_0oZVv-SX7uU9xHisf4-2">
          <mxCell style="rounded=1;whiteSpace=wrap;html=1;labelBackgroundColor=none;fillColor=#8C8496;fontColor=#ffffff;align=center;arcSize=10;strokeColor=#FF0000;metaEdit=1;resizable=0;points=[[0.25,0,0],[0.5,0,0],[0.75,0,0],[1,0.25,0],[1,0.5,0],[1,0.75,0],[0.75,1,0],[0.5,1,0],[0.25,1,0],[0,0.75,0],[0,0.5,0],[0,0.25,0]];strokeWidth=2;" parent="1" vertex="1">
            <mxGeometry x="1030" y="1020" width="240" height="120" as="geometry" />
          </mxCell>
        </object>
        <object placeholders="1" c4Name="Устройства умного дома" c4Type="Hardware" c4Description="Устройства6 которые уже используются в зданиях" label="&lt;font style=&quot;font-size: 16px&quot;&gt;&lt;b&gt;%c4Name%&lt;/b&gt;&lt;/font&gt;&lt;div&gt;[%c4Type%]&lt;/div&gt;&lt;br&gt;&lt;div&gt;&lt;font style=&quot;font-size: 11px&quot;&gt;&lt;font color=&quot;#cccccc&quot;&gt;%c4Description%&lt;/font&gt;&lt;/div&gt;" id="G_0oZVv-SX7uU9xHisf4-4">
          <mxCell style="rounded=1;whiteSpace=wrap;html=1;labelBackgroundColor=none;fillColor=#8C8496;fontColor=#ffffff;align=center;arcSize=10;strokeColor=#736782;metaEdit=1;resizable=0;points=[[0.25,0,0],[0.5,0,0],[0.75,0,0],[1,0.25,0],[1,0.5,0],[1,0.75,0],[0.75,1,0],[0.5,1,0],[0.25,1,0],[0,0.75,0],[0,0.5,0],[0,0.25,0]];" parent="1" vertex="1">
            <mxGeometry x="900" y="1355" width="240" height="120" as="geometry" />
          </mxCell>
        </object>
        <mxCell id="G_0oZVv-SX7uU9xHisf4-8" style="edgeStyle=orthogonalEdgeStyle;rounded=0;orthogonalLoop=1;jettySize=auto;html=1;exitX=0;exitY=0.25;exitDx=0;exitDy=0;exitPerimeter=0;entryX=1;entryY=0.75;entryDx=0;entryDy=0;entryPerimeter=0;strokeWidth=2;strokeColor=#FF0000;" parent="1" source="G_0oZVv-SX7uU9xHisf4-2" target="_bE7263p_LXFPztFBxZn-1" edge="1">
          <mxGeometry relative="1" as="geometry">
            <Array as="points">
              <mxPoint x="610" y="1050" />
              <mxPoint x="610" y="985" />
              <mxPoint x="450" y="985" />
            </Array>
            <mxPoint x="660" y="985" as="targetPoint" />
          </mxGeometry>
        </mxCell>
        <mxCell id="G_0oZVv-SX7uU9xHisf4-9" value="Читает события добавления&lt;br&gt;и удаления номеров" style="edgeLabel;html=1;align=center;verticalAlign=middle;resizable=0;points=[];" parent="G_0oZVv-SX7uU9xHisf4-8" vertex="1" connectable="0">
          <mxGeometry x="0.0021" y="3" relative="1" as="geometry">
            <mxPoint x="-32" y="-13" as="offset" />
          </mxGeometry>
        </mxCell>
        <mxCell id="G_0oZVv-SX7uU9xHisf4-13" value="Firewall" style="text;html=1;align=center;verticalAlign=middle;whiteSpace=wrap;rounded=0;" parent="1" vertex="1">
          <mxGeometry x="886" y="1110" width="60" height="30" as="geometry" />
        </mxCell>
        <mxCell id="G_0oZVv-SX7uU9xHisf4-14" style="edgeStyle=orthogonalEdgeStyle;rounded=0;orthogonalLoop=1;jettySize=auto;html=1;exitX=1;exitY=0.75;exitDx=0;exitDy=0;exitPerimeter=0;entryX=0;entryY=0.5;entryDx=0;entryDy=0;entryPerimeter=0;startArrow=classic;startFill=1;endArrow=none;endFill=0;strokeColor=#FF0000;strokeWidth=2;" parent="1" source="_bE7263p_LXFPztFBxZn-1" target="G_0oZVv-SX7uU9xHisf4-2" edge="1">
          <mxGeometry relative="1" as="geometry">
            <Array as="points">
              <mxPoint x="450" y="985" />
              <mxPoint x="530" y="985" />
              <mxPoint x="530" y="1080" />
            </Array>
            <mxPoint x="660" y="985" as="sourcePoint" />
          </mxGeometry>
        </mxCell>
        <mxCell id="G_0oZVv-SX7uU9xHisf4-15" value="Публикует события въезда&lt;br&gt;автомобилей по номерам" style="edgeLabel;html=1;align=center;verticalAlign=middle;resizable=0;points=[];" parent="G_0oZVv-SX7uU9xHisf4-14" vertex="1" connectable="0">
          <mxGeometry x="-0.4524" y="2" relative="1" as="geometry">
            <mxPoint x="58" y="2" as="offset" />
          </mxGeometry>
        </mxCell>
        <mxCell id="G_0oZVv-SX7uU9xHisf4-10" value="" style="image;html=1;image=img/lib/clip_art/networking/Firewall_02_128x128.png" parent="1" vertex="1">
          <mxGeometry x="866" y="1024" width="80" height="80" as="geometry" />
        </mxCell>
        <mxCell id="G_0oZVv-SX7uU9xHisf4-16" value="" style="shape=image;imageAspect=0;aspect=fixed;verticalLabelPosition=bottom;verticalAlign=top;image=data:image/png,iVBORw0KGgoAAAANSUhEUgAAAgAAAAIACAYAAAD0eNT6AAAABHNCSVQICAgIfAhkiAAAAAlwSFlzAAAOxAAADsQBlSsOGwAAABl0RVh0U29mdHdhcmUAd3d3Lmlua3NjYXBlLm9yZ5vuPBoAACAASURBVHic7N13YBTV+j7w58yWdNJJIYGUzaZsEkroIB3pnQAKqFjBgliuveK9eq3X3q4FKwoIgoBKB6WJ9CSQAoQOCUmAkLrZPb8/ov74einJzJmdLe/nn1vY886jQObdmVMAQgghhBBCCCGEEEIIIYQQQgghhBBCCCGEEEIIIYQQQgghhBBCCCGEEEIIIYQQQgghhBBCCCGEEEIIIYQQQgghhBBCCCGEEEIIIYQQQgghhBBCCCGEEEIIIYQQQgghhBBCCCGEEEIIIYQQQgghhBBCCCGEEEIIIYQQQgghhBBCCCGEEEIIIYQQQgghhBBCCCGEEEIIIYQQQgghhBBCCCGEEEIIIYQQQgghhBBCCCGEEEIIIYQQQgghhBBCCCGEEEIIIYQQQgghhBBCCCGEEEIIIYQQQgghhBBCCCGEEEIIIapjWgcghDRfXFyct9EYGAo0hAE8DGDhAFpwzgIZ4/52wJ8B/gwsGAA444HgTGoczQMZIHFADwAMaLADnIGd/bM+AyoAgHPUA/ZKxtg5O3BWAirtYOfB7Odh050F7KWSZC0pKCg44/B/CYQQRagBIMTJxMW1C9Lr6xIY08UBiAF4K8Z4NGcsFnZEgyEKgL/GMf/OCqAUQAkHTjKghIEVc86L7RIO67h0OCDAeHT79u1WrYMSQhpRA0CIBjIzM/2q6nkKs/M0AKkS7Il2sAQGJAAI0TqfSmwAToDhIDjyGZAP8H2ALr+gYG8xALvG+QjxKNQAEKKqbF1S0j4zwNsBaMcYMjmQAqAN6O/fxeoA5HNgHxh2wsZ2AoadRUU7S7UORoi7oh9AhIgjmUyWFMZ4F0hSF3DeHgzp4PDVOpgLOwaGnYxjp92O3yXJupnmGxAiBjUAhMiUnJwcwLmuJ+esGyR0AUcXAIFa5/IA+QC2MGCTTWffdGDfvjzQ6wNCmo0aAEKaqHVGRrCxxt4TEvow4BoAHQDotM5FcA7AL5xhtQ5sTX5+zl4AXOtQhDg7agAIuYysrCzD+fPV3SBJ14LjWgBZACStc5GrKgGwhgGrGdOtzs/fc0jrQIQ4I2oACLlIYmJ6LNNjOLPzwWDoCyBA60xEsXww/oMdbHlsVPgv69ata9A6ECHOgBoA4ulYYkpGB53dPpIzNhycd9A6EFHVWQ78DLBleqlh+f79+8u0DkSIVqgBIJ5IMpvTenBI2QAfC6CV1oGIJhoArGXAfMC6iFYXEE9DDQDxFJLZbOnOGc8GZ+NAN33yf9k4sIUxNr+hHt8cOpRzWutAhKiNGgDi1kymNIsksSkcmAwgVus8xCU0AGwFAz6vr7+wuLi4uFbrQISogRoA4nbiLJZIvRXXMcam0Dt9otBZAPMkhs/z83M3ah2GEJGoASBuIltnNucMskN3GwMfjj9OuvNUhoBA+EXGwC+yFY7/skJWjRYd+6L+zAnUl5yAvbpScEIXxFEI4HNJavgkPz//hNZxCFGKGgDi0hISLK31enYzB78ZHvqI3xAQiJDUtgg2paJFghlBCckwtgj669eXju8pq27ym0v/+u8NledQd6wItUeKUHekEFUHcj25KbCCYQnj/L2Cgrw1oE2HiIuiBoC4ImY2p/YHpLs5MBwethsf0+kRammPllndEGbpgIDWCWDS5fcnEtEA/B3ndtQfL0Z14W5cyP0d1UV7Abvn7cbLgQIA73sZ8Flubm651nkIaQ5qAIjLsFgs/nUNbCrj/G4AaVrncSSm06Nl+y6I7jEALTt0g8HPv8lj1WgA/s5WcwFVudtQuWMDLuzbAdhssq7pwmo48BXs+E9RUW6e1mEIaQpqAIjTM5kyY5iu4V5wdhs87LCdwHgzWvcfjqge/WAMCLr6gEtwRANwMduF86jcvh5nN/+MuhPFsmq4MM6BnyTwVwsK8lZrHYaQK6EGgDitlJSMjAa7/UEGTAJg1DqPo0h6A6K69UGbweMQkpyuuJ6jG4CL1RzMQ8WGpajcvdETnwrs4mCveRn4t7m5ufVahyHk76gBIE7HZMroDcn+MAMGw4P+jOq8vNFm4CgkjJgE79BwYXW1bAD+ZK04g4o1C3F28wrweo9bVn8MnL9UUxP40bFjm2u0DkPInzzmhytxfklJ6QPB8ATAe2mdxZF0Xt6IH5aNxBGTYAgQ/4bDGRqAP9mqzqNizSJUrF8Ce32d8PrOjAGnALzs7a37YM+ePVVa5yGEGgCiuaSk9GF/3Pi7ap3lT4HRMdB7e6PsYJFq12A6PdoMGAFT9jR4B4Wodh1nagD+ZDtfjjM/fYOzm39W99VAZDxgawBKj6p3jeYr5Qyv6tDwbn5+vseupSTaowaAaKbxGz//F4BOWmcBgLCEJCT1HgBT7/44vT8XK1+eDa7SzSnU0h4Ztz0I/5g2qtS/mDM2AH+qLzmOku8+RNW+7epcgElgg24C4tOBgt/BC3cAx/IBu1Ms3S8DZy/W1AS8Ta8GiBaoASAOZzJldGPM/jwY+midJTwpBSkDhyKp9wAExbQG5xxbPn4Xmz99T5XreQUGI/WGuxHT61qAOeavnzM3AH+6sPc3lCz6ENYzp1Spz3qMBq4Z1/jvvKYSyP8dyNsMfmQ/wDXfv+AYA56Njg6fs27dugatwxDPQQ0AcZjk5PRMO+f/QuPmPZoJiIxG6rXDkDpwGEITTH/9/9xmw8oXn0HOskXCr8kkCa0HjEDy5Okw+gUIr38lrtAAAIC9vg5nln+Fs+u+B1djU6HM3mBDbwHYRZsmXagA37cVyNsCnFDvdU8T5XOGJ4ryc78D7S5IHIAaAKK65OTkaM71szlwEzTatc8rIADmfoORNmg4ojM7gP3t27fNasWPzzyMgnXy9s2/koA2iWg7/SEEJVmE124KV2kA/lR7pAinvvoP6k4eFl88pRPYyLsA3SWOiqgoAXJ+Ad+7AThXJv7aTbeN26V/FBXtXa9lCOL+qAEgqomOzvL1Dai9h3E8BqCFFhkiktOQOSobKYOGw+Dtc8nP2KxWLH3qQRzYIH7flpjeg5Bx+0PQeXkJr91UrtYAAAC31qN0yaeoWP+D+OKJbcHGzAIMhstc3A4cLwTP2Qjk/ApYNVvCv5RBuregYO9BrQIQ90YNAFEDM5stN3DgeQDRjr64d2AQ0gaNQMbI8QiNT7ziZ621tVjy6D04/NtmoRkM/i3Q7s5HENFZ+xWNrtgA/Kly10ac/uZN2KoFr5qLTwcbdz9guPL+Ury2Cix3I/iO1cCZ42IzNE0tB3/Ny8BeyM3NvaBFAOK+qAEgQplMqR0kSXqLA90dfe2I1HR0mDAFSX0GQm+8+jdua20tvn9wBo7u3CY0R0hKJtrf+zR8wiOE1pXLlRsAALBWlODknJdRc2if0LqsdSow4R9XbQIANG7weyQPfPsqoGC7FhMHTzDg0YKC3C9A8wOIINQAECEsFktIfT3+CYbb4cD3/EynQ1KvAegwcQqiM9o3eZzNWo/FD92D4t82issiSTCNnQrzhJvBJOc5oNDVGwAAgN2G0mVfoWLVAnCBN18Wnwlk3wfoLvM64FIqy8F3rgZ2rQWqzgvL0hQMWAvopxYU7NbkcQRxL9QAEKWYKTl9GuP8RQBhjrqoV0AAMkaMQ7tx16NFZPPeMtgbGrD0iftR9MsaYXl03j7oMOtZRHR0+IOPq3KLBuAPF3K24sScl8VuJ2zuCDbmHqC5TZvVCuRsAP/tJ6D8pLg8V8NR2NDArjl0KOe04y5K3BE1AES25OTMZDtsH4Cjt6Ou6Rcajo7X3YjM0RNg8PFt9ni7zY4fZz+M/FU/CsvkHRKGzo++jBbxScJqiuRODQAA1B4twvEPn0ODyJn6ad3ARtwJSDJ+JHI7ULgD2LIM/HihuExXtrCwIHecoy5G3BM1AKTZTCaTFySvhxnwGACHTG8PjGqFjpNvQfrw0dA15Z3tZax+eTZ2fz9PXK54Mzo9+hK8Qxz28KPZ3K0BAICGs2U49sEzqDt+SFhN1r4/MHiaohr8eCGw8XvgwG5BqS5PJ0mZ+/fv3av6hYjbcp4XlcQlJKakd5egW86AbACXWEwtVmh8Inrf8xCuffgZRKZlQNLJ/yP72+f/xbavPhGWLaJjD3R+7GUYVTjAR6SCefL+mcOGXC84iTiSty9adOqLuuPFsJaeEFP01CEwvR6ITZZdgrUIBbP0ADO1Ay6cBSpUfErPUVJWVrJOvQsQd6f6D3DiHmJiuvn4+J2bDTu/Dw5oHINj2qDbrXchuf9gMEm6+oCryPvpB2z88E0ByRrFDxuPtBtnCslG5JG8fNDq9idRsvBDnN0g5mkFXz8fCAgFS++hrFBUAlj2A+CnisF+XQhetLNxJYFQ9lTBBYmHoQaAXJXJlNqVSec/BWcpal8rICIS3abNgGXoaDAF3/YvdmTbZqz891Pggn4AmyfcDPOEm4XUIsowSULE+OnQ+wbgzE9zlRfkHFj2IeAX2HiAkNJ8kXHA+PvBTh0CX/stUJyjPOMfOGfUfRJFqAEgl2UymbwY85oNhgeg8rd+3+AQdL7hNmSOntCkNfxNVV58ED88cR9sVquQesmTbkPS+BuF1CLihA6dDC5JKFv+lfJidhv4ojfAbngWCBO0j1VkPNh1jwCHcoB134CfKlZeU+ICihBPRg0AuSSTyZLGJHwFoJ2a1zF4e6PDpBvRecotsmb1X0nt+XP4/uG7UXdBzAZqKdffAdPYqUJqEfHCBl8HSdKhdOnnyovV1YAveBXspmcBb3/l9f4Unw7EPQfs3wq2fgF4hfzTDxnHT+KCEU9EkwDJ3zGz2XIXGBYAiFXtIowh9drhGPnCmzD16g/d5fZll4nbbFj86Eyc3p8rpF7q1BkwjZkipJajueMkwMvxSbRAMhhRnb9LebHaKuB0MZilu9ijmxkDC48BOvQHfPyAEweAhmY+ofIPPFKYs+NecaGIJ6InAOQv8fHpEXoDPuHgQ9W8TnRGe/SZ+RAi0zJUu8a6N1/CkW1i9vdPu+EuJIy8Tkgtor6QAePBJAkl3wtY8XEoB3z1l2ADblBe6+8kHVinIYClJ/iGBcDuNYC9CfNUDN5gkx5tbb47Zhl07LaCG9vRroBEFppEQgAAicmWvgYD3wUVb/4BLSMw7LlXMPG9z1W9+ecuW4SdCwS8CwaQNpVu/q4ouN9YhI+6RUyxbSuAvb+IqXUpvgFgg6eBTXserE3alT/rHwR2/aNAeAzAMAR2nmues+t29cIRd0YbARHJZLY8wYCnoNIrIabTocOEqeh+y53C3/P/3ZkDBfj6tuvQUFenuFbCiElIu/FuAam05Y4bATVVyaKPUbF2kfJCBiPYjc8C4aq9FfsLP7gH+P1n4Mi+xqOIGQOCIwFLd7BOgwGv/z3WmoH/IOntd+yb2tGBexITV0cNgAdLTMxsKensXwF8gFrXiM5ojwH/eBJhiWa1LvGX+qoL+Ormiag4dlhxrege/dH+3qfdYp2/JzcAnNtx8rNXULljg/JiIVFg02YDxv+9AauF11aBGYxNPayonDE2I/+mduK2uiRuzfV/uhFZzGZLT0ln26nWzd87MAgDH52Nie997pCbPwCseP4pITf/0PQstLvnCbe4+Xs6xiRETbkPvkmZyouVnwSWf6S8TjMwb7/mnFQYwjn/1vzpznlxn+4MUjMXcQ/0E84Dmc2WuzmwBoCgRc7/V3L/wZj29Q/IGD4WTOTs6SvYOf8rFKxbobhOQJtEdHzoeUh6sasSiHaY3oBWtz4BY1QbxbX4vq3AduV/zlSWbQR+T/pkdxetgxDnRg2AB4mLi/NOSkr7mANvARB+h/MLCcWIf/0Hw2a/Ap+gYNHlL6vsYBF+efc1xXW8Q8PR+dGXYfD1E5CKOBPJxxexd86GPril4lp89Vyg5IiAVKpKZJL916Q5Ox/HM5x+zpNLoj8YHiIlJSXO4OW/EYypsodt2uARuPGrJUjqM1CN8pfVUFeHpU8/iIZ6ZZP+DL5+6PLEf+ATpvwGQZyTPjAUMdOfhuStcCKqzQosfq/5a/cdjUPPOP5pbr1rleXT3yK1jkOcDzUAHsBstvS02XW/gfMOomv7h7fEmJffxeAnX4B3C8efirf+nVdQdrBIWRHG0PaeJxAQGyckE3FeXlFtEDXlPsUb+/AzR8HXCjh7wBEY+lph2GWes6O/1lGIc6EGwM2ZzZZJHFgJIFx0bVPv/rjhs4WI795LdOkmObT1V+xZ+I3iOknjbkBkp2sEJCKuwD+zG0IGZCsvtH0lULRTeR3HiADYT8mf7noYnNPqLwKAlgG6M8lstvyLA4+ILmzw8UWfWY8gY/hY0aWbrOZcBT6bPArVFeWK6oS37YLOj7/s1jP+PXkZ4OVwux3H338KVfuVbRnM/AKB214EfASeF6C+ZfXAlOJp7c/+/RfMZktbO2MZEue+AD/a0OCz6eDB7ee0CEnU574/9TxYdHSWb5LZskCNm39kWgamzlmg6c0fANa89rzim79PeBQ6zHrKrW/+5NKYJCHqxocUTwrkVeeAlV8ISuUww4zAVtMnO/7adtCUnDYqyWzJ48AuxvkXHPiAgy3X6WtPms2WdxISshz/fo+ojn7yuRmTqX24n3/dagBjRNZlkoQuN96OSe99gaCY1iJLN9uBDauRv+pHRTV0RiM6PvQvGALo55qn0vm1QKtbH2vcaEcBnrsRvHC7oFQOY5YY22L+bNcYs9nyAuPsewCpl/icDwfu1Olrd5lMlqvsU0xcDTUAbiQ5OTOeSfW/ALyryLo+gcEY/cq76HH7TEh6bc+Pqj13Fqtefk5xnfRbH0BgvGM2KCLOyzvWhMjrZiquw378BKgVc+y0AwXw31d918QnhXGShF8TU9K7q56KOAw1AG7CbLZ0snPbFgDJIutGZ7TH1M++Q3wXee+RRVv7xr9RVX5GUY3YfsMQ22+YoETE1bXo2ActuiibIM+rzgErXOxVQO0FYM3XTZ4HxoFgyc5XmFIsg9SMRRyHGgA3kJhsGcyBtQCELWJnjKHj9Tdh4jtz4B/uHGvji3/biH0/K5uY5hsRDcs0Okad/F8R4+6AISRCUQ2euxE4uFdQIgfI2QRYm71/hh+zY4nZbJmkRiTiWNQAuDhTclq2xLEYgLDt67wCAjDihTfQ664HwXSqHBDYbA11dVjzyj8V1WCShPb3PAm9yicSEtcjefsiaur9iieE8hVznH+DoD8dy5c70siBr8xmi+sflenhqAFwYSZz+lTG2dcAlM1iukhQTGtc9/5XMF3TT1RJIbbMeR9njx9VVMM0ZgqCUzIEJSLuxifRgpD+45QVqTgNbF4iJpDKeI2iOQsSB94ymy3/FpWHOB41AC7KbLbcz8A/AyBsVl5c12sw+aNvERKXIKqkEGWHDmD73DmKagQmJMM8QZVdkIkbCR06Gd4xiYpq8M1LgbKTghKpyEv5kzAOPJyUZHkXdC9xSfSb5oLM5vRnOPAqBG7k1PH6mzD6pXfgFRAgqqQQnHOsfuU52KzyH6vqjEa0n/kUmE7bFQzE+TGdHpE3PABJydJAmxX4+VOAc3HBVMCi4gUVwoykZMsXQLZzvC8kTUYNgItJSrb8k4M/Laqe3uiFwU++gF53PQhJ53x/HPavXIZju35XVCN16l3wj1F+FCzxDF6RrRE2cpqiGvxwHrB/q6BEKknrAUiC7tkc15vNeZ+C7ikuhX6zXIjZbHkBHI+LqucTGIzxb36CtMEjRJUUylpbg1/f+4+iGmHpHRA3WNtdC4nrCe41HL4mZfNF+Nq5gIInV6oLDAXrMlRYOQ5MTUpO/wh0X3EZ9BvlIpKS014WubVvUExrXPfhV4jOaCuqpHDbvvgYlSWnZY+XDEZk3P6g4pPfiAdiDBET7wLTG+TXOFcGvvUHcZnU0DsbSO4krh7n00xmy/ugc2ZcAjUALsBkTn8FnD0oql50Rltc98FXmm/peyXnT53A73M/VVTDNGYK/KKd95+RODdjRIzyVQFblgLny8QEUgOTwEbfDWbpIa4kcJvZbHkb1AQ4PWoAnFxSsuU5Bv6AqHqJvfpj3OsfwycoWFRJVWx4+1U01DV7k5K/+EXGInH0ZIGJiCcKHTQRxogY+QWs9eBrlR9ZrSpJB4yYDoh9HXBnUnLa68IKElVQA+DETGbLI+B4QlS99tmTMfJf/4HB21tUSVWcyNmFgrU/yy/AGDKnPwid0UtcKOKRmN6AiPHTlRXZtwU4USQmkFoYA+t3PVjvCeJemXE202S2vCqmGFEDNQBOKikpfSYDXhBVr9vNd6LvrEdd4ujbX955TdH4mF7XIjQ9S1Aa4ul8k9uhRcc+8gtwDqz9VlgeVXUfCTZoGiCJaQIYcL/ZbBH2c4yI5fx3Aw9kSk6/BYwLeXzGGEPvmQ+h2y13iiinugO/rsPxPTtkjzf4t0DqDbRDKRErfMxtkHzl75HBj+wDDuwSmEhF7fuBjZoJ6BRMgLwIBx5JSkoXNoeJiEMNgJMxJaeNYpx/AAETaCSdhAGPPIusiTcISKY+u82OXz9Q1vekTZ0Br0Dnnt9AXI8+IBAtR96kqAZf9y3A7WICqS2lE9jEBwGjj5h6jL9kNltc4weRB6EGwImYzWnXMM7mAlC8O4fOYMDQZ19GxnDXWQO/76fFKDso/11pYEIyYvrSMb9EHS26DVS2TXDJUfDczeICqa2NBWzyY2DeQs4ZYxz4OCkpnf6COhFqAJxESkpGBgdbAkBxy60zGDHy+Tdg7us6x3bbrPXY9PE7imqk3nCXS8xxIK6JMQnhoxWeJ7FhAWBrEBPIESLjgUkPA15CngToIfF5iSnp3UUUI8rRT0snkJKSEmez238CEKS0ls5gwIh//Qfx3XsJSOY4e39YiMrTp2SPj+jYA2HpHQQmIuR/+Zrbwj9dwcY550qBPevFBXKEqASwCQ+LeR3A4SvZ+Q9mc0aK8mJEKWoANGYymVo02HVLAEQrraUzGDDsuVeR0KO3gGSOY7PWY9sX/5U9nkkSUiYrXKpFSBOFj7oFUPCkiW9e4lpPAQAgxgRMekjUnIAQDvvyxMTMliKKEfmoAdBQVlaWgUleCxig+JD6P2/+pmv6iYjmUDlLvlO05W+bgaMQECvoZDNCrsIYEYOgbgper50rc72nAABYqySwif8ADEL2EYlnOttCk8lEm3VoiBoADZ0/X/MmgIFK60h6PYbPfsUlb/42az1++/Ij2eP1Pr5IylZ2chshzRU6dAokb1/Z4/mmJY3HBruaGHPj6gCD8vs2A3pIkvFz0JbBmqEGQCOmZMvDYEzxc2tJJ2HoMy8isVd/EbEcTum3f9OYqfAKChGYiJCr0wcEKjsn4HwZ+O5fxAVypNgUsLGzACUHJf2Bg00wm9OFHW9OmocaAA2YzZZJjON5pXUYY+j/4FMuNdv/YvaGBmz7+hPZ433CWiJ++ESBiQhpuuC+o6EPCpVfYMsPrrMvwN8lZICNvgdgym8hHPwp2iNAG9QAOFhiSnp3DnwGAf/ue06fhYyR4wWk0sb+Fctw/tRJ2eOTxt8EndEoMBEhTScZvRA6aJL8AudKwfNcaF+Av0vqADb0FhFnBzAOfGQ2W3qKiEWajhoAB7JYLCGSnX8JQPFdq332ZHSacouAVNrgnGObguN+fcIjENNniMBEhDRfUNdroQ9WMJl989LGswJcVWZvsN7ZIioZOPA1rQxwLGoAHCZbV1+PrwEonq6eNmQk+tz7iIBM2jn4yxpFu/6ZxkyFJOAdJCGK6HQIGahgLkDpUeDAbnF5tNBtJFinwSIqxTKdbaHFYqHHeg5CDYCDmMz7XgSDkJf11poaXCgtEVFKM0rf/cf2FXd2OSFKBHW9VtFcAL5lqcA0jsfPnwHOlgqpxYAe9fV4SUgxclXUADhAUpLlOgb+gKh6hetWYs71I7Dtq09gb3CxDUUAHNv1O07slf+tJ3HMVEgG+pJAnAPTGxA6QMFj8KP7gWPyn4ZpxmYFNi4GPnwIvHC7uLoM95rM6VPFFSSXQw2AypKT0zMhQf5C98uw1lTjl3dfw+c3jsXR7VtFl1fV9m+/kD3WOyQMrfvReSLEuQR2uxb6QAUrArb9KC6MA/BDe4D/Pgq+YT5grRden4F/kJRkaSe8MPk/qAFQkcVi8bdzPg8c8ncMuYry4oOYP/MWLH38fpw7cUytywhz7sQxHNq4VvZ40+gp9O2fOB1mMCJkgPy5ADx/W+MOgc6u/CSw4DXgm5fAK+Sf3dEEPgDmmUymFmpexNNRA6AiqxXvAkh2xLUK1q3Ap9cNx9rXX0DdhQuOuKQsO+d/BbtN3tpn76AQxA4YKTgRIWIEdR8s/ykAtwM7VooNJBCvrQLWfgv+0WPghTscc1GGJEnyFv70lPx/1ACoxGy23MYBh77Hsjc0YOf8r/DJxCHYvWgeuM3myMtfVX11FXKXL5I9PmH0ZFr3T5wWMxgR0neU/AK71gLWOnGBRLDbgG0rgPceAN/yg8O3L+bg2Saz5U6HXtSDUAOggsTU1HTO8LpW1685W4HVr8zGnCmjULD2Z3AnWWecu/x72U8n9L5+aN1vuOBEhIgV2GMIJB95b/x4bRX43o2CE8nEOfj+rcCHD4Ov+hyo1e6pIgNeS0zJyNIsgBujBkCw6OgsX8kmzVfzvX9TVRwpxtInHsDXt07C4d+03XGMc46dC+bKHt+6/wjoff0EJiJEPMnLB4FdFJzvtf0n7TcGOrAL/JPHgUVvqf2ev6m8JJt9rsVi8dc6iLuhBkAwv4C61wCkaJ3jYqf35+K7+27D/Jm34ETOLk0yHN2+FWePFssayyQJ8UMVbLZCiAMF9x4JJsn80XrmBHA0X2ygpjqyH/zLf4LPewUoOaJNhsthSLJatXuq6q6oARDIbE4bAs5v1zrH5RzdvhXf3DEF30yfiqM7fnPotfcsmid7bFSXPvAJjxKYhhD1GEIj4JfRVfZ4vnO1wDRNcKwApKGr3QAAIABJREFUfP6r4F/9s3FPAifFgVtMyWkTtM7hTqgBECTOYonkYJ9B6dnWkvpHY5/YuxPz77kZC2bdhuN71J/RW1V+BkW/rpE9Pm6Y6x54RDxTSB8FkwHzfweqK8WFuQx+ZB/w1b/Av5gNFO1U/XpMp1Neg7N3zea2rQTEIaAGQBRmtOJTAOGKqmT2Brv5eSDGLCbVVRzZthnfzrgB8++ehuItv6g2WTB36SLZOxYGmlIRkpIpOBEh6vJJtMA71iRvsM0K7NkgNtCfOAcKd4B/8Vzjzf/IPnWu8zfRGW0x5ZN5aDtG8fHdoRwNQk5TJYDylozAlJw+A8C9ioqEtQIbdx8QEAKW2QtoEQYcKwAaxO+y9XfnT53AvhXLULR+NYy+fgiNS5D/DvNvuN2On//5OOouyPtGkzb1LrRokygki6cqmCfv3IWwIdcLTuJZJC9vXNi9Sd7gc6VgWdeKOGq3ka0ByPkV/If3gN9XAOcds+mQd4tA9J31KPrd9zj8QsPRumNXHNy4HtXliq6fEBoSXlZeXurY95huiBoAhVJSUuI4ZwsBeMkuYjCCTXoECAhu/N+MgUXGgbXt3fgo0EETcqorylC0fhVyf1oCgCM0LhF6hevuD2/bhF0LvpY11jskDG1nPCysGfFU1ABowxgRg3NbVsJeV9P8wbVVYLHJQJCy03F5bRXY7yvBl7wL5PzqkFcLAMAYg2XoaIx+8W20apsF9kcjI+n0aJ3VBbnLv4e9QcGeAoz1CgmO+La8vKRCUGSPRA2AMiw4JGIBlM76H3wzWMIlHnMbvMDMWWBxFqDkKHDhrKLLNFX9hUoc3roRuxfOxYWyUgS1ioVPYJCsWhs/eBNlh+QddGIaMxWhlvayxpL/jxoAbTBJArfWo7pwj7wC3A6W3Ene2DMnGvfpX/ohcGAXUC+jCZGppTkVw597Be2zp8Dg7fM/v+4TGISAlpEo2qBosqORMdauvKzkcwDOsdGJC6IGQIGkpLQ7wNhMJTWYpQdY76tMcmsRBtauT+NrgRMHHLZbmM1qxam8vdi9cC5O5eyBT2AgAqNj/+rmr6aushIrX3wGdhk7EjKdHu1mPgn9JX6AkOahBkA7Xi2jUb5usby1/WdPgWUNAvSGpn2e2xvX8K/4DFjzNXDyUONOfg7iFxKKvvc+gv4PPokWUVeepxduSsb5UydQWqho1UGb0JCI8vLyEtc6Dc2J6LUO4KriU1PbwMZeVlQkJAoYfFPTPsukxlcCKZ3BN30PbPu58b2eA3DOcWjrrzi09Ve0iGyFjJHjkD5sNPzCrvx4Mn/1j2iol9estMzqDu+gEFljCXEWuhYh8E/rhAs5Mu5RViuwbwvQru+VP1dZAb57HbBnnSYHCukMBrTPnoyuN02H0a/pe/X0e+BxnMzbg/Lig/IvzvjzJlP6sqKinAPyi3guegIgU1hIxFwGWGQXkHRgE/8BBDZz4YDeABafAZbWDbhQAZSdlB1BjroLlTi6fSt2zP8SJQX74eXn1/hU4BLLF9e+/jwqS07Luk7a1LvgHx2rNC4BPQHQmuTljcrt8mb1s5oLQNs+//sLdg4c2A2s+Rp8xafA4TxAzlwDBRhjSOozACNeeAMpA4Y2+5wOnd6AmHZZyFm6CFz+kwojY0gtLyuVf8a4B6MnADKYzZZJHBiiqEjPMUBkvPzxwRFgY+4FTh4E1n4DfjhPUZzm4jYbDmxYjQMbVsMvrCXMfQfCMnQ0WppTAQAVR4txMkfeu0/voBC07NBFZFxCNOOf1hH6wFA0yPh2zo8XgpWdBEL/2AjrzAlg3xbwPRuA82cEJ2266Iy2uGbG/WjVVtkW/WGJZnS/9S788t5/lJQZmJRkub6wMFfebGMPpv6uM24mLq5dkNFo3ceBSNlFIuPBbnoWYAJntxftajyu88xRcTVliEhOQ9qQUSg/Wozd38nb+980dipSrr9DcDLPtXR8T1njkt9cKjiJ5yr94XOUr5S5G2bWQLDgKCBnA/ipYqG5missIQk9p89CQo/ewmrabXbMu2sqTuzdraTM6TovKfXI3r20KqAZ6AlAMxm8Gv7NuYKbv94ANmK62Js/AJjaAYmZYDkbwX9dBJwtEVu/iU7n5+F0voKnEYwhlk79I24msOtAlK+aL28y4PaVmk9zD4yOQbdpM5A6eITwZbmSTsKgx/+FL28aD2ttrdwyEcY6+4sAnHYrdmdEC6ybITnZ0gOc36akBuudDYSptJMlk4CMa8DueBkYdhsQpGxjQi2EWdrDL5J2+iTuxRgeBd/EdK1jNFtgVCsMfHQ2ps1dirSho1TbkyM4Ng49p9+nqAYDbklOtvQQFMkjUAPQZNk6O8c7UPLvLMYMdFQ2daBJJB1YZm+wO14BGz4dCI5Q/5qCxPanb//EPQV2H6R1hCZrERmFPrMewU1zf0DG8LGQ9Oo/LG43/nq06dJdSQnJzvE2kE2T25uIGoAmMpnz7gDQVnYBg1fjo38HHPbzF0kHZPQEu/0lsKG3Ni47dGJGvwBEdumjdQxCVOHftjt0Ps59pH1wTBsMfPgZTPtmOTpkT4HOoGwn0OZgjGHgQ0/D6OunpEy7pKTcW0VlcnfUKTVBSkpKKOfSQgC+cmuwPhMb39NrgUlAZBxY1gCgZSxQUeKwXQWbQ+/rB1t9HSS9Ht4hYWCi50l4KFoGqDG7DTWH9uP81lWoO34Adpl7Y6gpIjkNfe97BP0feAIRKRZIAk7uk8PLvwW8Alrg0CYFhyEx1tU/OvKjcyUlsicUeAqaBNgENpvuOTCEyi7QMhbo5ASP/5gEltwZSO4MHMsH37y0cZtQlU4BbK66cxUoXDAHhQvmQOfljeDkDIRlZiEssxOCEpK1jkdIk1nPnEJ1/i5U5e9CdcFO2KqrtI50SdEZ7dFpyi1I6NG7yTt8qi1zVDb2/bxEyaqAMK962zNQekCbB3CO33EnZjZb2nJgO+Q+LZEY2A3PAlEJYoOJcvow+O8rgLxNgJLDOVTmF9kKYZkdEd62C0IzsmBQ9pjQo9AyQPXZa6pRXbgbVft2oCp/J6xnTmkd6bJ0BiNSBg5FhwlTEJ6k7BgTtZQW7seXt0wEl7GN+B8auJ23KyrKyxWZy93QE4Cr+w+UvCrpMNB5b/4AENEGbNhtQJ+JwK414DtWOeXrgapTx1F16jgOr1gMJukQZEpBcGomQlLbIjQ5A4aAQK0jEg9iqzqPmkP7UF2Ui5qDuag9UgjY7VrHuiK/0HC0HTsRmaMmwDfYubfZDk9KQftx12PHPNkb/OkhsZcBDBUYy+3QE4ArSEpKHwbG5X8NCggGu+0lwMuFDrSxNQD7f2tce3y8UOs0TcMYAmLiEPJHQxCS2g4+VzmnwJPQEwDlrBVnUHNgL2oO5KHmYB7qTh1xmldnVxOd0RZtx1wHc79B0BmaeLCQE6ivrsJnk0fK3k4cACSG/vn5uWsExnIr1ABcVrYuyZy3Gwr2+2dj7gVSZB7n6QT4maPAzrWN54jXVmsdp1l8wiMRmpqJ4JRMBCWloUXrBDCdZz7wogagmWw21J4sRu3hAtQcyEX1gTw0VGizsZZcXv7+SB08EpmjshGWkKR1HNkK163ED4/L3x+AAdsLCnI7gY4MviRqAC7DbLbcyoH/yi6Q2A5swoMCE2nIagX2bwF2rnGdpwJ/IxmMaNHGhKDEZAQmpiAoMQX+sXFgkvsvhKEG4ArsNtSdOoraI4WoO1KEmqOFqDt+CNyJ58NcSVR6W2SOHA9z/yEweHtrHUeIhQ/MQPGWX+QX4Li+sDBX3r7kbo4agEvIzMz0q6m1FQCIllVA0oHd+u//f4CHOyk7CZ7zC5C7UZOjR0XSeXkhMC4JgaYUBCakIDDeDL/oWEhNPX/dRVAD0IjbGlB/+hjqjh1svNEfabzZO+OyvOYIaBmB1EEjkDZ4JELinHi+kUzlhw/h8xvGwN4g+/jzg0YDUnNzc+tF5nIHnvlM9CpqauyzwGTe/AEgq7973vwBIDQKrPcEoNd44Mg+8L2/Avu3AVbXW3Jrq6tDeX4OyvNz/vr/mE4Pv6hWaBGbCP/YOPjHxiEgJgH+0TEe+wrB5dhsqCs9jvpTR1B/8gjqTh5G3akjqC857vQT9ZrK4O2DpD4DkDpoJFp37KLaFr3OIKRNPDJHT8CuBbIP+0uwWnE7gLcFxnIL9ATgb/447e8gB4JlFfD2B5vxCuDt3Dt+icRPFQOfPqF1DFVJegP8omMREBuPgNgE+EXFwC8iGr4R0U6/AsFdnwDYqs7DWnYa1jOnUF96AnUni1F/svFGz22yvy26hEnvf4HojPZax3CY2nNn8fHEIairrJRb4kRNdQvTsWOba0TmcnX0leZvDAbr/bJv/gDYNWM96uYPACjOufpnXJy9wYrKIwdReeQggNX/59d0RiO8gsPgG9EKvhHR8I2I+uM/WyEgJh46o+O2U3UrNhusFaWwlp1qvMn/8Z/WslOwlp102s11HOHI9q0e1QB4Bwah6413YP3br8gtEe3te346Gpd1kz9QA3CRlJSUUJtdwe5RoVFAh/4CE7mIA7u0TqApW309qk+fQPXpE5f8daNfALxCQuEVHA7v4BB4B4f/8b9D4R0cBu/gMPiEtfSoVwy2mgtoOFsG2/kKNJwrR8P5cjScK0PDuYrG/36+HNbyErd5ZC/aoU0b0PWm6VrHcKh24ydjz/fzUXHssKzxDHjUYrH8Nzc394LgaC7Lc37iNIHdrvsHgBZyx7P+kxsP4PEktdXA0QKtUzi1+qpK1FdVovJo8WU/wyQJxhZBMPj5w+AXAL1fAIz+ATD4+sPgHwCDXwAM/i1g8PWH3j8Ael8/6AxG6IxekAxGSF5e0OkN0HmpO/Ob19fCbmsAr68Dt1pht9aBN1hhr62GvfoCGmougFdfgK2mCvaqC7DVVsFWfQH26guw1VyAveYCbJXnwTnd2JU4tS8H1RXlTr+hj0g6gwE9Z9yHHx6fJbdEeH09mwHgZYGxXJqnzwGQUlJSWtts+iTOeBIDXgIgb49ZSQe0ThWbzhXUVgGnDmmdglyE6fQwePsAOh30Pr6XfTJxNYawSNhrqwGbHbb6GkD+tqxEBRHJafBq4dzzT9RwbMdW2G2yG8hScP6kXWIFejTk5+fny/vL4SY8qgEwmzMSAHtPO3AN46wrGE8C4KV1LkIIIZqoZEABgK12xtfxBv36Awf2uNauTwq4dQOQlZVlOFdV20+yI5sDQyB3XT8hhBBPkQew1Qz2+QUFeb/CjXcRdMsGIDHZ0lcCmwrORwHwnJdkhBBCxGE4Aju+YQxfFxTkyj6f2Fm5TQNgMpm8JMlrIgceAJCpdR5CCCFuZScDXo+ODv963bp1brHRhMs3AMnJyQGcGx7g4HcDCNU6DyGEEDfGUQjwV63W6s+Ki4tdbwvUi7hsA5CVlWWorKydBuBZDkRqnYcQQohHOc6A2QUFuR8BcMl1rS7ZAJjN6WM4+GsA4rTOQgghxIMxbGYcswoKcn/TOkpzuVQDEB+fHqHX87fBMF7rLIQQQsgfOAM+Yazhvvz8fNkHFjiayzQApuT0KYzz10Hv+QkhhDinQxLD1Pz83I1aB2kKp28A4uLivPVGv7cYcKvWWQghhJCrsIPxt4169o/c3Nx6rcNciVM3AAkJltY6PRYA6KR1FkIIIaSpGLDJZtONceadBZ22ATCbUwcA0jwlR/MSQgghGiqSmG54fv6efK2DXIqkdYBLMSWnjeKQfqCbPyGEEBdm4ty2OTnZ0k/rIJfidE8AzGbLrRx4H4BDztVljCE6OgaxrWLRKiYWrWJaI8A/AD6+vvD18YXeg85oJ4QQd1JfX4+a2hpUXajE+crzOHb8KI4ePYzDhw+hvLzMoVE4Q3ZRfu4SR170apyqATAlW2Yxjtegci6TKRmdO3dFu7ZZyMhoi6BAetBACCGepLy8DDt2bMPvO37D9u2/4dixI2pfsh6cjS0szFmm9oWaymkaALPZciMHPoVKmeLiEjBw4BAM6DcIrVvHqXEJQgghLqqwKB8//vgDVqz8EWVlpWpdpo6BjykoyPtRrQs0h1M0ACaTZQSTsBCA0OftjDF07dwdEyfegM6du4Ixp/jHJYQQ4qRsNjs2blqPz7/4GLm5e9S4RC24fVBh4b4NahRvDs3viIkp6d0lO18FwEdk3e7dr8GdM2YhMSFJZFlCCCEeYtu2Lfj0sw+xc+fvokuX6iRb5/379xeLLtwcmjYAcRZLpMGKHQCiRNU0JZox854H0alTV1ElCSGEeLBVa37Gm2++jNJScUv6ObBXxxp6aLl1sENm2l9Knz599FVnqxeDIUNEPb1ej2nT7sCzT/8bMTGtRZQkhBBCkBBvwqiR42Ctr0fevhxwzhXXZEAEIKWVlZXOA6C8oAyaNQBGo9/zYJgiolZ8fCJee+UdXDtwKCTJKbc2IIQQ4sIMBiO6dOmBdEtbbP1tE2pra0SUTQkJbXmuvKx0i4hizaXJK4DkZEs/O8cqEde/pmcfPPP0C/D19ROQjBBCCLmyM2dK8PQzj2CHmLkBteCsQ2Fhzj4RxZrD4U8AoqOzfA3GhmUQcKrfhOzr8cTjz8Fo9BKQjBBCCLk6X18/DB40HKUlp1FQuF9pOT0k1i0+LvbTkydP2kXkayqHNwCR0cHPA2y4khqMMcya9TBuveVOWtpHCCHE4SRJQs+efVBdXY2cnN1Ky0XV1jc0lJeVrheRrakc2gAkpmRkMY6PoeAMAsYY7p/1CCZkXy8wGSGEENI8jDF06dIdDFD8OoAB3QJbhn159syZc2LSXZ1DG4Cw4PCvwZCgpMbMmf/AxAmTRUUihBBCFOnQoRPOnqvAvn05SsroJbCW5WWlC0XluhqHNQCJyZbBDHhCSY2Rw8dgxvR7RUUihBBChOjapQeOHD6Ig4cOKCmTHhwesbLiTMlRUbmuxFFr5piO459KCnTu3BUPPfSUqDyEEEKIMJIk4ckn/4WkpBQlZZhk5y+KynTVizniIklJlnFgWCB3fGhoOL78YgGd2kcIIcSpHT12GDdNm4Tq6irZNewM/Q7k564VGOuSHPMEQMIDcocyxvD447Pp5k8IIcTpxca0waMPP62ohsRxv6A4V76O2hdITMnIAkc3uePHjpmAbl16iIxECCGEqGbAgMHo06e/khJDk5Mzk0XluRzVGwBmt8+UOzYoKBjT76BJf4QQQlzLrJkPw8fHV+5wyW5vmCUyzyUvomZxs9kcxoAJcsffdutd8Pf3FxmJEEIIUV1ERCRumTZdfgHGpmZmZqq6x73KTwAMYwF4yxmZkNB4+hIhhBDiiiZMmIyIiEi5w/1qa20jROb5O1UbAA6Mlzv2xqm3QqfT7LBCQgghRBGDwYDrr7tJ9niu4Al6U6jWAMTFtQsC0FvO2JYtI9Cv37WCExFCCCGONXrUOISGhssdPiQhIStQZJ6LqdYAGI3WUQCMcsZOmjgVer1ecCJCCCHEsYxGL4wdK/uLvLdOVztMZJ6LqdYAcGCQnHF6vR5Dh4wUHYcQQgjRxJDBIyBJ8m63jKGf4Dh/UW8OAIOsxfudO3dDYGCQ6DSEEEKIJqIio9G2bQdZYzlHL8Fx/qJKA2AyZcaAo7WcsQP6DxEdhxBCCNHU4MEyJ/QzJKWmpkaJTdNIlQZAkuyyvv3rdBJ69pA1b5AQQghxWj269QRj8o7fsdrZNYLjAABUmWlnB+8s5x/TZEpBQECA8DzurLq6Cj/+tBSbt/yCkydPwGj0Qnx8Avr0HoBrevaR/QfO3dXX1+GnFcuxZfMvOH7iOHQ6HVrHtkGf3gPQq1df2e/r5CgrP4Ply5dgx/bfUHqmFDW1NQ67dnP4+fnDx9sHLQJboHXrOLRpHY+2me3Rpk281tGuaH9+Hlb8vAx5+/NQV1uDgBYtkJnZHsOGjkJUZLTW8ZrEbrfj11/XYd36VTh2/Cjq6uoRFRWFbl16YtCg4fD2lrXdCnGg0NBwtGkTj+Lig80fzFkXAPNEZ1Ll7pCUbFkCjmY/75g0YQruvfchNSK5pQ0b1uDFl59DeXnZJX89JcWCf85+Ca1axTo4mXPbvmMbnp39KEpLSy756yZTMmY/82/ExyeqnmX+gq/x7ntvoNZJb/pNERbWEn37DMCQwcORmpqudZy/1NRU4+VX/omffl4Gzvn//LrBYMS0m27HjTfc6tCGr7mOHjuMJ596GPn5eZf89bCwlnj88dno2rm7g5OR5nrltefx3XffyBm6tLAgV/imQKrstBMa2vIJAM1e+Dj5+mmIi0tQIZH7+fGnpXj6mYdRXV192c+cOVOKlat+Qt8+AxAQ0MKB6ZzX5q0bcf8DM3DhwoXLfqa8vAwrVi5H9+69EBIcqlqWD//7Nt57/w00NDSodg1HqK6uQl7eXixe8h02b/kVISGhaB3bRtOnT3V1dbh31nRs3LThsp+x223YvuM3nD1bjh7dVZtnpcjRo8W47Y4bcPz40ct+prq6CqtWLUdighlxcc79NMbTVVdXY+3alXKG2svLSt8RnUeNtlcCIOsuHh9PN/+mOH78KF586VnY7farfraiohxPPfPIJb8BeZqz5yrw9NMPwWazXfWzlZWVeOLJf6h2c/7tty2Y89l/Vamtpby8vXjo4ZmYPuMmFBbla5bjgw/fwp69O5v02YWL5mHV6p9VTtR8Npsdjz3xD5w7d7ZJn332ucdw5syln2oR56DgHpcAZAv/wi68ATCZMqMhY/9/nU5CdHQr0XHc0udffIy6uromfz43dw/Wrl+lYiLX8MWXn6CysrLJny8uPogVK5arkuWjT95x66Zsz96dmHbzJHz86ftNalRFqqgox4JmPmZ96+1XUFtbq1IiedZtWIWiZjRRNTXV+OLLT1RMRJSKjWkt93WTMTk5X9bKuisR3gDodPYQOeNahkfBYJC1caBHsdvtWL9hTbPHfTv3CxXSuI6ammosWfJds8etXS/rcd0VlZaWICdnj/C6zsZms+Gjj97FrPun43zleYdd99dNG2C11jdrTEnJaXzzrXP9HVm3rvlN+7r1q1VIQkQxGr0QGSFvRR/nDTGC44hvABhrkNVGx7WJE5zEPVWcLW/SI8G/25OzC/v25aiQyDUsW7b4iu/9L+fQIRkzdq/i8OFDbv3t/++2bduCO++c5rDH04cOHZA17osvP7nshFotHD5c3OwxJSWnUV1dJT4MESYyUvaSfn+ROQAVGoD9+zMOAGj6c9Y/mJNTRUdxS/X1zftmc7Fv530lMInrsNvtmLdgrqyxzf0m2RSVF5r918PlHThYiDvvvhVnz1aofi25N8Dq6ip89PG7gtPIVynzqcm58+cEJyEi+fnJu4/bGYSvkVdhEuB8G5OxXnHgQNoBsCnCQsNhMBhkjV2zdgXKykoFJ3J+W7ZsxNGjxbLGRkaIXyfO4Tnf/i929Ggx7nvgTqd7136xJT8slLdOm5Am8vX1kzlScoUGAGhowGw04ynAkCEjkJiQpEYUt2MwGNCxY1dZY61WK75b+K3gRM7v2/ny3+126Uprq0Xavz8Xr772vNYxLstms+Htd1/TOgZxY35+chsA7hoNwMGDuUc4wxQA1qt9NjU1HQ/c96gaMdzWiOFjZI9d9P181Nc3fQWBqzt4sAjbtm2VNVankzBE7v7d5LKWLvseq1b9pHWMy9q4cQO279imdQzipryMXrKHiswBqHgaYFF+7hIG3h9A0SUvLEkYMWw03nrjQ9nvRDxVr2v6IVLmFqZnz1bg55U/Ck7kvOYt+Fr2hLte1/Rzma1iXc3rb7wka1Kmo7z19qsOX75IiKOpuv9lQUHeL4UFaSmc8dFg/M3EhKSdAwcOwfQ7ZuLbuUvw2GOz6eYvg04nIXvcdbLHz/OQyYDnzp3Fzz8vlT1+4oTJAtOQi5WVn8Enn76vdYzLys/Pw88q7QFBiLNwwAbY821F+XmLC/Pz7v3yy+8+mf3Mi7jxhlsREyN8TwOPMmLEWPj4+MoaW1SU7xGPOBcvXiB7wllychrats0SnIhcbNH381BRUa51jMt67/3XnXrCIiFKqXIaIFFfQEAAhg4ZIXtS37x5XyKrQyfBqZxHQ0MDvlskf8LjxGzn+/bfrWtPPPjAY5pd/9y5syg9U4o9e3di3brVV9yfvilqa2uxYMFc3HbbXYISilVaWoJ5877EDTfcqnUUQlRBDYALyx5/PRYumifrHffGTetx4sQxREcL31zKKaxbvxolJadljQ0NCcOAAYMEJ1LOx9tH09+v6OgYpALodU1f3Dl9Fn76aSneff8NRUtLl//0A265ZYbTnsb3+ZefYMSIsQgOlrXBKSFOzTn/1pEmadMmHl279JA11mazY/78rwUnch7z5n8pe+zoMdm0LfVVSJKEoUNHYs4ncxUdAXzq1Ans2bNDYDKxqqou4ONP3tM6BiGqoAbAxU2YOEX22CVLF6GqynlnYsu1f38u9u7dLWuswWDEmNHZghO5r7CwlnjrjQ8RH58ou8bW3zYLTCTe94sXyN5emBBnRg2Ai+vSqRvi4uQdMVldXYVly5cITqS9uQoOdRk4cDBCQ8IEpnF/fn7+eG72S9Dp5P04+X37b4ITiWWz2fDe+29oHYMQ4agBcHGMMUwYL3/C2vwFX7vVeuczZ0qwZs0K2eOdcfKfK0hMSMKwoaNljS0qynf6P4O//LoOO3f+rnUMQoSiBsANDBkyAoGBQbLGHjt2BJs2/SI4kXYWfPcNGhoaZI1t374jzGY6lEouua9OamtrZU/YdKTX33zZ6RsVQpqDGgA34O3trWh74G8VTJhzJnV1dVi85DvZ45U8SSGNeyeEhobLGnv69AnBacQrKNiHlas8ZxdN4v6oAXAT48ZOgk6nkzX299+3ouhAgeBEjvfzimWyj5uNjIzGNdf0FZzIszDGZG/wVVVVLTiNOt59jzYHIu6DGgA3ERkRmGtZAAAgAElEQVQZhT69+sse7w5LApVscTxh/HWyJ7GR/y88NFTWuOrqKsFJ1FFSchrzF7j+3xVCAGoA3MqEifIfYf+8YhnOnpP37dkZ/P77Vhw4WChrrI+PL4YPHys4kWeS9PL2FnOld+tzPvsvysvLtI5BiGLUALiRzIz2sjdlqaurw+LF8t+fa03JPIZhw0YhIED4UdvETVVXV2HOZ//VOgYhilED4Gayx18ve6ySGfRaUrKSgTGG8WMnCU5E3N3CRd+iuPig1jEIUYQaADczcMBghIe3lDX2zJkSrF27UnAi9SnZy6Bbt55o0yZecCLi7mw2G97/8E2tYxCiCDUAbkav12PUqPGyx3/9zecC06ivuroKy3+Uv5vhxOypAtMQT7J+/Rpsd/JdDAm5EmoA3NC4MRNhNHrJGrt/fy5yc/cITqSeJUsX4cIFeecZxMcnolOnLoITEU/y7vtvyDqNkxBnQA2AGwoKCsa1A4fIHv/tfPnL6RzJbrdjwYK5ssdPzJ4MxpjARMTT5OXtxapVP2kdgxBZqAFwU5MmTZV9c1uzZoVLbM3668b1OH78qKyxLQJaYNCgYYITEU/03vtvor6+TusYhDQbNQBuKjEhCe3aZckaa7PZsHDRt4ITiTdvnvylf6NHZ8Pb20dgGuKpTp46jvnz5T+JIkQr1AC4sYnZU2SPXfT9fKfe8vTAwULskHk6m06nw9gxEwUnIp7ssy/+69IbaRHPRA2AG+vZsw+io1rJGnv+/DmsWLlccCJx5n37pezJV31790dERKTgRMTVxcUlyB5bWVmJOZ9+KDANIepTvQFITMnIMpst7ySZLbv6D+jy3OSpY/H880/R2doOoNNJGD/+Otnj5837yilnOJ89W4GfFTQn2RPlPxkhVyZ3PwZnmIw5dswEREXKa5gBYOH383Ds2BGBiQhRl2oNgMViMSaZLR9Idvs2DtwJoG11dU3QwYNF+GHZ97jz7pvx6OP3ucwhIK5qxPCx8PX1kzX2wMFCp1zn/P3iBairkzfpKjU1HZnp7QQnIn+qqCiXNc7Hx1dwkuYzGoyYMX2m7PFWqxXvvve6wESEqEutBkCqr8d8ALcDuGxrv27datx733SaQasif39/DB06UvZ4JXvsq6GhoQHfLZQ/QXHiBPkHJpGrO3H8uKxxfn7ymlTRBgwYLPs8DQBYu24V9uzdKTARIepRpQFISk6/BwxNuuvk5OzGhx+9o0YM8ocJ2ddDkuT9Vm/a9ItTPdZcs2YFzpwpkTU2LKwl+vW9VnAi8qfi4oM4eUpeAxAWHi44jTyMMcy8+35FNd56+zWnfHVGyN8JbwD69OmjB+ePNWfM/Plzcb7yvOgo5A+xMW3QtWsPWWPtdrtTnX+uZJOisWMmwGAwCExDLrZs+WJZ4wwGA6KjYgSnka9du47o1auf7PE5Obuxeu0KgYkIUYfwBuDEiZJuAJp1Gk19fR22btkoOgq5iJI975cuWyx7u12R9u7djby8vbLGGo1eGDM6W3Ai8qfTp0/JbhTj4hKh0+kEJ1LmrhmzoNfrZY9/7703YLXWC0xEiHjCGwA7k8xyxh0+Wiw4CblY585dYUqU9VuD6uoq/LBskeBEzTdv3heyxw6+diiCgoIFpiF/amhowDOzH5M9MbNjVmfBiZRr3ToOoxU0jCdOHFO0TTUhjqDCHAAeIGdUtRN8w3R348fJP/d+wYK5sNnkLfESoaTkNNauXy17fDZN/lNFTU01Hn/yQezaJX9Zb6dOXQUmEueWadPh7+8ve/ycz/6L8+fPCUxEiFjiGwB++Vn/RFuDBg1HYGCQrLEnThzDxk3rBSdquu8WfgObzSZrbFaHTrKffpDL271nB267fSo2bFgju0ZQUDA6dXTOBiAoKBhTp9wie/z5yvOYM4c2ByLOi3YC9CDe3t4YNXKc7PFK9t5Xora2FouXfCd7/IQJtPGPCFVVF3DwYBG+/34+Zs66HdNn3IQDBwsV1bx24BBF79rVNnHCFERGRskev2DhN7IPrCJEbc77N+//sXff4VFU6x/Av2c2m0oSUgkhhJYChCK9dwHpqFQLdr1XFLvXcq/X3isWbCg2pPfeEZDekmzK7gYCIaEk2fS62Tm/P6L3Z6EkM2d2dpP38zw+3qs573zVJPPuzClEE1OnzMTCn79DTU1NvccePXYYFms6YmPiNUh2ZZs2rUVRUaGisZHNW2BA/yGCE+ljx66t6Degi94xhPHw8MD06conpzqDl5cXHrh/Dl56+VlF4+12O+bN+wivvvqu4GSEqEdPABqZ0NBwDB0yQvH4pUuUL8NTgnOOpcuVT6aaOu1WGAz0be6KRo8ap/isCmcaNXIM2sd3VDx+x66tSEo6KTARIWLQb8ZGaJqKUwI3bdkAmy1fYJqrO3ToAE6dsioa6+vrh/FjJwtORETw9fXDA/c/rHeMOpEkCXMeflLxeM45Pvr4HdociLgcagAaoc6du6Jjx86Kxtrt1arex9fXkmXK5x2MHzdJ1Sxuop377puNsLB6bReiq27demLgQOWvkkymROzcvU1gIkLUowagkZo+VfmyuOUrFsNutwtMc3lZ587ggMINoiRJUrXskWinX58BmDblFr1j1NvDs59QNWHx008/oM2BiEuhBqCRGj58lOJPYPn5udjhhK1OlyxdqPh42f79B6Fly9ZiAxHVIpu3wAsvvK74bAo9RUe3xsQJNyken5NzDstXLhGYiBB13O+nkAjh4eGBm26crnj8okXKd+Wri7KyUmzcuFbx+BnTXHt2eWPUNDAIH7w/z613ZLzv3tnw81P+Wunbbz6nzYGIy6AGoBGbPHkKvLy8FI1NS09BYvIJwYn+35q1K1BWpmx3yHZtY9G9ey/BiYgaISFhmDv3S0RHt9Y7iiq1mwPdrXh8cUkxFnz/tcBEhChHDUAj1jQwCKNHjlU8fulibTYGcjhkVfuoT5t2KxijDSldRevWbfHlF987ff8IrcyYfjvCw5spHr9s2c/IOa/s2GRCRKIGoJGbNv02xTfLnbu348KF84ITAXv27FT8C7JpYBBGjxonOBFR6obR4/DN1wvdYr1/XXl5eeGB+5QvYbTbqzHv848EJiJEGWoAGjk1j8sdDgdWrFwsOBGweKnyzYbUvNYg4oSHN8ML/34N/33hDfj4+OodR7gbbhivanOg7ds3a/oKjZC6oAaAYLqKvfJXr1mOyspKYVksljTFJ8upndhI1AsJCcOch5/E4p/XYsyYCXrH0YwkSZj94GOKx3PO8dmnHwpMREj9UQNAMKD/YERFRSsaW1xchE2blM/W/6vFKrYaHjZspFttLtNQGAwG9Os7EC+/+BZWLNuAmTNmwdvbW+9YmuvZsw/69x+kePzJxGPYtUv5EdeEqEWHAZHaTXOmzMSHH76laPySZQsxadIU1RPvCgps2LJ1o+LxajY3ItdmNHrCz9cPTYOCEN2yFVq1aoOuXbqjW7ce8PX10zueLmb/8zEcPLgPDoey/So+m/chBg4c4tInIpKGi77rCABgwrjJ+PrrT1FaWv+ld6dPZ+DQoQPo06efqgzLVy5WvFNa585dkZDQcE7Ku5zhQ0fitdfe0zsG+YO2bWMwYcLNWLVqqaLxWefOYMXKJZg21f12RiTuj14BEAC1h7OMGzNJ8fjFS9UtCbTb7Vi1UtkvUUDdAUeEqHG/ys2B5s//jDYHIrqgBoD8z9SptyjeovXAgb04ezZT8bW3bd+MfFueorHh4c1UHXFMiBpBQcG45ZY7FI8vLinG9z/OF5iIkLoR3wAwVqxkmC+d2qa7Fi1aYkD/wYrGcs6xZNlCxddeqmLszTfNoHeoRFe3zrwTzZpFKB6/ZMlPyM7OEpiIkGsT3gAw2WFRMi46qpXoKEQBNUsCN2xYg5KSknqPO5l4DKmpyYqu6eXlhUkTb1Y0lhBRvLy8cO89Dyoeb7fb8eXXnwpMRMi1CW8AAgJ89wOo17Nco9ETffr0Fx2FKNCjR2/EtItTNLaiohzr1q2o97gli5Uv/Rs9ejwCA5sqHk+IKGNumKj4ZwcAtm7dqLgRJkQJ4Q3A0aNH7Qz8zfqMmXLTdPol7kKmTlO+nG7pskX1WhJ1/kIOdu/ZoehajDGaPU1chsEg4aHZTygezznH3E/eF5iIkKvTZBKg2ZzwIQM21eVr28d3xP33K99Xm4h3w6ixio9sPX8hG3v27Kzz1y9fsQgOh0PRtXr27IN2bWMVjSVEC3369EO/PgMUjz9x4gh++UVZQ0xIfWm0CmCpo7q67EYA313tqwYMGIy5H33VKHYNcyeenl6YPGmK4vF13cu/srICa9fU/5XB76bT0j/igmY/9DgMBuW/Wj+d9yFqamoEJiLk8jRbBpiZmVlpMZvulCU2gAHzAaR7eXqWR0VFY9Sosfjgg8/x7tufwN/fX6sIRIWbb5queGb9iRNHYDanXvPrNmxci+ISRYtG0DKqFfr1G6hoLCFaatc2VtWeGmfPZmL16mUCExFyeZqvncpIS/4VwK8AkJfneAgcH2t9TaJeaGg4hg8fhS1bNigav3jpT/jP869e8e9zzrFExal/U6fOVLxnASFau+++2diybRMqKysUjf/6m3kAFxyKkL+g36DkimbOmKV47NatG6+6sc+Bg/tw5sxpRbX9/Jpg7JiJSqMRornQ0HDcdsudiscXFhagsKhAXCBCLoMaAHJF7eM7onPnrorG2u12rLzK/uhLFivfOnjihJtUbb1KiDPceuudCAkJ0zsGIVdEDQC5KjV77K9YsRjV1VV/++tZWZk4dOSAopqSJGHKzTMUZyLEWby9fXD/fbP1jkHIFVEDQK5q2NDrFW9xWlBgw/btW/72139e9ANkWdnxqYMGDUVkZJSisYQ427ixk2mpKnFZ1ACQqzIYDLjpxumKxy9a8udH/cUlxdi4aZ3ierT0j7gTg0HC7NmP6R2DkMuiBoBc0+TJU+Ht7aNorNmcipMnj/7v/69Zs1zxzOh2bWNx3XU9FI0lRC/9+g5Enz799I5ByN9QA0CuKcA/AKNHj1M8fvGS2uV+DoeMlSuXKK4zc+YsMMYUjydELw/NfkLV5kCEaIG+I0mdTJ96q+Kb7y97diDnfDZ2/bINOeezFdVo2jQII6+/QdFYQvQW0y4OY26gpavEtVADQOqkTZt26NWrj6KxDoeM5SsWqTr17+Ybp8PT00vxeEL09sD9Dyl+lUaIFqgBIHU2fertiscuX74IiUnHFY01Go248capiq9NiCsIDQ3HzBnKf4YIEY0aAFJn/foNRKtWbRSNrar6+34AdXX9iNG0oQppEG6/7W76XiYugxoAUmeMMUy5yfmb8EydcovTr0mIFnx8fHHv3f/QOwYhAKgBIPU0btwkp57g2LVLd3To0Mlp1yNEaxMm3EybAxGXQA0AqRcfH1+MH3ej0643bfqtTrsWIc5gMEh48J+P6h2DEGoASP1NnXqLU9Y0R0Q0x5BBwzW/DiHO1r//IPTu3VfvGKSRowaA1FvziEgMHDhU8+tMuWkmDAaD5tchRA8PzX4CkkS/gol+6LuPKKL1nvze3t4YP36yptcgRE+xMfGqdtgkRC1qAIgi3br1RPv2CZrVHztmIgIDm2pWnxBX8M8HHoG3t7feMUgjRQ0AUWzKzdosCWSM0dI/0iiEhYVj+jQ64ZLogxoAotiokWMQEhwqvG7f3v3RunVb4XUJcUWzbr9Hk58jQq6FGgCimNHoicmTpgivO3U6fSIijYevrx/uuusBvWOQRsgpDUBcXMLA2PiE/9x3/+0z3n3/daxatRQFBTZnXJpo7MabpsFoNAqrFx3dGn179xdWjxB3MHnSFMXbbBOilKYNQHx8py6xcQmHOLAHHC8nJ58csHz5Irz1ziuYdONIfPLZ+6iuVr5HPNFfSHAorh8xWli9aSqOHSbEXRkMBsx+8DG9Y5BGRrMGICam8xCZ818B9Lrc37fb7fjppwV4/IkHUVlZqVUM4gTTBE1i8vf3x9gxE4TUIsTdDBo4FN279dQ7BmlENGkAYmK6hTFJXgLA71pfe/TYYcz9+B0tYhAnaR/fEV27dFddZ+LEm+Hj4ysgESHu6dFHnqbNgRq4KoVPvRmY8E/KmnynMUPVvwGE1/XrV61ehrNnM7WIQpxE7Z79BoOEm2+aLigNIe4pNrY9Rl4/Ru8YRENlZWWKxnGgVHAUTRoABs7q9UyYc45Nm9dpEIU4y5BBwxEREal4/OBBw9E8ooXARK6LgeY4uCJXmXvywAMPw9PTS+8YRCPl5coaAEAuERoEGjQAcXGd2wAIru+41JRk0VGIExkMBky5SfnGQNOnNZ5T//ybKDtOuUlAgOAkDZO7//ttHhGp6uehiZ/zjusm9VdWpuyDvMS56z8BkKRrv/e/nEx6BeD2Jky8Cd7ePvUeFx/fEV279tAgkWtq1aqNok+bbdq00yBNw6N0E6k2rVxn86lZt9+LpoFB9R4XGhoOf39qAFzZhQvnFY5krv8EoKaGFSgZd+nSBdjt1aLjECcK8A/AuLET6z2usW2FGhYWjoSELvUaYzBIGDxomEaJGpYB/QfX+xF6q1ZtXKrBatKkCe65+x/1Hjd06AgN0hBRqqurcOGisgaAMY9zguOIbwCs1sQcAPWerSjLMnJyskXHIU426/Z74etb94dAMTHxGDVyrIaJXNN998yu11OA8eNvQmTzxjFHQq2mTYMwbWr9zpK4//6HNEqj3OTJU9E+vmOdv97Hxxe3zrxTu0BEtaxzZyHLspKh1enp8WdF59FiEqAM4JSSgRmnrYKjEGcLD2+G/77wOoxGz2t+bVhYOF575R0YDI1v2VPv3n1x5x331elr4+I64NE5T2mcqGG5/76H6vxaacqUmRg+dKTGierPw8MDr77yTp1OxZQkCc899xIiIpo7IRlR6nSmolsjAJwCljpEZgEAg+iCABASGn4DgPj6jgsLCUPfvgM1SEScqVWrNuh2XXccOXrwihNeEhK64IP35qFFi5ZOTuc6evTojcDAQBw/cRQ1NTWX/ZoRw0bhzTc+qNdTFVI7KXXk9WOQl5cLizX9sl/j6emF+++djX88MMdlVgD8VUBAIIYPH4WTJ48jPz/3sl8THByCV156B0MGD3dyOlJfK1YuQWqqggnvDPtt+bk/i86jyXd9TFyndxn4E/UdFxfXAd99u1iLSEQHNTU12Lp1I3b9sh05Odnw8PBAm9ZtMOaGiejVq6/e8VxGvi0PGzeuxbFjh5GXnwdfXz+0j2uPkSPH1HuuAPk7iyUNm7asR0qKCWVlpQgODkK363rhhtHj0axZhN7x6kSWZRw8uA9bt21E1rksVFZWIrJ5JHr36ocxYyZQg+gmZt46GZkKngJwsPes5uQnRefRpgGI7ziNcVbvO7nBIGHj+j00i5UQQkiDkp+fiwmTrgfnvN5jOcNUa7ppmehMmrx8lbhxn5JxDoeMvXt3CU5DCCGE6Gvf/r2Kbv4AuKOa7RGdB9CoATCbT2Zz4IySsVu3bxIdhxBCCNHVpk1rlQ41nz6dfFFklt9pNv2aMSh6CnD48H4UFxeJjkMIIYTo4vyFHJw4cVTRWA5o8ukf0LAB4Jwp+ihfU1OD9RtWi45DCCGE6GLjprVKH/9DArYLjvPH2tqoqfZYC0DR1n6LFv9wxWVRhBBCiLuorq7CihVLlA1mKDcaodlJeZo1AJmZJwoZsEPJ2EuXLmLHji2iIxFCCCFOtWr18ivu4XAtjLP1JpNJ+CFAv9N6C7YVSgd+/8N8OByKtkwkhBBCdGe327Hw5wWKx8tMXiouzd9p2gBIkmMFgAolYzNOWbB27XLBiQghhBDnWLzkR1y8eEHp8NLyEp/1IvP8laYNQFpaWj4YW6R0/BdffYLSUs2efhBCCCGauHjxAr759gvF4zmwICfnaLnASH+j+Sks3OH4ROnYwsICfP7lXJFxCCGEEM19OPctVFQovn/L3IGPROa5HM0bAKs19RgY9isdv2LFYhw49KvISIQQQohmtm7diF27lK/e42BrMjJMmh+P65xzWGW8p3Qo5xyvvfYCiooKRSYihBBChMvKysSbb7+sqoYE+X1Bca5Kk+OA/8pmy00LDgkfx4BIJePLy8tgtqRi1MixkKTGd3Y8IYQQ11ddXYVHH38QFy+eV1yDATvN5pRXBMa6Iqc0AAAQHNTsDGO4Xen47OxzyMvLxaCBQwWmIoQQQtSTZRkvvvgsjhw9qK6MJE0ryLukvIOoB6c1ADbbpYzQkPAhANoorZFuToV/QAA60RnphBBCXMh7H7yheht7DvyQkZ78maBI1+S0BgAAgoLCEhlj90DF3IODB39F06bB6Nihk8BkhBBCiDLzv/0cP/30rboiDOWQDTfabBeLxaS6Nqc2ADZb7oXQkHA/AAPV1Nl/YC8CA5qiY8fOgpIRQggh9cM5x8efvo/vv/9afS3gBasleYOAWHXm1AYAAHx8YvYZjVXTAQSrqbP/wF6UlBShT+/+YIwJSkcIIYRcm8PhwJtvvojlKxarL8aw32rueC+QouzIQIWc3gAUF5+rCQoNT2bALACq7tymlCRYM8wYOGAwjEajoISEEELIleXlXcLTzzyC3b8oOu/uzxjKHZJ8Q0He7jz1xerH6Q0AABTk52YGhzTzYsAgtbXOnDmNPXt3oXOnLggJCRMRjxBCCLmsgwf349HH/4HTpzOE1GPAY9b0lE1CitWTLg0AANjyh+wKDckdBBWrAn5XUGDDuvWrwBhDl87X0V4BhBBChCovL8O8eR/h/Q/fULPF758w8CVmc8q/hBRTdH0dtWnTqZmHkR+Dwg2CLic2tj0eefhJ9OjRW1RJQgghjdi2HZsxd+47yM29JLLs8bJS74FaH/hzNbrPnouJ6dyPGeRt4PAVWXfgwCF48B+Pok2bdiLLEkIIaSSOHDmIbxZ8gePHj4gufdFRg96nTpnOii5cH7o3AAAQG9tpHBhfCUDoTD7GGPr2HYhbZsxCz559RJYmhBDSADkcMn7d/wu+/2E+kpNPir8AQ7kEjEpPN+0TX7y+UVxETFyn2xn4d9AoU9u2MRg1cixGDB+FqKhoLS5BCCHETVms6di4aR22bNmA/PxcrS5TwSBPNJtTt2l1gfpwmQYAAGJjO80B4x9C41zx8R3Rq2cfXNe1Bzp37oqAgEAtL0cIIcTFFBTYcPTYYRw5ehBHjx7CuXOaP42v5BImW9NMm7W+UF25VAMAALGxHe8CY1/BSSsUJElCi8iWiIpqiaioaLSIaokA/0B4eXvB38/fGREIIYRooEZ2oLy8DGUlJSgpKUFW9llknc3EmTOZyLc5ddl9FQO/0WxO2ejMi16LyzUAABATkzCBSVgMwEfvLIQQQogKNi5LN1mtSbv1DvJXLtkAAEBM+05DmcyXAgjVOwshhBCiQBqX2XirNVnMrkGCuWwDAABtOnRoZXBIyxjQU+8shBBCSN2xbfZqj6mZmScK9U5yJS69Zd7p1NQzkKsGgvG5emchhBBC6qCGAW8F+HuNdeWbP+DiTwD+KC4uYQYH5gKgDf8JIYS4HA6YJeA2s9l0WO8sdeHSTwD+yGw2LWKwdwTDQr2zEEIIIX/g4MCnvt6G7u5y8wfc6AnAH8XGdhoP8PfBEKt3FkIIIY0Yw27IeNRiMZ3QO0p9uWUDAAA9evQwFpVW3Stx/gIHIvTOQwghpPHgwBkw/rQ1PWWJ3lmUctsG4HddunTxq6iQHwXjcwCE652HEEJIg5bCGXvPy4P/aDKZqvUOo4bbNwC/i4mJ8ZIkrxmcsTngvLveeQghhDQoe7iMd6xW0zoAXO8wIjSYBuCP4uMTBsgyvw2M3QR6KkAIIUQZKwMWAtLPZnNSmt5hRGuQDcD/m2qIj08ZIsuYwhnGMqCV3okIIYS4LBnASQ62g3F5qcWSclDvQFpq4A3An8XEdIlizDGIMwxgjPUD5/EA/PTORQghRBc2BqRxjsNc4jurPQ2/nE1KKtA7lLM0qgbgcuLiuraQJUesJPM4DrwLQNERgMxgQMvuvQWnc31VxUW4mJ6idwzyB8zDCMnoBeZhAPPygT3vgqI6vs0i4aisAK+pQU11FWS7W893anBYRGtw7yZ6x3C+MykAl5WOLmPAYwBPk2WvNKv1eK7IaO7GQ+8AejObT2YDyAawKzY+oSU4/q2kDnc40H3qbWg7YIjYgC6uvMCGLyYOBZcV/0ASAEySIDVpCg/fJpB8m0Dy8YPBxw+Snz88fP7/r0m+TeDh0wTMyxsGbx+AGcA8vcGMHpA8PMGMnn+rnT5nvKJMwz/9++omR3UVHPZqcLsdjqpKcLkG9ooKyJUVqC4rgb20BPayEtSUlaK6rAQ1pcW//bkE9vJSVJeWoLqogL5f1JIYMPMZsMbWAFiOgWcmKx7OgI/NZtNXAhO5tUbfAPyRw+79rodH5WwOBCkZv2vuW2jVuz8MRqPoaC7LNygYER064bwpUe8oLsvg0wQegcEwBAbDGBAEQ2AIPAKDa/8IqP3DGBwGSAa9o16TwdMLBk8v1XWqy0pQZctDVUEeKgvyUVlQ+7+rbDZUFOSiqiAfFXmXwB01AlI3QC3igcZ285cd4Dt+VlOhyGjEO6LiNATUAPzBqVNHi2LjEz4Ax8tKxheeO4uTqxaj+9TbREdzaW36D27UDYDBpwmMoREwhkTAGBoBz9/+bAyJcJsbu7N5+vnD088f/i3bXPXrqstKUH4xB+UXs3/78/k//f9GK6ar3gmc78hmwHZe8XAO/oHJlGITmMjtUQPwFxJqPpThMQdAqJLxB76Zh46jJ8A7IFBwMtcV3aMPfv3qE71jaIp5GOHZLApeEdHwat4KxvDI/93wDT6N7JOYE3n6+cOzbTyato3/29/7U3NwPhvFZzNQei4TpdlnG/x8BRbdUe8IzlVRAuxbraZCPuTqD0TFaSioAfiL9HPoh6sAACAASURBVPT0ktjYTm+D8beVjK8sLsL+bz7DsEefFR3NpcgOGVlHDiBl8xpYd2/XO44wzOABz2ZR8IxoCa/mreEV0RJeka1gDImgT/Iu5krNAZcdKL+YjZIzp1FyLhMlWadQknUaZTlZkGvsOqUViy98Ayy+B9B5ENCqI8Dc5lw3RfieFUBlmfLxDO9YrdZigZEahEa/CuByoqL6+fj4FqcDaKlkvOThgVnfr0Rwq6s/3nRHeacsSNm4GqlbNqAs75LecVSRvLzhFdUOPtGx8GoZA++odvAMj2xwN3qlkwDHL9srOIm+uOxAWc45FJ1OR1FGOgoz0lB02gxHZYXe0dTxDwZLGAB0HgiEttA7jXi558DnP6dm5v+5ivKAuHPn9rv5f2jxqAG4gri4hFkc+E7p+Db9BuPGdz8TGUk39opypG3dgMTVS3ExzaR3HEUkTy94tWgLr+gY+LSMhVd0DDzDo8Ckhv3JCaAG4Gq4LKM0+wyKTv3WEGSkovi0BY5qN32FEBkDdBsG1qEvYFQ/WdMV8MVvAaeSVBTAXRaLaYGwQA0INQBXJsXGJRwFcJ3SAhNe+wCxQ0cKjORcl8ypSFy9FGlb1qO6XPnjNz0YQyPg0y4Bvm0T4N0qDl4RLRvcJ/u6ogagfrjsQGlWJgqtKchPTYQt9aT7TTj08ql9KtBtOBAerXca5VIPgK9SNb8o0WI2dUPtDn/kL2gOwJXJ4OxpML5FaYGdH76BVr36wdPPfSaJOezVSNu6ASdWLMLFVOXrbZ2JMQmezaPhE9MJvm0T4NOuIzwCQ/SORdwUkwzwb9UO/q3aoeWICQCASlsebKknkZ96EraUEyg9l+naexlUVYAf2wYc2wa0iAG6jwTr0AcwuNGv/KoK8G0/qirBJTwNuvlfET0BuIbY2IRNYBitdHy3Kbdi2GOuPyGwLD8XJ1csRuLqJSgvcPGVMgYDfFrFw6dtR/i2S4B3m44w+NKOzldCTwDEqy4rQUFqEgrSEmFLPYECa5rL71nA/ALBu48A6zYC8HODVUqbvgU/rmqC8VaL2TRKVJyGiBqAa4iJ6ZjAJHYcgKLdfSSDhJlfLESzDp0EJxPjYmoyji35Eeadm+Gwu+4Mac+w5vBt3wN+HbrBN7YLJC8fvSO5DWoAtFdTUY685KPIO3EIuYmHUXb+nN6RrsxgBDr2Aes5Gohw0YnK2VbwH15WM/GvRjbI3TJS3eQxpk6oAaiD2NiED8HwiNLxoe3icPu3S8EMrvMOOjvxGA7/OB+n9u3WO8plMU9v+LRpD7/46+DXqTe8Itz4PabOqAFwvvJL55F38hDyEo8iL/EwqstK9I50eVFxYH3HAzHdAOYitwMugy94AbiQqaIGPrJYTI8Ky9RAuch/cdfWuvV1TY2e9nQA4UprDJnzNHpMnyUwVf1xhwPpOzbj8I/zkWtN1zXL5Xj4B6LpgLHwbd8NPq3jG+2kPdGoAdAXlx0oNKcg9+QhnNmyClVFLnjYXEQboO84sPg+tecM6OnAevCdqrb8zbVXG+MyM08UiorUULnRjBD9ZGaeKIyLS3ieA4oPkfj1q08QM3gEAps7f52uw16N5HUrcWThtyjKcd1Hk7zGgaCRUyFd5kAbQtwVkwwIat8ZAW3jkblhmd5xLu/CaWDVJ+BBS8H6jAO6DNZnwmDBRfC9K1SVYMDzdPOvm4a/CFoQs9n0DYBDSsfbK8qx8aVnIDucNyHVYbcjZeMaLLhlIra/+4pL3/wBwFFRitKT+/SOQYgmzh/Y5bqvAn5XcBF80zfgnz8BfmQz4MydE7kMvuErwF6lvAZjx8xm03xxoRo2agDqTmbAQwAcSgvkJB3H8WXqlrXUhVxT89uNfwI2vfqcy9/4/6ho/1a9IxCiiazta/WOUHfF+cDWH8C/fLK2EXBo3wjwgxuAs2lqSsjcwR4CLfurM2oA6sFsNh0GmKrt/fZ98RFsZ06LivQn3OFA0uql+Gb6GLe78f+u3JqE6lzlJ34R4orKzp9DfsoJvWPUX9FvjcAXT4Mn7gZkrs11cs8Be5arKsGBz6zWpP2CEjUK1ADUE5cr/w0gW+n4mqoqbHr1OXCH4gcJf8/EOSy7tmHBbZOw9e2XUHxBxxtoRBuwkbOAHgp3QOQcRQfoKQBpWLJ2rAO4sptn15tnYthjz6JZ+wTBqeqhKBdY/xX4/GfALcfE1pYdwLrP1b5uyIFc9byoSI0FTbOuJ5vNVhUSHH4GDNOU1ijNvQSD0RNR1/VQned88klseOlfOLLwW1QW6TTvxT8I6DoY7Ia7wQbeCES2A4IjgKPKbuT23BwED5vU4E84c5b8jQsVjYubdrfgJI0Tlx04+cnrqKksVzR+zH/eQNv+g9Fl0lTEXz8GPoFBKLmQg6pSHeYTlJcAKfuBU4lgwRFAoKJT0/9s7yrwFJUf3DnuslrT3fARi76oAVDAZstNDQkO7w6Gvx9SXkc5icfQbsBQ+IUo+wGyZZ7C5tf/jT2fvY+Sizp84pcMQHxP4PrbwEbdAdbuOqBJ0//9bebTBOxUElBS/10F5epKeLeMg2ezBniymQ6oAdDXxaO/4uy2NYrGRnbuhl63/f9/B5+mQWjZvRe6TbkVkV2uQ01VJQrPnXX+tsQlNiDpF+DSWbCIVoCPv6Iy/EJm7ad/hU9HfrPeYjH9R02BxoqWASokSTX/5NxjEAeClIx32O1Y9+8ncOu3S+BZj21sK0uKcfjH+Ti2+Ht9du77/ejRHtcDAdfYb7/zQCDbougyxQe2oEnn3orGEuJKsrYpn/zXadzky/51Jklo3XsAWvcegDJbHlI2rEbi6qXOn/djPgJuPQ70GAE2cArg7Vv3sfZKYPWnta8AlCt21OBBNQUaM3oCoFB+fn5JUGizPAZMVFqjsrgIpfm5iBk84ppfyx0OnFy1BGueewRnD+93bsfPJCCmKzBqFtioWUCbzoBXHX7Qg5sDRzYBCrJW5+UgqP9o2vJXAHoCoJ/Kgjwkf/W+ok+4Rm9vjH7uVRg8r74vhqePL1p06Y5uU25B885dUVVcjKKcLLWfquuOcyAnA0jcBeblCzRrXaddBfn6L4GzqaouzYCHrFbTTlVFGjFqAFSw5V86ERIc3hcMMUpr5FrSERgZhbDYK79NyDp6EKufmQPThlWoqapUeqn68/IBug8HJvwDrMcosKBm9dsu1MMI5GbXzvCtL84h+TSBb4xrnqHgTqgB0M/p9UuQl3RU0dj44Teg/cixdf56xhiCoqLRYdQ4tB81FgwMtsxTzntSaK8GrMcB6zGwkBZXnR/AE3cD+1arux7HZovF9IS6Io0bzbJSh8syuw9AsZoi29979bJLA8tsedjw0r+wdM49yDul7FG6Ik3DwK6fBfbQ3No/B0UoLsW6DFE8tnDvBpc/YY2QK5Fr7MjcvFLx+E7jb1Q8NiiqFYY99izuX7UdQx99BgERTpxPc/EM+MLXwNd9DpRd5ldjXjaw5Tu1Vyn+7Xevkx5zNEz0BEClgoJLxaEh4XlQ8SpArrEj++QxJIybDMngAS7LOLlyMdY+9wguOvMwq/BosBG3go25p/YMcYOiAxD/rGkoYNoHVJbVe6hcVQHPZlHwimytPkcjRk8A9JG9Zyuyd29WNDYoqhUGP/wUmMoDegyenmie0AXdptyCoOjWKMrOQrktX1XNOrt0FuzkLsDbD4hoVfv00F4NLHobKFV3HsJvj/53CcnZiFEDIEB+fu7xkJDwHgDilNYot+WjsqgQTcLCsebZR5C0Zhkc1dUCU14Za9URuOEusOEzgfBosaeCMQbUVAOZJkXDa2yX0HTADeLyNELUAOjj5Kevo6pQ2c229+33oUWXbsKyMElCWLs4dJk8DZEJXVCaewnFF3KE1b+iGnvta4HMJLDmbWv3+T+dqLbqOovZ9LSIeI0dnQYoSLt2XcIlgyMRQDM1dSSD5LzzAtp2BhtwIxCluG+pm7Ji8E/nAAof50c/8hZ82um4CYqbo9MAnS/fdAL7//uQorEGoyfuX70dPoGKFhjVWXbiMRz4dh7OHHLS5nkSE7GT4EXZYeiSkZF4SUSkxo7mAAiSkZF4iUu4AyrfSTnl5h8VB9z6PNj0f2l/8wcAvwAgrqfi4bZdKicLEeJkp9ctVjw2dthIzW/+ANCiS3fc/MFXmPH5T2g7YIjq1w3XpP7mz8HZvXTzF4caAIGsaabNHFB1VoCm2nQCu+NFsNtfAIvu4NxrdxuueGhZ0gHY8y8KDEOIdsov5uDiUeWnWnaZNFVgmmuL7NwVk9/+FDM+/xHRvfo59dr1wYB5FkvyOr1zNCTUAAhWWR7wFIAUvXP8SWQ7sFueBZvxDBCpeMWiKiy6AxDSXNFYLsso/MWNTlIjjdrp9UsV79MR0qYdWnRVv0W4Es07dcWUD7/ClI++RrMOLrf8NrW01PspvUM0NNQACHbu3P4KLvNpYFC28bdIIc2BGx8Gm/Ui0Ernd+iMAT1HKx5e+OtmyBX6/ysl5GpqKsqRtWuD4vHdp96m/aP4a4ju2Re3fr0IUz78CqHtnPCK8NoqwXFLTs5R+gUgGDUAGrBaU0wc7GHdAvgF1B7Mc+/bYO37iJ3VrwLrPAjMu+7bHv+RXFWBogPKllQR4ixnt6xGTXn9l7wCgHdAINqPniA4kXLRvfrh9m+XYsSTL8A3KFi3HJyxhywWEx30owFqADRiTU/+hgPfO/WiBg+g1yiwB96rfecuucaN/3+MXuBdlW8MZNu2ArLdOUsjCakvR3UVMtYtUjy+y+RpMHp7C0ykHjMY0PXGabhn6Sb0u/tBeHh6OTvCImt68nxnX7SxoAZAQ77ehgcBqNvsuo5Y+z5g978Ddv2s2i18XRTrMVJxY1JTUoCiXzcJTkSIGGe2rEJVgbJ1/8xgQNfJ0wUnEsfo44t+9zyIO35ajbiho5x12VRPI+5z1sUaI2oANJSYmFgmG+RpAJQ9E6yL0BbArc8DNz4MNA3T7DLCBIYBsSqWBG5bDk5PAYiLcVRXI2O1sg2XACBu6Ej4N1O+5bazBEZGYfxr72Pqx98guHVbLS9VJhvkaSaTqVTLizR21ABoLCM1NZmB3QPRe1YbvcGGzQS753XnL+lTifVWvrNfTVE+ivZvEZiGEPXObl2j+NM/AHSfPktgGu217N4bs75bgUEPPg6jTz2OAK4jBtybkerMfdAbJ2oAnMBsTl4Mxt8TVrB9L7AH3gb6jgMkN9zNOSpe1QZE+duWgtc46YQzQq7BUV2FjNU/Kh4f1a0nmid0EZjIOSQPD/S69W7cuXAtYoeOFFaXg71nNpuUT6YgdUYNgJNY0hOeYYCYF9hGb6CJ9juFaYn1VbY9LQDUFOaj6MBWgWkIUS5r+zpU2vIUj+91+70C0zhfk7BweAc2FVKLAzuiIkOfEVKMXBM1AE6z1GE04lYAp1SXStoD7F6iPpKeYrqBhbZUPNy2dQkdFUx0J9fYkbHmZ8XjQ9vFoXXvAQITOd/eeR8gafVS9YUYzkL2nLFr1y76wXYSagCcyGQy2WSJ3Q5A9Sw2vn8tcGC9gFQ6YQy8n/KnAPaCPHoKQHR3dsd6VOReUDy+92336L7xjxqHf5yPwz99I6JUNeO41Wo9niuiGKkbagCcLCMt+VcGNguA6lN/+K5FwMld6kPphHXsCwSEKh6fv3kR5OoqgYkIqTtHVSWsSxcoHh/YvAXiR7jvUddJq5di7+cfiiglM+AOs9lEx086GTUAOqidFIhnVRfiHHzTfPD0QwJS6UAyAP2V73xWU5iPgp2rBAYipO4y1vyMygIV7/5vuwfM4IaTeAGk79iE7e+9As4FLG7i7Bma9KcPagB0Ykk3vQ3OP1ddSObA6s/ALUcFpHI+1mWIqqcAtm1L4Si2CUxEyLVVFRXglIp3/wERzZEw7kaBiZzn9P5fsOnl54QcXc6A+RZL8jsCYhEFqAHQUUCAzxyAbVNdyFEDrPzYPZsAg4eqpwByVSXyNir/RUyIEuk/f4UaFYdT9bnjARiMRoGJnOP0/l+w5tlH4RCxGRfDlsjIsH+oL0SUogZAR0ePHrVzufJmcKZ+w4v/NQHHBCRzLtZ1aO0OgQoV7d+MqvNnxAUi5CpKz51B1g7lE3D9IyLRccwkgYmcI/PAHnE3fyDFXmWcTjP+9UUNgM6sVmuxJEkTAZxXXey3JgBWNzs4SzIAfZU/BeCyjNw1C8TlIeQqUr7/BFx2KB7f7073+/SfsXcXVj8zR9TNP9tRgzGZmScKRRQjylED4ALS0xNPM2AMgCLVxRx28BUfARnu1QSwroNVzQUoMx1Gudm9/pmJ+8lLPIxLx/YrHh8YGeV2n/5P7duNdf9+DA67kN03Cw2SNObUKdNZEcWIOtQAuAiz2XSSy9IkAJWqizns4Ms/BE87qD6Ysxg8wAbfrKrEpZXzwbn6iUmEXA6XZaT+qG7e7oD750Dy8BCUSHsZv2zH2ueF3fwrGfjEtLSkJBHFiHrUALgQqzVpN2e4HQL2CICjBlj9CXjibvXBnKXTACBM+e6AVdmnUfwrHRREtHF22xoUnUpXPD4str1brftPWrMMa//9mKjH/g4GeabZnLJHRDEiBjUALsaablrGGXtISDGZAxu+Bj8s5ggCzTEJbKi6M9Fz1yxATTG9WiRiVRXakP7TF6pqDHrwMTDJPX7lHlm4ANvefknIUj8AnAH/NJtTadMOF+Me342NjDU9eR5neExIMc6BbT8COxcLKae5mOuAVgmKhzsqSpG7ar7AQIQApgVzUV1Wonh8VLeebrPn/+Ef5+OXT98Vs8kPADA8YzabvhJTjIhEDYCLsqabPgTHK6Lq8QNrwbd9D7jBO3I2ZCqgYn/04iM7UZZGEwKJGLknDiFnr/LtOhhjGDL7SYGJtCE7ZGx/9xXsmfeBuKIc/7Gkm94WV5CIRA2AC7NYTC+AQ9wPz+Et4CvmAmLe6WmnRQzQoY+qEpeWfgru6v+cxOXJ9mokf6Nuv/v2o8ahWYdOghJpo6a6Chv++xROrhT3pJABH1gspleFFSTCUQPg4iwW0zNCtgz+nfkI+KLXgQrljzOdgQ2dCRg9FY+vzj2P/C1u8tqDuCzLsgUoy1G+Ys3o7YOB/xDzNk8r5QU2LH3oLph3bhZXlPG5ZrPpcXEFiRaoAXB93GJJeZADnwqreM4KvuC/gE393kOaCQwB66P8uGAAsG1bjqoLtNyYKFOWcxYZa9SdUdN71n3wD28mKJF4hdlZWPTPWThvShRZ9ktLesqjIgsSbVAD4B641Wx6GBzzhFUsvAT+w8tAtlVYSeH6jgcCQhQP544aXFzyGe0NQOqNyzJOznsLsorXSAERLdBjxh0CU4mVk3wCP993CwqzMsUVZXyuxWz6BwBBMwiJlqgBcB/cYjHNBtjHwiqWl4D/9BqQ5KJLc42eYMNmqCpRYU1Gwa41ggKRxuL0+iWwpZ5UVWPIw0/Cw8tLUCKx0rZuwLI596CiqEBcUc4//+2TP9383QQ1AO6FW8zJjwhtAhx28HVfADsX1e4b4Go69AWL7qCqRN667+mwIFJnxVmnkP7zl6pqRPfqh9ihIwUlEkd2yNj9ybvY8OLTqKmqEla3dsJfyj9BN3+3Qg2A++EWc/IczvCM0KIH1gFL3wEqlR9xqgnGgDF3Awblh6dwezXOL3ibVgWQa5Lt1Tjx0ctwVCv/XjEYPTHi8ecFphKjuqwUa5+bg6M/LxBalwFv0YQ/90QNgJuyppveAmePQGDHzU8lAgteAPJyRJUUI7g50HesqhJV588gb8NPggKRhipt0VcozlQ3L6b3rHsRFN1aTCBBCs6dwcL7b0HG3l0iy3Jw9pTZbBL6YYQ4DzUAbsxiSZ4Lzv8JEWcH/IYXXAD/4UVwyzFRJYVg/SYDQeGqahTsWIlya7KgRKShyTedwOm16paONm3ZGr1uu0dQIjGsu7dj4T3TYcs8JbKsgzN2n8WS/K7IosS5qAFwcxZLyhfguA2AkOO6ANS+Blj+AfjOn11n50CjERh9p6oSnMs4/8P7kCtc7DUH0Z29vAwnPnkVXFb3/X79E8/Dw9M1Jv7JNTXYPfdtrH3+UVSVloosXc0ZZljTk2nPbTdHDUADYLGYfgZn4wCI292Hc+DAevAfXwNKBM4UVoG16QKWoG4/9ZqCS7i0TNxqStIwmL5+DxW5F1TV6Dh2EqJ79ROUSJ2SSxexZPadOLr4e3F7+tcqkhjGWNNNy0QWJfqgBqCBsFiStxokaQCAc0ILn0sHn/8c+GmhG4UoN+oOwD9IVYmiwztRtJ+ODSa1zm5bg3O/qPt+8AsJw9A5/xKUSJ2sY4ew8J5pyEkWfh7GeXAMTU837RBdmOiDGoAGJC0tKckgOQYBSBNauKIEWPIO8Msy/V8JePuCjVK/ucrFZZ+j8qxFQCDizoqsqUier26vfwAY+a8X4e0fICCRcnJNDfZ+8RGWPXIvymz5osubZAfrY7GY6JStBoQagAYmLS0t09OIAQD2Ci0sc/B9q2p3Dyy4JLR0vcX1BDqqe9TK7dXI+eZ1OEqLBYUi7qa6uBBH3vu3qt3+AKDjmIloO2CIoFTKFJw7g0X/vB2Hvv9K9TyGv2HYXeUlDcrISM4SW5jojRqABshkMtm4XHU9B74XXjzbCv7N80DibuGl64ONmgX4BaqqYbflImfB2+J/YRKXx2UZxz54ERW5F1XV8QsNx9BH9F0Fl7x2OX68cyoupCSJL875N54eGHU2Kck1JgIRoQx6ByDasNlsDlt+7qqQ0GaFAEYBYMKKO2oAyzEgNwusdSdVp/YpZvQCwloCKb+qKmPPvwBur4Zf+26Cgrme/I0LFY2Lm3a34CSuI+3Hecj+Rd3pd4wxjHv5HYS1ixOUqn6qSkqw5Y3/4OD3X0GuEbcI6Decgb1ssZgez83NdYguTlwDPQFo4CzpyR8xsCkAyoQXTz8MPv85IEPdnulKsbZdgO7Xq65j27ECJSf2CUhE3MH5AzuRseZn1XW6T5+FNv0GC0hUf6d//QULbpuEtK0btChfwmVMMpuTX9SiOHEd1AA0AmZz8kou80EcEL8hfokNfMk74Ou+AK8U32NcCxt2CxAWpa4I57jw04eopvMCGrySs6dw8tM3ape5qhAW2x4D//GIoFR1V1lchE2vPIuVTz2IsjxN5uKckhgbaLWa1mpRnLgWagAaCas15biH5OgBYKsmF0jaA3z5NJB+WJPyV2Q0gk16qHajIBXkqgpkffYC7HpPcCSaqbTl4dAbT6FG5UZQHp5eGPPCGzA4+dXX6V9/wfezbkTKJo3uzRy7ZIehX3p6sous+SVaowagEUlLS8tvERk2Foy/Cy1O7SorAl/xEbBmHlAhdOexqwuLAhsyU3WZmqJ8ZH/+Ehzlzn+SQbRlLyvFwVceVz3pDwCGzPkXQtvGCkhVNxVFBdjw4tNY+dSDKM3VpEHlDHjTYul4fUZGInXAjQhNAmxkMjMzZVt+7tbQkGZpAMYAEP8xJjcLSNwN5hcIhEfXnuintRbtwHLPAfnZqso4SotQkZmGgO6DwQwN48ejsU8ClO3VOPzGUyi0pqqu1WHUeKc9+uecI2XDKqx+Zo42M/xrlYDjVovF9DGQQkf5NjL0BKCRMpuTFzNIPTmgzW+W8pLaeQE/vlrbEDjDhPuB0EjVZSqsycj59i1aHtgQcI7EeW8iX8D+NUHRrTHiqf8ICHVtBWczsfzR+7D59f+golCzFXipskHub7GYlmt1AeLaGsZHHKJIfv6lvAB/v28NHsYAgPXR5CLF+cDxnUBlCVhUHGBQ967+qgweQKv2tfMRZHUrl6ovZcNRWoQmCb0EhdNPY34CkLLgY5zZtkZ1HaOPL6Z89DX8w5sJSHVl9spKHPruS2x46WkUnjur2XUY8ENZqffEs6cT1T0yI26NGoBGrrCwsMaWn7spNCQ8E8BIaPFKABzIyQBMvwKBIWChLcRf4jfMNxCsSRBgOaq6VuVZC5iHEb7tEgQk009jbQAyVv8Ey7LvhNS64d+vIbqHNj0yUPu437xjM1b/azYy9u7S8ulTCWf8Hos55eWSkvPCNw8g7oUaAAIAyM/PPRkcFL6KMQwCoM3HnKoKIPUgcCYFLLwl0ETdoT5X1KwVUFVa23SoVG4+CcnoCZ+2HQUE00djbAAyVv+E1B/EnPrY89a70GOG+vMnruRCShLWv/Akji3+HtVlmk5APS4xw2hLevJOLS9C3Ac1AOR/bLbc3OCgwG8l5mEE0B8idw/8o+I84OQusNxs8BbtwLx8hV+Cte4CXDgFFKif9V2efgJgDL4xndUH00FjawBE3vxb9emP0c++BiaJ/1Eozb2E3Z++ix3vvYqSi+eF1/8DDsY/5nL1DIslVf0PBGkwqAEgf2Kz2Rz5+bnbQoKb7QfDCAD+ml0sLxs4sROQHWDN29a+wxeFMbB2XcHSjwCV6pckVliS3LYJaEwNgHnpt0hf+KWQWkHRrXHz+1/C6O0tpN7v7JUVOPjtF9jw4lM4b0pUvSnRNWRxiU22pps+t9lstKUv+RNqAMhl2WyXToWHhXzHIbUDoN3zb9kBnE0FO7m7doJgs2hAEvRt6eEJtO4EmPbWnl+gUoUlCZBl+MZ1ERDOeRpLA5C+6GtYln4rpJaXvz+mfvwNmoSJexvmsFfjxIqfse75x3D6wB7INeq/J6+GA4urvaTxp1OSxR4PThoMagDIFeXl5VXY8nOXBIeGpTCwYQDEP6v/nb0KOHUSSNoLZvQCIlqJ2T/A1x9oEQukHAC4+olVFRnJ4NWVbnV4UGNoANIXfQ3LsgVCahmMRkx6Yy4iOoh52sNlGZZdW7DmmUeQvnUD7JUVQupeRS5n/C6rOeXlokuXKrW+GHFf1ACQa7Ll56YERIT/IMkshgHtNb1YVQVgPQ6kHADzC6hd16+yEWCBYUDTMMCsfmUAAFScToWjevZ1ywAADA1JREFUuABNOvYAmOtvpdGQGwAuO5D81fs4tXaRkHpMkjDmhTfRbtAw1bW4LCN96wase/5xJK5agqqSYgEJr46BLeWy5zirJcnJe3ITd+SELdpIQxIbm3ALGOYCCHHG9VhoS/D+48E69lN9s+X71wK7FgtKBvi1747Iu5+B5K3dgxER0ueMVzRu/LK9gpOIVVNehqPv/we5Jw4JqznkoSfRY+adqmpwhwNp2zbi0A9fIf+0+pUodZTLGZ9tTU9Z6qwLEvdHTwBIvdhsuUlBTZsvYAyRYND+ZXh5MZB+BDDtA/PwrD35T+EcAdYyHqy8GDh/Skg0e955lCYfQpOE3jD4+AmpqYWG+ASgPPcCDrz0KArMycJqdp96G/rf95Di8Q57NZLXLsf6/z6F5HUrtNzB7484B36QYJ9kMacdccYFScNBTwCIYjExnUYxic8D0NZpF/UPAvqMA7tuGGD0qv94LoOv/bx2UyJBPPyD0OKBF+Ad7bwDYuqjoT0BKLKm4vCb/0JloU1YzY5jJmL0c6+CSfV/ymSvrEDi6qU4snCBVkf0Xh6HhTH+T7M5ZbvzLkoaEmoAiCqRkT18mzSpfIEDjwPQcJ/fv/BuAtZtGND9eiCgnm8juAy+cm7tkwVBJE8vNJ/1JJp06SespigNqQG4cGA3jn/8MhxVVcJqxg0dhbEvvwvJUL+bf8nFCzixfCGS1i5HZXGRsDx1YAfD2/aqslczMzNpkh9RjBoAIkRMTMcESGwuA4Y79cJMAtr3But1A9Aipu7jHDXAsvfBTwk8+pwxBA+/CWHjZwEudJJgQ2gAuKMGaQu/RMaan4Wum287YAgmvPYhDMa69645ySdwfPEPMO/eBu5w+tL6reDsEYslWf3RhqTRowaACBUT33EqA3sXHNFOv3hkDFiv0UB8z7odOmS3A0vfAT+TIjSGd+t4RN7xNIwh2h4cU1fu3gCUX8zBsQ9eRKFV7H+n6F79MPntT+Dhee1XSQ57Ncw7t+DYkh9xMVXcvIN6yARnT1gsySv0uDhpmKgBIMJFRvbw9fOvfBYcTwIQu41aXfj4A10G1c4TCG5+9a+1V4Ov+AA4JfZUZMnHF81mPIyAboOE1lXCnRuAnH3bkfTF27CXi90jv3XfQZj4+ofw8Lr6zd925jSS1iyDaeNqVBYVCs1QRxUM7O3ycv+3zp3br/kGAqRxoQaAaCYmpksUkxz/AXAvAF0WzLOI1sB1w4FOAwHjFQ46dNSAr/oEMIufRB3YaxiaTZ8N5un8Puh37tgAOKqrkfbTZzi9fpnw2m0HDMH4V9+/4id/h70aGXt3InH1MmQdOQCu7Va9V8IZ2DLGpH+lpyee1iMAafioASCai4tL6MWB9wDo93HYuwlYx77gnQaARcb8fXMh2QGs+hQ8Xdya8t95RUSj2YyHdDtR0N0agIJ0E07Oex2l584Irx0/4gaMeeFNSB5/PneCc47zySeQunkd0rdvcvakvj/j2CUbpCcz0pLE7FxFyBVQA0CcJi6u040c/A0A8boGaRoOltAfSBgAhPzhFQGXgQ3zwRN3i78mY2jaZyRCJ90Jg1+A+PpX4S4NgKOyAmk/f4HMjSvAZfXbNv9V54lTMOLJF/4029+WeQqpW9cjbfM6FJ3PFn7NekrlDM9Y001r9A5CGgdqAIhTDR061CM7+9LtnLH/MqCV3nkQ0QYsoR8Q16t2u2DOgb0rwPeu1ORyBr8AhE26C4F9rhdz1kEduEMDcOHAbpi++xgVuRc0qd/vngfR7+4HAQBF57Nh3bUVaVs34GK62ImFCp1mwEtmc8cfgaV0Yh9xGmoAiC569OhhLCmpvIsD/wUQqXceAEBoC7D2fcBju4NdOgO+8ZvaVwMa8GnbEc2mz4ZXc+17IFduAMrOn0XyN3ORe/yAJvUlg4Thj/8brXr3R8a+XTBv34zzySf0eq//V5c4w/twVH1otVrFbWxASB1RA0B0FRnZw9fPr+pBxvgTHIjQO8//BDcHPDyAS1naXcNgQNO+oxBywwx4BGp3tIIrNgCVtjyYl36LrB3rwQUc1XwlYTHxsFdVoTArU7NrKHCeA+9Ulgd8TjP7iZ6oASAuISqqn4+PT9G9YOxpAFF653EmyeiJpoPHI2j4zfDwDxRe35UagKqiAmSsWYgzG5fDUV0tvL5LYzjLON6uri6bTzv4EVdADQBxKQkJCZ52O+7kwDMA2uidx5kkoycC+o1C8IibYAwKF1bXFRqAitzzsK7+Ged2rGt8N34ggwFvGo343mQyNbp/eOK6qAEgLmqqISbedDPj7EkAvfRO41QGAwK69EPgoPHwjemkupyeDUC+6TjObFqJ84d+0fRRv2tiBziT37emJ6ygyX3EFVEDQFxebGyHwYD0BBjGQ6cNhfTi1bwVAvuPhn+3wfAIaKqohrMbgKpCG7L3bUPWtrUoyWp0e9jIAFZLDO+lp5v26R2GkKuhBoC4jfbt28c5ZI+HAH4HAOcuptebJMGvfQ/49xgM/4SekHz96zzUGQ2AvaQIF48dQM6+bcg9cQhco9UTLqwIHN/KMj7NyDBZ9Q5DSF1QA0DcTnx8vL8DxtsY5w8B0Gd7PR0xSYJP2wT4JfSGb1xneLVoe9Vz7LVoALgsoyjTAlvSMVw8tg+21ERNNu9xdRxIYpx/6uPj8WNiYqLYAwsI0Rg1AMSttYtPGMY4HmDAZADXPtatATL4+sGnXQK8o+PgHdUOXtEx8PAP+t/fF9EAVBbaUHwqHUWn0lFoTYUt9STsZaWqs7upSgAruSx9YbUmabBtJCHOQQ0AaRDat28f4uAet3HO72FAZ73z6M3g0wTGsObwDG+B4iO7FNVoMWgUys6fQ/n5LFSXlYgN6J5OgvP5np7sJ5PJZNM7DCFqUQNAGpy4uIRenOMuMEwHEKx3HuLW8hmwmDH2bXp6svjjIgnRETUApAGbaoiLSx4GSLM4cBMAP70TEbdQCWAbZ/x7Lw+2mtbuk4aKGgDSKLRt2yNQMlbdLHE+lQMjABj1zkRcSjUHtjOOJZxXrbBarcV6ByJEa9QAkEandevrmnp62icCbDwHHwt6MtBYVQLYxoC1suy50mo9nqt3IEKciRoA0qjFxMQESJL3GM4xAYzfAEC7U3mIK8hjwEaZ8bVeHmyjyWRqtEsZCKEGgJD/mWqIizP155yN/23XwUa3x0BDxIEkCVjvkNjajLQOB2lbXkJqUQNAyBW0adOpmcFTHsw4ux7AWDSyUwrd2CUGthvg22pqsOnUKdNZvQMR4oqoASCkblhcXEIXGRgOsMEMfACAML1DEQDAJTDsAdgeWXJsz0hNTdY7ECHugBoAQpRhMTEJHSQJAwE+iIP1BRCjd6hGgcPCGA4A+AWQ9prNSWl6RyLEHVEDQIggCQkJwVUO9GIcvQH0Yhy9OBChdy43l8OAw5yzw5zjcLUPO3w2KalA71CENATUABCioXbtuoRLktwVQFfGeBcOdAHQAYCnztFcTRWAFACJDEgE5ERZ9j5JS/MI0Q41AIQ42dChQz2ysnJbSxKLZ0xuL4PFM4Y4cMQAaA7gykf7uTcZtZ/oLZwxM+c8XQJPk2XJbLV2yKTZ+YQ4FzUAhLiQmJgYL9lojDbUGFozxltzhlbgiGJAMxlowYBwAM30znkZHMAlABc5kM1qJ+ZlMY4zgJzpcEiZ3t44S9vqEuI6qAEgxM306NHDWFJSEy5JcnBNDYIliQfLDEFMRjBnCJbAvXnt7ob+ALwB5g9wxoCmf6zDAR9wJjPGq/5yiWIO5gB4MWofzZcwoEwGr5AAG+ewMcYLOIfNYPAo4Lw6v3nz5pd27dpV46R/BYQQQgghhBBCCCGEEEIIIYQQQgghhBBCCCGEEEIIIYQQQgghhBBCCCGEEEIIIYQQQgghhBBCCCGEEEIIIYQQQgghhBBCCCGEEEIIIYQQQgghhBBCCCGEEEIIIYQQQgghhBBCCCGEEEIIIYQQQgghhBBCCCGEEEIIIYQQQgghhBBCCCGEEEIIIYQQQgghhBBCCCGEEEIIIYQQQgghhBBCCCGEEEIIIYQQQgghhBBCCPm/9uCABAAAAEDQ/9ftCFQAAAAAAAAAAAAAAAAAAAAAAAAAAB4Cl7cIuycEV94AAAAASUVORK5CYII=;" parent="1" vertex="1">
          <mxGeometry x="946" y="1029" width="71" height="71" as="geometry" />
        </mxCell>
        <mxCell id="G_0oZVv-SX7uU9xHisf4-17" style="edgeStyle=orthogonalEdgeStyle;rounded=0;orthogonalLoop=1;jettySize=auto;html=1;exitX=1;exitY=0.25;exitDx=0;exitDy=0;exitPerimeter=0;entryX=1;entryY=0.75;entryDx=0;entryDy=0;entryPerimeter=0;strokeColor=#FF0000;strokeWidth=2;startArrow=classic;startFill=1;endArrow=none;endFill=0;" parent="1" source="G_0oZVv-SX7uU9xHisf4-1" target="nFB4tpNnGNIT1_HhN5Ei-214" edge="1">
          <mxGeometry relative="1" as="geometry">
            <Array as="points">
              <mxPoint x="1360" y="850" />
              <mxPoint x="1360" y="165" />
              <mxPoint x="429" y="165" />
            </Array>
          </mxGeometry>
        </mxCell>
        <mxCell id="G_0oZVv-SX7uU9xHisf4-18" value="Просмотр трансляция с камеры домофона [TLS]" style="edgeLabel;html=1;align=center;verticalAlign=middle;resizable=0;points=[];" parent="G_0oZVv-SX7uU9xHisf4-17" vertex="1" connectable="0">
          <mxGeometry x="0.4233" y="1" relative="1" as="geometry">
            <mxPoint x="-1" as="offset" />
          </mxGeometry>
        </mxCell>
        <mxCell id="G_0oZVv-SX7uU9xHisf4-20" style="edgeStyle=orthogonalEdgeStyle;rounded=0;orthogonalLoop=1;jettySize=auto;html=1;exitX=0;exitY=0.5;exitDx=0;exitDy=0;exitPerimeter=0;entryX=0.75;entryY=1;entryDx=0;entryDy=0;entryPerimeter=0;startArrow=classic;startFill=1;" parent="1" source="G_0oZVv-SX7uU9xHisf4-4" target="_bE7263p_LXFPztFBxZn-1" edge="1">
          <mxGeometry relative="1" as="geometry">
            <mxPoint x="410" y="1284" as="targetPoint" />
          </mxGeometry>
        </mxCell>
        <mxCell id="G_0oZVv-SX7uU9xHisf4-24" value="Данные событий и управляющие команды" style="edgeLabel;html=1;align=center;verticalAlign=middle;resizable=0;points=[];" parent="G_0oZVv-SX7uU9xHisf4-20" vertex="1" connectable="0">
          <mxGeometry x="0.0005" relative="1" as="geometry">
            <mxPoint x="88" as="offset" />
          </mxGeometry>
        </mxCell>
        <mxCell id="G_0oZVv-SX7uU9xHisf4-21" value="" style="image;html=1;image=img/lib/clip_art/networking/Firewall_02_128x128.png" parent="1" vertex="1">
          <mxGeometry x="756" y="1375" width="80" height="80" as="geometry" />
        </mxCell>
        <mxCell id="G_0oZVv-SX7uU9xHisf4-22" value="Firewall" style="text;html=1;align=center;verticalAlign=middle;whiteSpace=wrap;rounded=0;" parent="1" vertex="1">
          <mxGeometry x="766" y="1455" width="60" height="30" as="geometry" />
        </mxCell>
        <mxCell id="G_0oZVv-SX7uU9xHisf4-25" style="edgeStyle=orthogonalEdgeStyle;rounded=0;orthogonalLoop=1;jettySize=auto;html=1;exitX=0;exitY=0.25;exitDx=0;exitDy=0;exitPerimeter=0;entryX=0.75;entryY=0;entryDx=0;entryDy=0;entryPerimeter=0;strokeWidth=2;strokeColor=#FF0000;" parent="1" source="G_0oZVv-SX7uU9xHisf4-1" target="_bE7263p_LXFPztFBxZn-1" edge="1">
          <mxGeometry relative="1" as="geometry">
            <Array as="points">
              <mxPoint x="840" y="850" />
              <mxPoint x="840" y="790" />
              <mxPoint x="390" y="790" />
            </Array>
            <mxPoint x="660" y="925" as="targetPoint" />
          </mxGeometry>
        </mxCell>
        <mxCell id="G_0oZVv-SX7uU9xHisf4-26" value="Публикует события звонка&lt;br&gt;с подписанной ссылкой&lt;br&gt;на трансляцию" style="edgeLabel;html=1;align=center;verticalAlign=middle;resizable=0;points=[];" parent="G_0oZVv-SX7uU9xHisf4-25" vertex="1" connectable="0">
          <mxGeometry x="0.6865" y="1" relative="1" as="geometry">
            <mxPoint x="29" as="offset" />
          </mxGeometry>
        </mxCell>
        <mxCell id="G_0oZVv-SX7uU9xHisf4-27" style="edgeStyle=orthogonalEdgeStyle;rounded=0;orthogonalLoop=1;jettySize=auto;html=1;exitX=0;exitY=0.75;exitDx=0;exitDy=0;exitPerimeter=0;entryX=1;entryY=0.25;entryDx=0;entryDy=0;entryPerimeter=0;strokeColor=#FF0000;strokeWidth=2;" parent="1" source="G_0oZVv-SX7uU9xHisf4-1" target="_bE7263p_LXFPztFBxZn-1" edge="1">
          <mxGeometry relative="1" as="geometry">
            <Array as="points">
              <mxPoint x="1038" y="880" />
              <mxPoint x="880" y="880" />
              <mxPoint x="880" y="850" />
              <mxPoint x="450" y="850" />
            </Array>
            <mxPoint x="660" y="955" as="targetPoint" />
          </mxGeometry>
        </mxCell>
        <mxCell id="G_0oZVv-SX7uU9xHisf4-28" value="Публикует события прохода&lt;br&gt;и приема биометрии и фото&lt;br&gt;с id события" style="edgeLabel;html=1;align=center;verticalAlign=middle;resizable=0;points=[];" parent="G_0oZVv-SX7uU9xHisf4-27" vertex="1" connectable="0">
          <mxGeometry x="0.637" relative="1" as="geometry">
            <mxPoint x="33" as="offset" />
          </mxGeometry>
        </mxCell>
        <mxCell id="G_0oZVv-SX7uU9xHisf4-31" style="edgeStyle=orthogonalEdgeStyle;rounded=0;orthogonalLoop=1;jettySize=auto;html=1;exitX=0;exitY=0.75;exitDx=0;exitDy=0;exitPerimeter=0;entryX=1;entryY=0.5;entryDx=0;entryDy=0;entryPerimeter=0;strokeWidth=2;strokeColor=#FF0000;" parent="1" source="G_0oZVv-SX7uU9xHisf4-1" target="_bE7263p_LXFPztFBxZn-1" edge="1">
          <mxGeometry relative="1" as="geometry">
            <Array as="points">
              <mxPoint x="1038" y="880" />
              <mxPoint x="880" y="880" />
              <mxPoint x="880" y="950" />
            </Array>
            <mxPoint x="660" y="985" as="targetPoint" />
          </mxGeometry>
        </mxCell>
        <mxCell id="G_0oZVv-SX7uU9xHisf4-32" value="Читает события разрешения &lt;br&gt;постоянного по id события" style="edgeLabel;html=1;align=center;verticalAlign=middle;resizable=0;points=[];" parent="G_0oZVv-SX7uU9xHisf4-31" vertex="1" connectable="0">
          <mxGeometry x="0.4772" y="1" relative="1" as="geometry">
            <mxPoint x="16" y="3" as="offset" />
          </mxGeometry>
        </mxCell>
        <mxCell id="G_0oZVv-SX7uU9xHisf4-29" value="" style="image;html=1;image=img/lib/clip_art/networking/Firewall_02_128x128.png" parent="1" vertex="1">
          <mxGeometry x="866" y="824" width="80" height="80" as="geometry" />
        </mxCell>
        <mxCell id="G_0oZVv-SX7uU9xHisf4-30" value="" style="shape=image;imageAspect=0;aspect=fixed;verticalLabelPosition=bottom;verticalAlign=top;image=data:image/png,iVBORw0KGgoAAAANSUhEUgAAAgAAAAIACAYAAAD0eNT6AAAABHNCSVQICAgIfAhkiAAAAAlwSFlzAAAOxAAADsQBlSsOGwAAABl0RVh0U29mdHdhcmUAd3d3Lmlua3NjYXBlLm9yZ5vuPBoAACAASURBVHic7N13YBTV+j7w58yWdNJJIYGUzaZsEkroIB3pnQAKqFjBgliuveK9eq3X3q4FKwoIgoBKB6WJ9CSQAoQOCUmAkLrZPb8/ov74einJzJmdLe/nn1vY886jQObdmVMAQgghhBBCCCGEEEIIIYQQQgghhBBCCCGEEEIIIYQQQgghhBBCCCGEEEIIIYQQQgghhBBCCCGEEEIIIYQQQgghhBBCCCGEEEIIIYQQQgghhBBCCCGEEEIIIYQQQgghhBBCCCGEEEIIIYQQQgghhBBCCCGEEEIIIYQQQgghhBBCCCGEEEIIIYQQQgghhBBCCCGEEEIIIYQQQgghhBBCCCGEEEIIIYQQQgghhBBCCCGEEEIIIYQQQgghhBBCCCGEEEIIIYQQQgghhBBCCCGEEEIIIYQQQgghhBBCCCGEEEIIIapjWgcghDRfXFyct9EYGAo0hAE8DGDhAFpwzgIZ4/52wJ8B/gwsGAA444HgTGoczQMZIHFADwAMaLADnIGd/bM+AyoAgHPUA/ZKxtg5O3BWAirtYOfB7Odh050F7KWSZC0pKCg44/B/CYQQRagBIMTJxMW1C9Lr6xIY08UBiAF4K8Z4NGcsFnZEgyEKgL/GMf/OCqAUQAkHTjKghIEVc86L7RIO67h0OCDAeHT79u1WrYMSQhpRA0CIBjIzM/2q6nkKs/M0AKkS7Il2sAQGJAAI0TqfSmwAToDhIDjyGZAP8H2ALr+gYG8xALvG+QjxKNQAEKKqbF1S0j4zwNsBaMcYMjmQAqAN6O/fxeoA5HNgHxh2wsZ2AoadRUU7S7UORoi7oh9AhIgjmUyWFMZ4F0hSF3DeHgzp4PDVOpgLOwaGnYxjp92O3yXJupnmGxAiBjUAhMiUnJwcwLmuJ+esGyR0AUcXAIFa5/IA+QC2MGCTTWffdGDfvjzQ6wNCmo0aAEKaqHVGRrCxxt4TEvow4BoAHQDotM5FcA7AL5xhtQ5sTX5+zl4AXOtQhDg7agAIuYysrCzD+fPV3SBJ14LjWgBZACStc5GrKgGwhgGrGdOtzs/fc0jrQIQ4I2oACLlIYmJ6LNNjOLPzwWDoCyBA60xEsXww/oMdbHlsVPgv69ata9A6ECHOgBoA4ulYYkpGB53dPpIzNhycd9A6EFHVWQ78DLBleqlh+f79+8u0DkSIVqgBIJ5IMpvTenBI2QAfC6CV1oGIJhoArGXAfMC6iFYXEE9DDQDxFJLZbOnOGc8GZ+NAN33yf9k4sIUxNr+hHt8cOpRzWutAhKiNGgDi1kymNIsksSkcmAwgVus8xCU0AGwFAz6vr7+wuLi4uFbrQISogRoA4nbiLJZIvRXXMcam0Dt9otBZAPMkhs/z83M3ah2GEJGoASBuIltnNucMskN3GwMfjj9OuvNUhoBA+EXGwC+yFY7/skJWjRYd+6L+zAnUl5yAvbpScEIXxFEI4HNJavgkPz//hNZxCFGKGgDi0hISLK31enYzB78ZHvqI3xAQiJDUtgg2paJFghlBCckwtgj669eXju8pq27ym0v/+u8NledQd6wItUeKUHekEFUHcj25KbCCYQnj/L2Cgrw1oE2HiIuiBoC4ImY2p/YHpLs5MBwethsf0+kRammPllndEGbpgIDWCWDS5fcnEtEA/B3ndtQfL0Z14W5cyP0d1UV7Abvn7cbLgQIA73sZ8Flubm651nkIaQ5qAIjLsFgs/nUNbCrj/G4AaVrncSSm06Nl+y6I7jEALTt0g8HPv8lj1WgA/s5WcwFVudtQuWMDLuzbAdhssq7pwmo48BXs+E9RUW6e1mEIaQpqAIjTM5kyY5iu4V5wdhs87LCdwHgzWvcfjqge/WAMCLr6gEtwRANwMduF86jcvh5nN/+MuhPFsmq4MM6BnyTwVwsK8lZrHYaQK6EGgDitlJSMjAa7/UEGTAJg1DqPo0h6A6K69UGbweMQkpyuuJ6jG4CL1RzMQ8WGpajcvdETnwrs4mCveRn4t7m5ufVahyHk76gBIE7HZMroDcn+MAMGw4P+jOq8vNFm4CgkjJgE79BwYXW1bAD+ZK04g4o1C3F28wrweo9bVn8MnL9UUxP40bFjm2u0DkPInzzmhytxfklJ6QPB8ATAe2mdxZF0Xt6IH5aNxBGTYAgQ/4bDGRqAP9mqzqNizSJUrF8Ce32d8PrOjAGnALzs7a37YM+ePVVa5yGEGgCiuaSk9GF/3Pi7ap3lT4HRMdB7e6PsYJFq12A6PdoMGAFT9jR4B4Wodh1nagD+ZDtfjjM/fYOzm39W99VAZDxgawBKj6p3jeYr5Qyv6tDwbn5+vseupSTaowaAaKbxGz//F4BOWmcBgLCEJCT1HgBT7/44vT8XK1+eDa7SzSnU0h4Ztz0I/5g2qtS/mDM2AH+qLzmOku8+RNW+7epcgElgg24C4tOBgt/BC3cAx/IBu1Ms3S8DZy/W1AS8Ta8GiBaoASAOZzJldGPM/jwY+midJTwpBSkDhyKp9wAExbQG5xxbPn4Xmz99T5XreQUGI/WGuxHT61qAOeavnzM3AH+6sPc3lCz6ENYzp1Spz3qMBq4Z1/jvvKYSyP8dyNsMfmQ/wDXfv+AYA56Njg6fs27dugatwxDPQQ0AcZjk5PRMO+f/QuPmPZoJiIxG6rXDkDpwGEITTH/9/9xmw8oXn0HOskXCr8kkCa0HjEDy5Okw+gUIr38lrtAAAIC9vg5nln+Fs+u+B1djU6HM3mBDbwHYRZsmXagA37cVyNsCnFDvdU8T5XOGJ4ryc78D7S5IHIAaAKK65OTkaM71szlwEzTatc8rIADmfoORNmg4ojM7gP3t27fNasWPzzyMgnXy9s2/koA2iWg7/SEEJVmE124KV2kA/lR7pAinvvoP6k4eFl88pRPYyLsA3SWOiqgoAXJ+Ad+7AThXJv7aTbeN26V/FBXtXa9lCOL+qAEgqomOzvL1Dai9h3E8BqCFFhkiktOQOSobKYOGw+Dtc8nP2KxWLH3qQRzYIH7flpjeg5Bx+0PQeXkJr91UrtYAAAC31qN0yaeoWP+D+OKJbcHGzAIMhstc3A4cLwTP2Qjk/ApYNVvCv5RBuregYO9BrQIQ90YNAFEDM5stN3DgeQDRjr64d2AQ0gaNQMbI8QiNT7ziZ621tVjy6D04/NtmoRkM/i3Q7s5HENFZ+xWNrtgA/Kly10ac/uZN2KoFr5qLTwcbdz9guPL+Ury2Cix3I/iO1cCZ42IzNE0tB3/Ny8BeyM3NvaBFAOK+qAEgQplMqR0kSXqLA90dfe2I1HR0mDAFSX0GQm+8+jdua20tvn9wBo7u3CY0R0hKJtrf+zR8wiOE1pXLlRsAALBWlODknJdRc2if0LqsdSow4R9XbQIANG7weyQPfPsqoGC7FhMHTzDg0YKC3C9A8wOIINQAECEsFktIfT3+CYbb4cD3/EynQ1KvAegwcQqiM9o3eZzNWo/FD92D4t82issiSTCNnQrzhJvBJOc5oNDVGwAAgN2G0mVfoWLVAnCBN18Wnwlk3wfoLvM64FIqy8F3rgZ2rQWqzgvL0hQMWAvopxYU7NbkcQRxL9QAEKWYKTl9GuP8RQBhjrqoV0AAMkaMQ7tx16NFZPPeMtgbGrD0iftR9MsaYXl03j7oMOtZRHR0+IOPq3KLBuAPF3K24sScl8VuJ2zuCDbmHqC5TZvVCuRsAP/tJ6D8pLg8V8NR2NDArjl0KOe04y5K3BE1AES25OTMZDtsH4Cjt6Ou6Rcajo7X3YjM0RNg8PFt9ni7zY4fZz+M/FU/CsvkHRKGzo++jBbxScJqiuRODQAA1B4twvEPn0ODyJn6ad3ARtwJSDJ+JHI7ULgD2LIM/HihuExXtrCwIHecoy5G3BM1AKTZTCaTFySvhxnwGACHTG8PjGqFjpNvQfrw0dA15Z3tZax+eTZ2fz9PXK54Mzo9+hK8Qxz28KPZ3K0BAICGs2U49sEzqDt+SFhN1r4/MHiaohr8eCGw8XvgwG5BqS5PJ0mZ+/fv3av6hYjbcp4XlcQlJKakd5egW86AbACXWEwtVmh8Inrf8xCuffgZRKZlQNLJ/yP72+f/xbavPhGWLaJjD3R+7GUYVTjAR6SCefL+mcOGXC84iTiSty9adOqLuuPFsJaeEFP01CEwvR6ITZZdgrUIBbP0ADO1Ay6cBSpUfErPUVJWVrJOvQsQd6f6D3DiHmJiuvn4+J2bDTu/Dw5oHINj2qDbrXchuf9gMEm6+oCryPvpB2z88E0ByRrFDxuPtBtnCslG5JG8fNDq9idRsvBDnN0g5mkFXz8fCAgFS++hrFBUAlj2A+CnisF+XQhetLNxJYFQ9lTBBYmHoQaAXJXJlNqVSec/BWcpal8rICIS3abNgGXoaDAF3/YvdmTbZqz891Pggn4AmyfcDPOEm4XUIsowSULE+OnQ+wbgzE9zlRfkHFj2IeAX2HiAkNJ8kXHA+PvBTh0CX/stUJyjPOMfOGfUfRJFqAEgl2UymbwY85oNhgeg8rd+3+AQdL7hNmSOntCkNfxNVV58ED88cR9sVquQesmTbkPS+BuF1CLihA6dDC5JKFv+lfJidhv4ojfAbngWCBO0j1VkPNh1jwCHcoB134CfKlZeU+ICihBPRg0AuSSTyZLGJHwFoJ2a1zF4e6PDpBvRecotsmb1X0nt+XP4/uG7UXdBzAZqKdffAdPYqUJqEfHCBl8HSdKhdOnnyovV1YAveBXspmcBb3/l9f4Unw7EPQfs3wq2fgF4hfzTDxnHT+KCEU9EkwDJ3zGz2XIXGBYAiFXtIowh9drhGPnCmzD16g/d5fZll4nbbFj86Eyc3p8rpF7q1BkwjZkipJajueMkwMvxSbRAMhhRnb9LebHaKuB0MZilu9ijmxkDC48BOvQHfPyAEweAhmY+ofIPPFKYs+NecaGIJ6InAOQv8fHpEXoDPuHgQ9W8TnRGe/SZ+RAi0zJUu8a6N1/CkW1i9vdPu+EuJIy8Tkgtor6QAePBJAkl3wtY8XEoB3z1l2ADblBe6+8kHVinIYClJ/iGBcDuNYC9CfNUDN5gkx5tbb47Zhl07LaCG9vRroBEFppEQgAAicmWvgYD3wUVb/4BLSMw7LlXMPG9z1W9+ecuW4SdCwS8CwaQNpVu/q4ouN9YhI+6RUyxbSuAvb+IqXUpvgFgg6eBTXserE3alT/rHwR2/aNAeAzAMAR2nmues+t29cIRd0YbARHJZLY8wYCnoNIrIabTocOEqeh+y53C3/P/3ZkDBfj6tuvQUFenuFbCiElIu/FuAam05Y4bATVVyaKPUbF2kfJCBiPYjc8C4aq9FfsLP7gH+P1n4Mi+xqOIGQOCIwFLd7BOgwGv/z3WmoH/IOntd+yb2tGBexITV0cNgAdLTMxsKensXwF8gFrXiM5ojwH/eBJhiWa1LvGX+qoL+Ormiag4dlhxrege/dH+3qfdYp2/JzcAnNtx8rNXULljg/JiIVFg02YDxv+9AauF11aBGYxNPayonDE2I/+mduK2uiRuzfV/uhFZzGZLT0ln26nWzd87MAgDH52Nie997pCbPwCseP4pITf/0PQstLvnCbe4+Xs6xiRETbkPvkmZyouVnwSWf6S8TjMwb7/mnFQYwjn/1vzpznlxn+4MUjMXcQ/0E84Dmc2WuzmwBoCgRc7/V3L/wZj29Q/IGD4WTOTs6SvYOf8rFKxbobhOQJtEdHzoeUh6sasSiHaY3oBWtz4BY1QbxbX4vq3AduV/zlSWbQR+T/pkdxetgxDnRg2AB4mLi/NOSkr7mANvARB+h/MLCcWIf/0Hw2a/Ap+gYNHlL6vsYBF+efc1xXW8Q8PR+dGXYfD1E5CKOBPJxxexd86GPril4lp89Vyg5IiAVKpKZJL916Q5Ox/HM5x+zpNLoj8YHiIlJSXO4OW/EYypsodt2uARuPGrJUjqM1CN8pfVUFeHpU8/iIZ6ZZP+DL5+6PLEf+ATpvwGQZyTPjAUMdOfhuStcCKqzQosfq/5a/cdjUPPOP5pbr1rleXT3yK1jkOcDzUAHsBstvS02XW/gfMOomv7h7fEmJffxeAnX4B3C8efirf+nVdQdrBIWRHG0PaeJxAQGyckE3FeXlFtEDXlPsUb+/AzR8HXCjh7wBEY+lph2GWes6O/1lGIc6EGwM2ZzZZJHFgJIFx0bVPv/rjhs4WI795LdOkmObT1V+xZ+I3iOknjbkBkp2sEJCKuwD+zG0IGZCsvtH0lULRTeR3HiADYT8mf7noYnNPqLwKAlgG6M8lstvyLA4+ILmzw8UWfWY8gY/hY0aWbrOZcBT6bPArVFeWK6oS37YLOj7/s1jP+PXkZ4OVwux3H338KVfuVbRnM/AKB214EfASeF6C+ZfXAlOJp7c/+/RfMZktbO2MZEue+AD/a0OCz6eDB7ee0CEnU574/9TxYdHSWb5LZskCNm39kWgamzlmg6c0fANa89rzim79PeBQ6zHrKrW/+5NKYJCHqxocUTwrkVeeAlV8ISuUww4zAVtMnO/7adtCUnDYqyWzJ48AuxvkXHPiAgy3X6WtPms2WdxISshz/fo+ojn7yuRmTqX24n3/dagBjRNZlkoQuN96OSe99gaCY1iJLN9uBDauRv+pHRTV0RiM6PvQvGALo55qn0vm1QKtbH2vcaEcBnrsRvHC7oFQOY5YY22L+bNcYs9nyAuPsewCpl/icDwfu1Olrd5lMlqvsU0xcDTUAbiQ5OTOeSfW/ALyryLo+gcEY/cq76HH7TEh6bc+Pqj13Fqtefk5xnfRbH0BgvGM2KCLOyzvWhMjrZiquw378BKgVc+y0AwXw31d918QnhXGShF8TU9K7q56KOAw1AG7CbLZ0snPbFgDJIutGZ7TH1M++Q3wXee+RRVv7xr9RVX5GUY3YfsMQ22+YoETE1bXo2ActuiibIM+rzgErXOxVQO0FYM3XTZ4HxoFgyc5XmFIsg9SMRRyHGgA3kJhsGcyBtQCELWJnjKHj9Tdh4jtz4B/uHGvji3/biH0/K5uY5hsRDcs0Okad/F8R4+6AISRCUQ2euxE4uFdQIgfI2QRYm71/hh+zY4nZbJmkRiTiWNQAuDhTclq2xLEYgLDt67wCAjDihTfQ664HwXSqHBDYbA11dVjzyj8V1WCShPb3PAm9yicSEtcjefsiaur9iieE8hVznH+DoD8dy5c70siBr8xmi+sflenhqAFwYSZz+lTG2dcAlM1iukhQTGtc9/5XMF3TT1RJIbbMeR9njx9VVMM0ZgqCUzIEJSLuxifRgpD+45QVqTgNbF4iJpDKeI2iOQsSB94ymy3/FpWHOB41AC7KbLbcz8A/AyBsVl5c12sw+aNvERKXIKqkEGWHDmD73DmKagQmJMM8QZVdkIkbCR06Gd4xiYpq8M1LgbKTghKpyEv5kzAOPJyUZHkXdC9xSfSb5oLM5vRnOPAqBG7k1PH6mzD6pXfgFRAgqqQQnHOsfuU52KzyH6vqjEa0n/kUmE7bFQzE+TGdHpE3PABJydJAmxX4+VOAc3HBVMCi4gUVwoykZMsXQLZzvC8kTUYNgItJSrb8k4M/Laqe3uiFwU++gF53PQhJ53x/HPavXIZju35XVCN16l3wj1F+FCzxDF6RrRE2cpqiGvxwHrB/q6BEKknrAUiC7tkc15vNeZ+C7ikuhX6zXIjZbHkBHI+LqucTGIzxb36CtMEjRJUUylpbg1/f+4+iGmHpHRA3WNtdC4nrCe41HL4mZfNF+Nq5gIInV6oLDAXrMlRYOQ5MTUpO/wh0X3EZ9BvlIpKS014WubVvUExrXPfhV4jOaCuqpHDbvvgYlSWnZY+XDEZk3P6g4pPfiAdiDBET7wLTG+TXOFcGvvUHcZnU0DsbSO4krh7n00xmy/ugc2ZcAjUALsBkTn8FnD0oql50Rltc98FXmm/peyXnT53A73M/VVTDNGYK/KKd95+RODdjRIzyVQFblgLny8QEUgOTwEbfDWbpIa4kcJvZbHkb1AQ4PWoAnFxSsuU5Bv6AqHqJvfpj3OsfwycoWFRJVWx4+1U01DV7k5K/+EXGInH0ZIGJiCcKHTQRxogY+QWs9eBrlR9ZrSpJB4yYDoh9HXBnUnLa68IKElVQA+DETGbLI+B4QlS99tmTMfJf/4HB21tUSVWcyNmFgrU/yy/AGDKnPwid0UtcKOKRmN6AiPHTlRXZtwU4USQmkFoYA+t3PVjvCeJemXE202S2vCqmGFEDNQBOKikpfSYDXhBVr9vNd6LvrEdd4ujbX955TdH4mF7XIjQ9S1Aa4ul8k9uhRcc+8gtwDqz9VlgeVXUfCTZoGiCJaQIYcL/ZbBH2c4yI5fx3Aw9kSk6/BYwLeXzGGEPvmQ+h2y13iiinugO/rsPxPTtkjzf4t0DqDbRDKRErfMxtkHzl75HBj+wDDuwSmEhF7fuBjZoJ6BRMgLwIBx5JSkoXNoeJiEMNgJMxJaeNYpx/AAETaCSdhAGPPIusiTcISKY+u82OXz9Q1vekTZ0Br0Dnnt9AXI8+IBAtR96kqAZf9y3A7WICqS2lE9jEBwGjj5h6jL9kNltc4weRB6EGwImYzWnXMM7mAlC8O4fOYMDQZ19GxnDXWQO/76fFKDso/11pYEIyYvrSMb9EHS26DVS2TXDJUfDczeICqa2NBWzyY2DeQs4ZYxz4OCkpnf6COhFqAJxESkpGBgdbAkBxy60zGDHy+Tdg7us6x3bbrPXY9PE7imqk3nCXS8xxIK6JMQnhoxWeJ7FhAWBrEBPIESLjgUkPA15CngToIfF5iSnp3UUUI8rRT0snkJKSEmez238CEKS0ls5gwIh//Qfx3XsJSOY4e39YiMrTp2SPj+jYA2HpHQQmIuR/+Zrbwj9dwcY550qBPevFBXKEqASwCQ+LeR3A4SvZ+Q9mc0aK8mJEKWoANGYymVo02HVLAEQrraUzGDDsuVeR0KO3gGSOY7PWY9sX/5U9nkkSUiYrXKpFSBOFj7oFUPCkiW9e4lpPAQAgxgRMekjUnIAQDvvyxMTMliKKEfmoAdBQVlaWgUleCxig+JD6P2/+pmv6iYjmUDlLvlO05W+bgaMQECvoZDNCrsIYEYOgbgper50rc72nAABYqySwif8ADEL2EYlnOttCk8lEm3VoiBoADZ0/X/MmgIFK60h6PYbPfsUlb/42az1++/Ij2eP1Pr5IylZ2chshzRU6dAokb1/Z4/mmJY3HBruaGHPj6gCD8vs2A3pIkvFz0JbBmqEGQCOmZMvDYEzxc2tJJ2HoMy8isVd/EbEcTum3f9OYqfAKChGYiJCr0wcEKjsn4HwZ+O5fxAVypNgUsLGzACUHJf2Bg00wm9OFHW9OmocaAA2YzZZJjON5pXUYY+j/4FMuNdv/YvaGBmz7+hPZ433CWiJ++ESBiQhpuuC+o6EPCpVfYMsPrrMvwN8lZICNvgdgym8hHPwp2iNAG9QAOFhiSnp3DnwGAf/ue06fhYyR4wWk0sb+Fctw/tRJ2eOTxt8EndEoMBEhTScZvRA6aJL8AudKwfNcaF+Av0vqADb0FhFnBzAOfGQ2W3qKiEWajhoAB7JYLCGSnX8JQPFdq332ZHSacouAVNrgnGObguN+fcIjENNniMBEhDRfUNdroQ9WMJl989LGswJcVWZvsN7ZIioZOPA1rQxwLGoAHCZbV1+PrwEonq6eNmQk+tz7iIBM2jn4yxpFu/6ZxkyFJOAdJCGK6HQIGahgLkDpUeDAbnF5tNBtJFinwSIqxTKdbaHFYqHHeg5CDYCDmMz7XgSDkJf11poaXCgtEVFKM0rf/cf2FXd2OSFKBHW9VtFcAL5lqcA0jsfPnwHOlgqpxYAe9fV4SUgxclXUADhAUpLlOgb+gKh6hetWYs71I7Dtq09gb3CxDUUAHNv1O07slf+tJ3HMVEgG+pJAnAPTGxA6QMFj8KP7gWPyn4ZpxmYFNi4GPnwIvHC7uLoM95rM6VPFFSSXQw2AypKT0zMhQf5C98uw1lTjl3dfw+c3jsXR7VtFl1fV9m+/kD3WOyQMrfvReSLEuQR2uxb6QAUrArb9KC6MA/BDe4D/Pgq+YT5grRden4F/kJRkaSe8MPk/qAFQkcVi8bdzPg8c8ncMuYry4oOYP/MWLH38fpw7cUytywhz7sQxHNq4VvZ40+gp9O2fOB1mMCJkgPy5ADx/W+MOgc6u/CSw4DXgm5fAK+Sf3dEEPgDmmUymFmpexNNRA6AiqxXvAkh2xLUK1q3Ap9cNx9rXX0DdhQuOuKQsO+d/BbtN3tpn76AQxA4YKTgRIWIEdR8s/ykAtwM7VooNJBCvrQLWfgv+0WPghTscc1GGJEnyFv70lPx/1ACoxGy23MYBh77Hsjc0YOf8r/DJxCHYvWgeuM3myMtfVX11FXKXL5I9PmH0ZFr3T5wWMxgR0neU/AK71gLWOnGBRLDbgG0rgPceAN/yg8O3L+bg2Saz5U6HXtSDUAOggsTU1HTO8LpW1685W4HVr8zGnCmjULD2Z3AnWWecu/x72U8n9L5+aN1vuOBEhIgV2GMIJB95b/x4bRX43o2CE8nEOfj+rcCHD4Ov+hyo1e6pIgNeS0zJyNIsgBujBkCw6OgsX8kmzVfzvX9TVRwpxtInHsDXt07C4d+03XGMc46dC+bKHt+6/wjoff0EJiJEPMnLB4FdFJzvtf0n7TcGOrAL/JPHgUVvqf2ev6m8JJt9rsVi8dc6iLuhBkAwv4C61wCkaJ3jYqf35+K7+27D/Jm34ETOLk0yHN2+FWePFssayyQJ8UMVbLZCiAMF9x4JJsn80XrmBHA0X2ygpjqyH/zLf4LPewUoOaJNhsthSLJatXuq6q6oARDIbE4bAs5v1zrH5RzdvhXf3DEF30yfiqM7fnPotfcsmid7bFSXPvAJjxKYhhD1GEIj4JfRVfZ4vnO1wDRNcKwApKGr3QAAIABJREFUfP6r4F/9s3FPAifFgVtMyWkTtM7hTqgBECTOYonkYJ9B6dnWkvpHY5/YuxPz77kZC2bdhuN71J/RW1V+BkW/rpE9Pm6Y6x54RDxTSB8FkwHzfweqK8WFuQx+ZB/w1b/Av5gNFO1U/XpMp1Neg7N3zea2rQTEIaAGQBRmtOJTAOGKqmT2Brv5eSDGLCbVVRzZthnfzrgB8++ehuItv6g2WTB36SLZOxYGmlIRkpIpOBEh6vJJtMA71iRvsM0K7NkgNtCfOAcKd4B/8Vzjzf/IPnWu8zfRGW0x5ZN5aDtG8fHdoRwNQk5TJYDylozAlJw+A8C9ioqEtQIbdx8QEAKW2QtoEQYcKwAaxO+y9XfnT53AvhXLULR+NYy+fgiNS5D/DvNvuN2On//5OOouyPtGkzb1LrRokygki6cqmCfv3IWwIdcLTuJZJC9vXNi9Sd7gc6VgWdeKOGq3ka0ByPkV/If3gN9XAOcds+mQd4tA9J31KPrd9zj8QsPRumNXHNy4HtXliq6fEBoSXlZeXurY95huiBoAhVJSUuI4ZwsBeMkuYjCCTXoECAhu/N+MgUXGgbXt3fgo0EETcqorylC0fhVyf1oCgCM0LhF6hevuD2/bhF0LvpY11jskDG1nPCysGfFU1ABowxgRg3NbVsJeV9P8wbVVYLHJQJCy03F5bRXY7yvBl7wL5PzqkFcLAMAYg2XoaIx+8W20apsF9kcjI+n0aJ3VBbnLv4e9QcGeAoz1CgmO+La8vKRCUGSPRA2AMiw4JGIBlM76H3wzWMIlHnMbvMDMWWBxFqDkKHDhrKLLNFX9hUoc3roRuxfOxYWyUgS1ioVPYJCsWhs/eBNlh+QddGIaMxWhlvayxpL/jxoAbTBJArfWo7pwj7wC3A6W3Ene2DMnGvfpX/ohcGAXUC+jCZGppTkVw597Be2zp8Dg7fM/v+4TGISAlpEo2qBosqORMdauvKzkcwDOsdGJC6IGQIGkpLQ7wNhMJTWYpQdY76tMcmsRBtauT+NrgRMHHLZbmM1qxam8vdi9cC5O5eyBT2AgAqNj/+rmr6aushIrX3wGdhk7EjKdHu1mPgn9JX6AkOahBkA7Xi2jUb5usby1/WdPgWUNAvSGpn2e2xvX8K/4DFjzNXDyUONOfg7iFxKKvvc+gv4PPokWUVeepxduSsb5UydQWqho1UGb0JCI8vLyEtc6Dc2J6LUO4KriU1PbwMZeVlQkJAoYfFPTPsukxlcCKZ3BN30PbPu58b2eA3DOcWjrrzi09Ve0iGyFjJHjkD5sNPzCrvx4Mn/1j2iol9estMzqDu+gEFljCXEWuhYh8E/rhAs5Mu5RViuwbwvQru+VP1dZAb57HbBnnSYHCukMBrTPnoyuN02H0a/pe/X0e+BxnMzbg/Lig/IvzvjzJlP6sqKinAPyi3guegIgU1hIxFwGWGQXkHRgE/8BBDZz4YDeABafAZbWDbhQAZSdlB1BjroLlTi6fSt2zP8SJQX74eXn1/hU4BLLF9e+/jwqS07Luk7a1LvgHx2rNC4BPQHQmuTljcrt8mb1s5oLQNs+//sLdg4c2A2s+Rp8xafA4TxAzlwDBRhjSOozACNeeAMpA4Y2+5wOnd6AmHZZyFm6CFz+kwojY0gtLyuVf8a4B6MnADKYzZZJHBiiqEjPMUBkvPzxwRFgY+4FTh4E1n4DfjhPUZzm4jYbDmxYjQMbVsMvrCXMfQfCMnQ0WppTAQAVR4txMkfeu0/voBC07NBFZFxCNOOf1hH6wFA0yPh2zo8XgpWdBEL/2AjrzAlg3xbwPRuA82cEJ2266Iy2uGbG/WjVVtkW/WGJZnS/9S788t5/lJQZmJRkub6wMFfebGMPpv6uM24mLq5dkNFo3ceBSNlFIuPBbnoWYAJntxftajyu88xRcTVliEhOQ9qQUSg/Wozd38nb+980dipSrr9DcDLPtXR8T1njkt9cKjiJ5yr94XOUr5S5G2bWQLDgKCBnA/ipYqG5missIQk9p89CQo/ewmrabXbMu2sqTuzdraTM6TovKfXI3r20KqAZ6AlAMxm8Gv7NuYKbv94ANmK62Js/AJjaAYmZYDkbwX9dBJwtEVu/iU7n5+F0voKnEYwhlk79I24msOtAlK+aL28y4PaVmk9zD4yOQbdpM5A6eITwZbmSTsKgx/+FL28aD2ttrdwyEcY6+4sAnHYrdmdEC6ybITnZ0gOc36akBuudDYSptJMlk4CMa8DueBkYdhsQpGxjQi2EWdrDL5J2+iTuxRgeBd/EdK1jNFtgVCsMfHQ2ps1dirSho1TbkyM4Ng49p9+nqAYDbklOtvQQFMkjUAPQZNk6O8c7UPLvLMYMdFQ2daBJJB1YZm+wO14BGz4dCI5Q/5qCxPanb//EPQV2H6R1hCZrERmFPrMewU1zf0DG8LGQ9Oo/LG43/nq06dJdSQnJzvE2kE2T25uIGoAmMpnz7gDQVnYBg1fjo38HHPbzF0kHZPQEu/0lsKG3Ni47dGJGvwBEdumjdQxCVOHftjt0Ps59pH1wTBsMfPgZTPtmOTpkT4HOoGwn0OZgjGHgQ0/D6OunpEy7pKTcW0VlcnfUKTVBSkpKKOfSQgC+cmuwPhMb39NrgUlAZBxY1gCgZSxQUeKwXQWbQ+/rB1t9HSS9Ht4hYWCi50l4KFoGqDG7DTWH9uP81lWoO34Adpl7Y6gpIjkNfe97BP0feAIRKRZIAk7uk8PLvwW8Alrg0CYFhyEx1tU/OvKjcyUlsicUeAqaBNgENpvuOTCEyi7QMhbo5ASP/5gEltwZSO4MHMsH37y0cZtQlU4BbK66cxUoXDAHhQvmQOfljeDkDIRlZiEssxOCEpK1jkdIk1nPnEJ1/i5U5e9CdcFO2KqrtI50SdEZ7dFpyi1I6NG7yTt8qi1zVDb2/bxEyaqAMK962zNQekCbB3CO33EnZjZb2nJgO+Q+LZEY2A3PAlEJYoOJcvow+O8rgLxNgJLDOVTmF9kKYZkdEd62C0IzsmBQ9pjQo9AyQPXZa6pRXbgbVft2oCp/J6xnTmkd6bJ0BiNSBg5FhwlTEJ6k7BgTtZQW7seXt0wEl7GN+B8auJ23KyrKyxWZy93QE4Cr+w+UvCrpMNB5b/4AENEGbNhtQJ+JwK414DtWOeXrgapTx1F16jgOr1gMJukQZEpBcGomQlLbIjQ5A4aAQK0jEg9iqzqPmkP7UF2Ui5qDuag9UgjY7VrHuiK/0HC0HTsRmaMmwDfYubfZDk9KQftx12PHPNkb/OkhsZcBDBUYy+3QE4ArSEpKHwbG5X8NCggGu+0lwMuFDrSxNQD7f2tce3y8UOs0TcMYAmLiEPJHQxCS2g4+VzmnwJPQEwDlrBVnUHNgL2oO5KHmYB7qTh1xmldnVxOd0RZtx1wHc79B0BmaeLCQE6ivrsJnk0fK3k4cACSG/vn5uWsExnIr1ABcVrYuyZy3Gwr2+2dj7gVSZB7n6QT4maPAzrWN54jXVmsdp1l8wiMRmpqJ4JRMBCWloUXrBDCdZz7wogagmWw21J4sRu3hAtQcyEX1gTw0VGizsZZcXv7+SB08EpmjshGWkKR1HNkK163ED4/L3x+AAdsLCnI7gY4MviRqAC7DbLbcyoH/yi6Q2A5swoMCE2nIagX2bwF2rnGdpwJ/IxmMaNHGhKDEZAQmpiAoMQX+sXFgkvsvhKEG4ArsNtSdOoraI4WoO1KEmqOFqDt+CNyJ58NcSVR6W2SOHA9z/yEweHtrHUeIhQ/MQPGWX+QX4Li+sDBX3r7kbo4agEvIzMz0q6m1FQCIllVA0oHd+u//f4CHOyk7CZ7zC5C7UZOjR0XSeXkhMC4JgaYUBCakIDDeDL/oWEhNPX/dRVAD0IjbGlB/+hjqjh1svNEfabzZO+OyvOYIaBmB1EEjkDZ4JELinHi+kUzlhw/h8xvGwN4g+/jzg0YDUnNzc+tF5nIHnvlM9CpqauyzwGTe/AEgq7973vwBIDQKrPcEoNd44Mg+8L2/Avu3AVbXW3Jrq6tDeX4OyvNz/vr/mE4Pv6hWaBGbCP/YOPjHxiEgJgH+0TEe+wrB5dhsqCs9jvpTR1B/8gjqTh5G3akjqC857vQT9ZrK4O2DpD4DkDpoJFp37KLaFr3OIKRNPDJHT8CuBbIP+0uwWnE7gLcFxnIL9ATgb/447e8gB4JlFfD2B5vxCuDt3Dt+icRPFQOfPqF1DFVJegP8omMREBuPgNgE+EXFwC8iGr4R0U6/AsFdnwDYqs7DWnYa1jOnUF96AnUni1F/svFGz22yvy26hEnvf4HojPZax3CY2nNn8fHEIairrJRb4kRNdQvTsWOba0TmcnX0leZvDAbr/bJv/gDYNWM96uYPACjOufpnXJy9wYrKIwdReeQggNX/59d0RiO8gsPgG9EKvhHR8I2I+uM/WyEgJh46o+O2U3UrNhusFaWwlp1qvMn/8Z/WslOwlp102s11HOHI9q0e1QB4Bwah6413YP3br8gtEe3te346Gpd1kz9QA3CRlJSUUJtdwe5RoVFAh/4CE7mIA7u0TqApW309qk+fQPXpE5f8daNfALxCQuEVHA7v4BB4B4f/8b9D4R0cBu/gMPiEtfSoVwy2mgtoOFsG2/kKNJwrR8P5cjScK0PDuYrG/36+HNbyErd5ZC/aoU0b0PWm6VrHcKh24ydjz/fzUXHssKzxDHjUYrH8Nzc394LgaC7Lc37iNIHdrvsHgBZyx7P+kxsP4PEktdXA0QKtUzi1+qpK1FdVovJo8WU/wyQJxhZBMPj5w+AXAL1fAIz+ATD4+sPgHwCDXwAM/i1g8PWH3j8Ael8/6AxG6IxekAxGSF5e0OkN0HmpO/Ob19fCbmsAr68Dt1pht9aBN1hhr62GvfoCGmougFdfgK2mCvaqC7DVVsFWfQH26guw1VyAveYCbJXnwTnd2JU4tS8H1RXlTr+hj0g6gwE9Z9yHHx6fJbdEeH09mwHgZYGxXJqnzwGQUlJSWtts+iTOeBIDXgIgb49ZSQe0ThWbzhXUVgGnDmmdglyE6fQwePsAOh30Pr6XfTJxNYawSNhrqwGbHbb6GkD+tqxEBRHJafBq4dzzT9RwbMdW2G2yG8hScP6kXWIFejTk5+fny/vL4SY8qgEwmzMSAHtPO3AN46wrGE8C4KV1LkIIIZqoZEABgK12xtfxBv36Awf2uNauTwq4dQOQlZVlOFdV20+yI5sDQyB3XT8hhBBPkQew1Qz2+QUFeb/CjXcRdMsGIDHZ0lcCmwrORwHwnJdkhBBCxGE4Aju+YQxfFxTkyj6f2Fm5TQNgMpm8JMlrIgceAJCpdR5CCCFuZScDXo+ODv963bp1brHRhMs3AMnJyQGcGx7g4HcDCNU6DyGEEDfGUQjwV63W6s+Ki4tdbwvUi7hsA5CVlWWorKydBuBZDkRqnYcQQohHOc6A2QUFuR8BcMl1rS7ZAJjN6WM4+GsA4rTOQgghxIMxbGYcswoKcn/TOkpzuVQDEB+fHqHX87fBMF7rLIQQQsgfOAM+Yazhvvz8fNkHFjiayzQApuT0KYzz10Hv+QkhhDinQxLD1Pz83I1aB2kKp28A4uLivPVGv7cYcKvWWQghhJCrsIPxt4169o/c3Nx6rcNciVM3AAkJltY6PRYA6KR1FkIIIaSpGLDJZtONceadBZ22ATCbUwcA0jwlR/MSQgghGiqSmG54fv6efK2DXIqkdYBLMSWnjeKQfqCbPyGEEBdm4ty2OTnZ0k/rIJfidE8AzGbLrRx4H4BDztVljCE6OgaxrWLRKiYWrWJaI8A/AD6+vvD18YXeg85oJ4QQd1JfX4+a2hpUXajE+crzOHb8KI4ePYzDhw+hvLzMoVE4Q3ZRfu4SR170apyqATAlW2Yxjtegci6TKRmdO3dFu7ZZyMhoi6BAetBACCGepLy8DDt2bMPvO37D9u2/4dixI2pfsh6cjS0szFmm9oWaymkaALPZciMHPoVKmeLiEjBw4BAM6DcIrVvHqXEJQgghLqqwKB8//vgDVqz8EWVlpWpdpo6BjykoyPtRrQs0h1M0ACaTZQSTsBCA0OftjDF07dwdEyfegM6du4Ixp/jHJYQQ4qRsNjs2blqPz7/4GLm5e9S4RC24fVBh4b4NahRvDs3viIkp6d0lO18FwEdk3e7dr8GdM2YhMSFJZFlCCCEeYtu2Lfj0sw+xc+fvokuX6iRb5/379xeLLtwcmjYAcRZLpMGKHQCiRNU0JZox854H0alTV1ElCSGEeLBVa37Gm2++jNJScUv6ObBXxxp6aLl1sENm2l9Knz599FVnqxeDIUNEPb1ej2nT7sCzT/8bMTGtRZQkhBBCkBBvwqiR42Ctr0fevhxwzhXXZEAEIKWVlZXOA6C8oAyaNQBGo9/zYJgiolZ8fCJee+UdXDtwKCTJKbc2IIQQ4sIMBiO6dOmBdEtbbP1tE2pra0SUTQkJbXmuvKx0i4hizaXJK4DkZEs/O8cqEde/pmcfPPP0C/D19ROQjBBCCLmyM2dK8PQzj2CHmLkBteCsQ2Fhzj4RxZrD4U8AoqOzfA3GhmUQcKrfhOzr8cTjz8Fo9BKQjBBCCLk6X18/DB40HKUlp1FQuF9pOT0k1i0+LvbTkydP2kXkayqHNwCR0cHPA2y4khqMMcya9TBuveVOWtpHCCHE4SRJQs+efVBdXY2cnN1Ky0XV1jc0lJeVrheRrakc2gAkpmRkMY6PoeAMAsYY7p/1CCZkXy8wGSGEENI8jDF06dIdDFD8OoAB3QJbhn159syZc2LSXZ1DG4Cw4PCvwZCgpMbMmf/AxAmTRUUihBBCFOnQoRPOnqvAvn05SsroJbCW5WWlC0XluhqHNQCJyZbBDHhCSY2Rw8dgxvR7RUUihBBChOjapQeOHD6Ig4cOKCmTHhwesbLiTMlRUbmuxFFr5piO459KCnTu3BUPPfSUqDyEEEKIMJIk4ckn/4WkpBQlZZhk5y+KynTVizniIklJlnFgWCB3fGhoOL78YgGd2kcIIcSpHT12GDdNm4Tq6irZNewM/Q7k564VGOuSHPMEQMIDcocyxvD447Pp5k8IIcTpxca0waMPP62ohsRxv6A4V76O2hdITMnIAkc3uePHjpmAbl16iIxECCGEqGbAgMHo06e/khJDk5Mzk0XluRzVGwBmt8+UOzYoKBjT76BJf4QQQlzLrJkPw8fHV+5wyW5vmCUyzyUvomZxs9kcxoAJcsffdutd8Pf3FxmJEEIIUV1ERCRumTZdfgHGpmZmZqq6x73KTwAMYwF4yxmZkNB4+hIhhBDiiiZMmIyIiEi5w/1qa20jROb5O1UbAA6Mlzv2xqm3QqfT7LBCQgghRBGDwYDrr7tJ9niu4Al6U6jWAMTFtQsC0FvO2JYtI9Cv37WCExFCCCGONXrUOISGhssdPiQhIStQZJ6LqdYAGI3WUQCMcsZOmjgVer1ecCJCCCHEsYxGL4wdK/uLvLdOVztMZJ6LqdYAcGCQnHF6vR5Dh4wUHYcQQgjRxJDBIyBJ8m63jKGf4Dh/UW8OAIOsxfudO3dDYGCQ6DSEEEKIJqIio9G2bQdZYzlHL8Fx/qJKA2AyZcaAo7WcsQP6DxEdhxBCCNHU4MEyJ/QzJKWmpkaJTdNIlQZAkuyyvv3rdBJ69pA1b5AQQghxWj269QRj8o7fsdrZNYLjAABUmWlnB+8s5x/TZEpBQECA8DzurLq6Cj/+tBSbt/yCkydPwGj0Qnx8Avr0HoBrevaR/QfO3dXX1+GnFcuxZfMvOH7iOHQ6HVrHtkGf3gPQq1df2e/r5CgrP4Ply5dgx/bfUHqmFDW1NQ67dnP4+fnDx9sHLQJboHXrOLRpHY+2me3Rpk281tGuaH9+Hlb8vAx5+/NQV1uDgBYtkJnZHsOGjkJUZLTW8ZrEbrfj11/XYd36VTh2/Cjq6uoRFRWFbl16YtCg4fD2lrXdCnGg0NBwtGkTj+Lig80fzFkXAPNEZ1Ll7pCUbFkCjmY/75g0YQruvfchNSK5pQ0b1uDFl59DeXnZJX89JcWCf85+Ca1axTo4mXPbvmMbnp39KEpLSy756yZTMmY/82/ExyeqnmX+gq/x7ntvoNZJb/pNERbWEn37DMCQwcORmpqudZy/1NRU4+VX/omffl4Gzvn//LrBYMS0m27HjTfc6tCGr7mOHjuMJ596GPn5eZf89bCwlnj88dno2rm7g5OR5nrltefx3XffyBm6tLAgV/imQKrstBMa2vIJAM1e+Dj5+mmIi0tQIZH7+fGnpXj6mYdRXV192c+cOVOKlat+Qt8+AxAQ0MKB6ZzX5q0bcf8DM3DhwoXLfqa8vAwrVi5H9+69EBIcqlqWD//7Nt57/w00NDSodg1HqK6uQl7eXixe8h02b/kVISGhaB3bRtOnT3V1dbh31nRs3LThsp+x223YvuM3nD1bjh7dVZtnpcjRo8W47Y4bcPz40ct+prq6CqtWLUdighlxcc79NMbTVVdXY+3alXKG2svLSt8RnUeNtlcCIOsuHh9PN/+mOH78KF586VnY7farfraiohxPPfPIJb8BeZqz5yrw9NMPwWazXfWzlZWVeOLJf6h2c/7tty2Y89l/Vamtpby8vXjo4ZmYPuMmFBbla5bjgw/fwp69O5v02YWL5mHV6p9VTtR8Npsdjz3xD5w7d7ZJn332ucdw5syln2oR56DgHpcAZAv/wi68ATCZMqMhY/9/nU5CdHQr0XHc0udffIy6uromfz43dw/Wrl+lYiLX8MWXn6CysrLJny8uPogVK5arkuWjT95x66Zsz96dmHbzJHz86ftNalRFqqgox4JmPmZ96+1XUFtbq1IiedZtWIWiZjRRNTXV+OLLT1RMRJSKjWkt93WTMTk5X9bKuisR3gDodPYQOeNahkfBYJC1caBHsdvtWL9hTbPHfTv3CxXSuI6ammosWfJds8etXS/rcd0VlZaWICdnj/C6zsZms+Gjj97FrPun43zleYdd99dNG2C11jdrTEnJaXzzrXP9HVm3rvlN+7r1q1VIQkQxGr0QGSFvRR/nDTGC44hvABhrkNVGx7WJE5zEPVWcLW/SI8G/25OzC/v25aiQyDUsW7b4iu/9L+fQIRkzdq/i8OFDbv3t/++2bduCO++c5rDH04cOHZA17osvP7nshFotHD5c3OwxJSWnUV1dJT4MESYyUvaSfn+ROQAVGoD9+zMOAGj6c9Y/mJNTRUdxS/X1zftmc7Fv530lMInrsNvtmLdgrqyxzf0m2RSVF5r918PlHThYiDvvvhVnz1aofi25N8Dq6ip89PG7gtPIVynzqcm58+cEJyEi+fnJu4/bGYSvkVdhEuB8G5OxXnHgQNoBsCnCQsNhMBhkjV2zdgXKykoFJ3J+W7ZsxNGjxbLGRkaIXyfO4Tnf/i929Ggx7nvgTqd7136xJT8slLdOm5Am8vX1kzlScoUGAGhowGw04ynAkCEjkJiQpEYUt2MwGNCxY1dZY61WK75b+K3gRM7v2/ny3+126Uprq0Xavz8Xr772vNYxLstms+Htd1/TOgZxY35+chsA7hoNwMGDuUc4wxQA1qt9NjU1HQ/c96gaMdzWiOFjZI9d9P181Nc3fQWBqzt4sAjbtm2VNVankzBE7v7d5LKWLvseq1b9pHWMy9q4cQO279imdQzipryMXrKHiswBqHgaYFF+7hIG3h9A0SUvLEkYMWw03nrjQ9nvRDxVr2v6IVLmFqZnz1bg55U/Ck7kvOYt+Fr2hLte1/Rzma1iXc3rb7wka1Kmo7z19qsOX75IiKOpuv9lQUHeL4UFaSmc8dFg/M3EhKSdAwcOwfQ7ZuLbuUvw2GOz6eYvg04nIXvcdbLHz/OQyYDnzp3Fzz8vlT1+4oTJAtOQi5WVn8Enn76vdYzLys/Pw88q7QFBiLNwwAbY821F+XmLC/Pz7v3yy+8+mf3Mi7jxhlsREyN8TwOPMmLEWPj4+MoaW1SU7xGPOBcvXiB7wllychrats0SnIhcbNH381BRUa51jMt67/3XnXrCIiFKqXIaIFFfQEAAhg4ZIXtS37x5XyKrQyfBqZxHQ0MDvlskf8LjxGzn+/bfrWtPPPjAY5pd/9y5syg9U4o9e3di3brVV9yfvilqa2uxYMFc3HbbXYISilVaWoJ5877EDTfcqnUUQlRBDYALyx5/PRYumifrHffGTetx4sQxREcL31zKKaxbvxolJadljQ0NCcOAAYMEJ1LOx9tH09+v6OgYpALodU1f3Dl9Fn76aSneff8NRUtLl//0A265ZYbTnsb3+ZefYMSIsQgOlrXBKSFOzTn/1pEmadMmHl279JA11mazY/78rwUnch7z5n8pe+zoMdm0LfVVSJKEoUNHYs4ncxUdAXzq1Ans2bNDYDKxqqou4ONP3tM6BiGqoAbAxU2YOEX22CVLF6GqynlnYsu1f38u9u7dLWuswWDEmNHZghO5r7CwlnjrjQ8RH58ou8bW3zYLTCTe94sXyN5emBBnRg2Ai+vSqRvi4uQdMVldXYVly5cITqS9uQoOdRk4cDBCQ8IEpnF/fn7+eG72S9Dp5P04+X37b4ITiWWz2fDe+29oHYMQ4agBcHGMMUwYL3/C2vwFX7vVeuczZ0qwZs0K2eOdcfKfK0hMSMKwoaNljS0qynf6P4O//LoOO3f+rnUMQoSiBsANDBkyAoGBQbLGHjt2BJs2/SI4kXYWfPcNGhoaZI1t374jzGY6lEouua9OamtrZU/YdKTX33zZ6RsVQpqDGgA34O3trWh74G8VTJhzJnV1dVi85DvZ45U8SSGNeyeEhobLGnv69AnBacQrKNiHlas8ZxdN4v6oAXAT48ZOgk6nkzX299+3ouhAgeBEjvfzimWyj5uNjIzGNdf0FZzIszDGZG/wVVVVLTiNOt59jzYHIu6DGgA3ERkRmGtZAAAgAElEQVQZhT69+sse7w5LApVscTxh/HWyJ7GR/y88NFTWuOrqKsFJ1FFSchrzF7j+3xVCAGoA3MqEifIfYf+8YhnOnpP37dkZ/P77Vhw4WChrrI+PL4YPHys4kWeS9PL2FnOld+tzPvsvysvLtI5BiGLUALiRzIz2sjdlqaurw+LF8t+fa03JPIZhw0YhIED4UdvETVVXV2HOZ//VOgYhilED4Gayx18ve6ySGfRaUrKSgTGG8WMnCU5E3N3CRd+iuPig1jEIUYQaADczcMBghIe3lDX2zJkSrF27UnAi9SnZy6Bbt55o0yZecCLi7mw2G97/8E2tYxCiCDUAbkav12PUqPGyx3/9zecC06ivuroKy3+Uv5vhxOypAtMQT7J+/Rpsd/JdDAm5EmoA3NC4MRNhNHrJGrt/fy5yc/cITqSeJUsX4cIFeecZxMcnolOnLoITEU/y7vtvyDqNkxBnQA2AGwoKCsa1A4fIHv/tfPnL6RzJbrdjwYK5ssdPzJ4MxpjARMTT5OXtxapVP2kdgxBZqAFwU5MmTZV9c1uzZoVLbM3668b1OH78qKyxLQJaYNCgYYITEU/03vtvor6+TusYhDQbNQBuKjEhCe3aZckaa7PZsHDRt4ITiTdvnvylf6NHZ8Pb20dgGuKpTp46jvnz5T+JIkQr1AC4sYnZU2SPXfT9fKfe8vTAwULskHk6m06nw9gxEwUnIp7ssy/+69IbaRHPRA2AG+vZsw+io1rJGnv+/DmsWLlccCJx5n37pezJV31790dERKTgRMTVxcUlyB5bWVmJOZ9+KDANIepTvQFITMnIMpst7ySZLbv6D+jy3OSpY/H880/R2doOoNNJGD/+Otnj5837yilnOJ89W4GfFTQn2RPlPxkhVyZ3PwZnmIw5dswEREXKa5gBYOH383Ds2BGBiQhRl2oNgMViMSaZLR9Idvs2DtwJoG11dU3QwYNF+GHZ97jz7pvx6OP3ucwhIK5qxPCx8PX1kzX2wMFCp1zn/P3iBairkzfpKjU1HZnp7QQnIn+qqCiXNc7Hx1dwkuYzGoyYMX2m7PFWqxXvvve6wESEqEutBkCqr8d8ALcDuGxrv27datx733SaQasif39/DB06UvZ4JXvsq6GhoQHfLZQ/QXHiBPkHJpGrO3H8uKxxfn7ymlTRBgwYLPs8DQBYu24V9uzdKTARIepRpQFISk6/BwxNuuvk5OzGhx+9o0YM8ocJ2ddDkuT9Vm/a9ItTPdZcs2YFzpwpkTU2LKwl+vW9VnAi8qfi4oM4eUpeAxAWHi44jTyMMcy8+35FNd56+zWnfHVGyN8JbwD69OmjB+ePNWfM/Plzcb7yvOgo5A+xMW3QtWsPWWPtdrtTnX+uZJOisWMmwGAwCExDLrZs+WJZ4wwGA6KjYgSnka9du47o1auf7PE5Obuxeu0KgYkIUYfwBuDEiZJuAJp1Gk19fR22btkoOgq5iJI975cuWyx7u12R9u7djby8vbLGGo1eGDM6W3Ai8qfTp0/JbhTj4hKh0+kEJ1LmrhmzoNfrZY9/7703YLXWC0xEiHjCGwA7k8xyxh0+Wiw4CblY585dYUqU9VuD6uoq/LBskeBEzTdv3heyxw6+diiCgoIFpiF/amhowDOzH5M9MbNjVmfBiZRr3ToOoxU0jCdOHFO0TTUhjqDCHAAeIGdUtRN8w3R348fJP/d+wYK5sNnkLfESoaTkNNauXy17fDZN/lNFTU01Hn/yQezaJX9Zb6dOXQUmEueWadPh7+8ve/ycz/6L8+fPCUxEiFjiGwB++Vn/RFuDBg1HYGCQrLEnThzDxk3rBSdquu8WfgObzSZrbFaHTrKffpDL271nB267fSo2bFgju0ZQUDA6dXTOBiAoKBhTp9wie/z5yvOYM4c2ByLOi3YC9CDe3t4YNXKc7PFK9t5Xora2FouXfCd7/IQJtPGPCFVVF3DwYBG+/34+Zs66HdNn3IQDBwsV1bx24BBF79rVNnHCFERGRskev2DhN7IPrCJEbc77N+//sXff4VFU6x/Av2c2m0oSUgkhhJYChCK9dwHpqFQLdr1XFLvXcq/X3isWbCg2pPfeEZDekmzK7gYCIaEk2fS62Tm/P6L3Z6EkM2d2dpP38zw+3qs573zVJPPuzClEE1OnzMTCn79DTU1NvccePXYYFms6YmPiNUh2ZZs2rUVRUaGisZHNW2BA/yGCE+ljx66t6Degi94xhPHw8MD06conpzqDl5cXHrh/Dl56+VlF4+12O+bN+wivvvqu4GSEqEdPABqZ0NBwDB0yQvH4pUuUL8NTgnOOpcuVT6aaOu1WGAz0be6KRo8ap/isCmcaNXIM2sd3VDx+x66tSEo6KTARIWLQb8ZGaJqKUwI3bdkAmy1fYJqrO3ToAE6dsioa6+vrh/FjJwtORETw9fXDA/c/rHeMOpEkCXMeflLxeM45Pvr4HdociLgcagAaoc6du6Jjx86Kxtrt1arex9fXkmXK5x2MHzdJ1Sxuop377puNsLB6bReiq27demLgQOWvkkymROzcvU1gIkLUowagkZo+VfmyuOUrFsNutwtMc3lZ587ggMINoiRJUrXskWinX58BmDblFr1j1NvDs59QNWHx008/oM2BiEuhBqCRGj58lOJPYPn5udjhhK1OlyxdqPh42f79B6Fly9ZiAxHVIpu3wAsvvK74bAo9RUe3xsQJNyken5NzDstXLhGYiBB13O+nkAjh4eGBm26crnj8okXKd+Wri7KyUmzcuFbx+BnTXHt2eWPUNDAIH7w/z613ZLzv3tnw81P+Wunbbz6nzYGIy6AGoBGbPHkKvLy8FI1NS09BYvIJwYn+35q1K1BWpmx3yHZtY9G9ey/BiYgaISFhmDv3S0RHt9Y7iiq1mwPdrXh8cUkxFnz/tcBEhChHDUAj1jQwCKNHjlU8fulibTYGcjhkVfuoT5t2KxijDSldRevWbfHlF987ff8IrcyYfjvCw5spHr9s2c/IOa/s2GRCRKIGoJGbNv02xTfLnbu348KF84ITAXv27FT8C7JpYBBGjxonOBFR6obR4/DN1wvdYr1/XXl5eeGB+5QvYbTbqzHv848EJiJEGWoAGjk1j8sdDgdWrFwsOBGweKnyzYbUvNYg4oSHN8ML/34N/33hDfj4+OodR7gbbhivanOg7ds3a/oKjZC6oAaAYLqKvfJXr1mOyspKYVksljTFJ8upndhI1AsJCcOch5/E4p/XYsyYCXrH0YwkSZj94GOKx3PO8dmnHwpMREj9UQNAMKD/YERFRSsaW1xchE2blM/W/6vFKrYaHjZspFttLtNQGAwG9Os7EC+/+BZWLNuAmTNmwdvbW+9YmuvZsw/69x+kePzJxGPYtUv5EdeEqEWHAZHaTXOmzMSHH76laPySZQsxadIU1RPvCgps2LJ1o+LxajY3ItdmNHrCz9cPTYOCEN2yFVq1aoOuXbqjW7ce8PX10zueLmb/8zEcPLgPDoey/So+m/chBg4c4tInIpKGi77rCABgwrjJ+PrrT1FaWv+ld6dPZ+DQoQPo06efqgzLVy5WvFNa585dkZDQcE7Ku5zhQ0fitdfe0zsG+YO2bWMwYcLNWLVqqaLxWefOYMXKJZg21f12RiTuj14BEAC1h7OMGzNJ8fjFS9UtCbTb7Vi1UtkvUUDdAUeEqHG/ys2B5s//jDYHIrqgBoD8z9SptyjeovXAgb04ezZT8bW3bd+MfFueorHh4c1UHXFMiBpBQcG45ZY7FI8vLinG9z/OF5iIkLoR3wAwVqxkmC+d2qa7Fi1aYkD/wYrGcs6xZNlCxddeqmLszTfNoHeoRFe3zrwTzZpFKB6/ZMlPyM7OEpiIkGsT3gAw2WFRMi46qpXoKEQBNUsCN2xYg5KSknqPO5l4DKmpyYqu6eXlhUkTb1Y0lhBRvLy8cO89Dyoeb7fb8eXXnwpMRMi1CW8AAgJ89wOo17Nco9ETffr0Fx2FKNCjR2/EtItTNLaiohzr1q2o97gli5Uv/Rs9ejwCA5sqHk+IKGNumKj4ZwcAtm7dqLgRJkQJ4Q3A0aNH7Qz8zfqMmXLTdPol7kKmTlO+nG7pskX1WhJ1/kIOdu/ZoehajDGaPU1chsEg4aHZTygezznH3E/eF5iIkKvTZBKg2ZzwIQM21eVr28d3xP33K99Xm4h3w6ixio9sPX8hG3v27Kzz1y9fsQgOh0PRtXr27IN2bWMVjSVEC3369EO/PgMUjz9x4gh++UVZQ0xIfWm0CmCpo7q67EYA313tqwYMGIy5H33VKHYNcyeenl6YPGmK4vF13cu/srICa9fU/5XB76bT0j/igmY/9DgMBuW/Wj+d9yFqamoEJiLk8jRbBpiZmVlpMZvulCU2gAHzAaR7eXqWR0VFY9Sosfjgg8/x7tufwN/fX6sIRIWbb5queGb9iRNHYDanXvPrNmxci+ISRYtG0DKqFfr1G6hoLCFaatc2VtWeGmfPZmL16mUCExFyeZqvncpIS/4VwK8AkJfneAgcH2t9TaJeaGg4hg8fhS1bNigav3jpT/jP869e8e9zzrFExal/U6fOVLxnASFau+++2diybRMqKysUjf/6m3kAFxyKkL+g36DkimbOmKV47NatG6+6sc+Bg/tw5sxpRbX9/Jpg7JiJSqMRornQ0HDcdsudiscXFhagsKhAXCBCLoMaAHJF7eM7onPnrorG2u12rLzK/uhLFivfOnjihJtUbb1KiDPceuudCAkJ0zsGIVdEDQC5KjV77K9YsRjV1VV/++tZWZk4dOSAopqSJGHKzTMUZyLEWby9fXD/fbP1jkHIFVEDQK5q2NDrFW9xWlBgw/btW/72139e9ANkWdnxqYMGDUVkZJSisYQ427ixk2mpKnFZ1ACQqzIYDLjpxumKxy9a8udH/cUlxdi4aZ3ierT0j7gTg0HC7NmP6R2DkMuiBoBc0+TJU+Ht7aNorNmcipMnj/7v/69Zs1zxzOh2bWNx3XU9FI0lRC/9+g5Enz799I5ByN9QA0CuKcA/AKNHj1M8fvGS2uV+DoeMlSuXKK4zc+YsMMYUjydELw/NfkLV5kCEaIG+I0mdTJ96q+Kb7y97diDnfDZ2/bINOeezFdVo2jQII6+/QdFYQvQW0y4OY26gpavEtVADQOqkTZt26NWrj6KxDoeM5SsWqTr17+Ybp8PT00vxeEL09sD9Dyl+lUaIFqgBIHU2fertiscuX74IiUnHFY01Go248capiq9NiCsIDQ3HzBnKf4YIEY0aAFJn/foNRKtWbRSNrar6+34AdXX9iNG0oQppEG6/7W76XiYugxoAUmeMMUy5yfmb8EydcovTr0mIFnx8fHHv3f/QOwYhAKgBIPU0btwkp57g2LVLd3To0Mlp1yNEaxMm3EybAxGXQA0AqRcfH1+MH3ej0643bfqtTrsWIc5gMEh48J+P6h2DEGoASP1NnXqLU9Y0R0Q0x5BBwzW/DiHO1r//IPTu3VfvGKSRowaA1FvziEgMHDhU8+tMuWkmDAaD5tchRA8PzX4CkkS/gol+6LuPKKL1nvze3t4YP36yptcgRE+xMfGqdtgkRC1qAIgi3br1RPv2CZrVHztmIgIDm2pWnxBX8M8HHoG3t7feMUgjRQ0AUWzKzdosCWSM0dI/0iiEhYVj+jQ64ZLogxoAotiokWMQEhwqvG7f3v3RunVb4XUJcUWzbr9Hk58jQq6FGgCimNHoicmTpgivO3U6fSIijYevrx/uuusBvWOQRsgpDUBcXMLA2PiE/9x3/+0z3n3/daxatRQFBTZnXJpo7MabpsFoNAqrFx3dGn179xdWjxB3MHnSFMXbbBOilKYNQHx8py6xcQmHOLAHHC8nJ58csHz5Irz1ziuYdONIfPLZ+6iuVr5HPNFfSHAorh8xWli9aSqOHSbEXRkMBsx+8DG9Y5BGRrMGICam8xCZ818B9Lrc37fb7fjppwV4/IkHUVlZqVUM4gTTBE1i8vf3x9gxE4TUIsTdDBo4FN279dQ7BmlENGkAYmK6hTFJXgLA71pfe/TYYcz9+B0tYhAnaR/fEV27dFddZ+LEm+Hj4ysgESHu6dFHnqbNgRq4KoVPvRmY8E/KmnynMUPVvwGE1/XrV61ehrNnM7WIQpxE7Z79BoOEm2+aLigNIe4pNrY9Rl4/Ru8YRENlZWWKxnGgVHAUTRoABs7q9UyYc45Nm9dpEIU4y5BBwxEREal4/OBBw9E8ooXARK6LgeY4uCJXmXvywAMPw9PTS+8YRCPl5coaAEAuERoEGjQAcXGd2wAIru+41JRk0VGIExkMBky5SfnGQNOnNZ5T//ybKDtOuUlAgOAkDZO7//ttHhGp6uehiZ/zjusm9VdWpuyDvMS56z8BkKRrv/e/nEx6BeD2Jky8Cd7ePvUeFx/fEV279tAgkWtq1aqNok+bbdq00yBNw6N0E6k2rVxn86lZt9+LpoFB9R4XGhoOf39qAFzZhQvnFY5krv8EoKaGFSgZd+nSBdjt1aLjECcK8A/AuLET6z2usW2FGhYWjoSELvUaYzBIGDxomEaJGpYB/QfX+xF6q1ZtXKrBatKkCe65+x/1Hjd06AgN0hBRqqurcOGisgaAMY9zguOIbwCs1sQcAPWerSjLMnJyskXHIU426/Z74etb94dAMTHxGDVyrIaJXNN998yu11OA8eNvQmTzxjFHQq2mTYMwbWr9zpK4//6HNEqj3OTJU9E+vmOdv97Hxxe3zrxTu0BEtaxzZyHLspKh1enp8WdF59FiEqAM4JSSgRmnrYKjEGcLD2+G/77wOoxGz2t+bVhYOF575R0YDI1v2VPv3n1x5x331elr4+I64NE5T2mcqGG5/76H6vxaacqUmRg+dKTGierPw8MDr77yTp1OxZQkCc899xIiIpo7IRlR6nSmolsjAJwCljpEZgEAg+iCABASGn4DgPj6jgsLCUPfvgM1SEScqVWrNuh2XXccOXrwihNeEhK64IP35qFFi5ZOTuc6evTojcDAQBw/cRQ1NTWX/ZoRw0bhzTc+qNdTFVI7KXXk9WOQl5cLizX9sl/j6emF+++djX88MMdlVgD8VUBAIIYPH4WTJ48jPz/3sl8THByCV156B0MGD3dyOlJfK1YuQWqqggnvDPtt+bk/i86jyXd9TFyndxn4E/UdFxfXAd99u1iLSEQHNTU12Lp1I3b9sh05Odnw8PBAm9ZtMOaGiejVq6/e8VxGvi0PGzeuxbFjh5GXnwdfXz+0j2uPkSPH1HuuAPk7iyUNm7asR0qKCWVlpQgODkK363rhhtHj0axZhN7x6kSWZRw8uA9bt21E1rksVFZWIrJ5JHr36ocxYyZQg+gmZt46GZkKngJwsPes5uQnRefRpgGI7ziNcVbvO7nBIGHj+j00i5UQQkiDkp+fiwmTrgfnvN5jOcNUa7ppmehMmrx8lbhxn5JxDoeMvXt3CU5DCCGE6Gvf/r2Kbv4AuKOa7RGdB9CoATCbT2Zz4IySsVu3bxIdhxBCCNHVpk1rlQ41nz6dfFFklt9pNv2aMSh6CnD48H4UFxeJjkMIIYTo4vyFHJw4cVTRWA5o8ukf0LAB4Jwp+ihfU1OD9RtWi45DCCGE6GLjprVKH/9DArYLjvPH2tqoqfZYC0DR1n6LFv9wxWVRhBBCiLuorq7CihVLlA1mKDcaodlJeZo1AJmZJwoZsEPJ2EuXLmLHji2iIxFCCCFOtWr18ivu4XAtjLP1JpNJ+CFAv9N6C7YVSgd+/8N8OByKtkwkhBBCdGe327Hw5wWKx8tMXiouzd9p2gBIkmMFgAolYzNOWbB27XLBiQghhBDnWLzkR1y8eEHp8NLyEp/1IvP8laYNQFpaWj4YW6R0/BdffYLSUs2efhBCCCGauHjxAr759gvF4zmwICfnaLnASH+j+Sks3OH4ROnYwsICfP7lXJFxCCGEEM19OPctVFQovn/L3IGPROa5HM0bAKs19RgY9isdv2LFYhw49KvISIQQQohmtm7diF27lK/e42BrMjJMmh+P65xzWGW8p3Qo5xyvvfYCiooKRSYihBBChMvKysSbb7+sqoYE+X1Bca5Kk+OA/8pmy00LDgkfx4BIJePLy8tgtqRi1MixkKTGd3Y8IYQQ11ddXYVHH38QFy+eV1yDATvN5pRXBMa6Iqc0AAAQHNTsDGO4Xen47OxzyMvLxaCBQwWmIoQQQtSTZRkvvvgsjhw9qK6MJE0ryLukvIOoB6c1ADbbpYzQkPAhANoorZFuToV/QAA60RnphBBCXMh7H7yheht7DvyQkZ78maBI1+S0BgAAgoLCEhlj90DF3IODB39F06bB6Nihk8BkhBBCiDLzv/0cP/30rboiDOWQDTfabBeLxaS6Nqc2ADZb7oXQkHA/AAPV1Nl/YC8CA5qiY8fOgpIRQggh9cM5x8efvo/vv/9afS3gBasleYOAWHXm1AYAAHx8YvYZjVXTAQSrqbP/wF6UlBShT+/+YIwJSkcIIYRcm8PhwJtvvojlKxarL8aw32rueC+QouzIQIWc3gAUF5+rCQoNT2bALACq7tymlCRYM8wYOGAwjEajoISEEELIleXlXcLTzzyC3b8oOu/uzxjKHZJ8Q0He7jz1xerH6Q0AABTk52YGhzTzYsAgtbXOnDmNPXt3oXOnLggJCRMRjxBCCLmsgwf349HH/4HTpzOE1GPAY9b0lE1CitWTLg0AANjyh+wKDckdBBWrAn5XUGDDuvWrwBhDl87X0V4BhBBChCovL8O8eR/h/Q/fULPF758w8CVmc8q/hBRTdH0dtWnTqZmHkR+Dwg2CLic2tj0eefhJ9OjRW1RJQgghjdi2HZsxd+47yM29JLLs8bJS74FaH/hzNbrPnouJ6dyPGeRt4PAVWXfgwCF48B+Pok2bdiLLEkIIaSSOHDmIbxZ8gePHj4gufdFRg96nTpnOii5cH7o3AAAQG9tpHBhfCUDoTD7GGPr2HYhbZsxCz559RJYmhBDSADkcMn7d/wu+/2E+kpNPir8AQ7kEjEpPN+0TX7y+UVxETFyn2xn4d9AoU9u2MRg1cixGDB+FqKhoLS5BCCHETVms6di4aR22bNmA/PxcrS5TwSBPNJtTt2l1gfpwmQYAAGJjO80B4x9C41zx8R3Rq2cfXNe1Bzp37oqAgEAtL0cIIcTFFBTYcPTYYRw5ehBHjx7CuXOaP42v5BImW9NMm7W+UF25VAMAALGxHe8CY1/BSSsUJElCi8iWiIpqiaioaLSIaokA/0B4eXvB38/fGREIIYRooEZ2oLy8DGUlJSgpKUFW9llknc3EmTOZyLc5ddl9FQO/0WxO2ejMi16LyzUAABATkzCBSVgMwEfvLIQQQogKNi5LN1mtSbv1DvJXLtkAAEBM+05DmcyXAgjVOwshhBCiQBqX2XirNVnMrkGCuWwDAABtOnRoZXBIyxjQU+8shBBCSN2xbfZqj6mZmScK9U5yJS69Zd7p1NQzkKsGgvG5emchhBBC6qCGAW8F+HuNdeWbP+DiTwD+KC4uYQYH5gKgDf8JIYS4HA6YJeA2s9l0WO8sdeHSTwD+yGw2LWKwdwTDQr2zEEIIIX/g4MCnvt6G7u5y8wfc6AnAH8XGdhoP8PfBEKt3FkIIIY0Yw27IeNRiMZ3QO0p9uWUDAAA9evQwFpVW3Stx/gIHIvTOQwghpPHgwBkw/rQ1PWWJ3lmUctsG4HddunTxq6iQHwXjcwCE652HEEJIg5bCGXvPy4P/aDKZqvUOo4bbNwC/i4mJ8ZIkrxmcsTngvLveeQghhDQoe7iMd6xW0zoAXO8wIjSYBuCP4uMTBsgyvw2M3QR6KkAIIUQZKwMWAtLPZnNSmt5hRGuQDcD/m2qIj08ZIsuYwhnGMqCV3okIIYS4LBnASQ62g3F5qcWSclDvQFpq4A3An8XEdIlizDGIMwxgjPUD5/EA/PTORQghRBc2BqRxjsNc4jurPQ2/nE1KKtA7lLM0qgbgcuLiuraQJUesJPM4DrwLQNERgMxgQMvuvQWnc31VxUW4mJ6idwzyB8zDCMnoBeZhAPPygT3vgqI6vs0i4aisAK+pQU11FWS7W893anBYRGtw7yZ6x3C+MykAl5WOLmPAYwBPk2WvNKv1eK7IaO7GQ+8AejObT2YDyAawKzY+oSU4/q2kDnc40H3qbWg7YIjYgC6uvMCGLyYOBZcV/0ASAEySIDVpCg/fJpB8m0Dy8YPBxw+Snz88fP7/r0m+TeDh0wTMyxsGbx+AGcA8vcGMHpA8PMGMnn+rnT5nvKJMwz/9++omR3UVHPZqcLsdjqpKcLkG9ooKyJUVqC4rgb20BPayEtSUlaK6rAQ1pcW//bkE9vJSVJeWoLqogL5f1JIYMPMZsMbWAFiOgWcmKx7OgI/NZtNXAhO5tUbfAPyRw+79rodH5WwOBCkZv2vuW2jVuz8MRqPoaC7LNygYER064bwpUe8oLsvg0wQegcEwBAbDGBAEQ2AIPAKDa/8IqP3DGBwGSAa9o16TwdMLBk8v1XWqy0pQZctDVUEeKgvyUVlQ+7+rbDZUFOSiqiAfFXmXwB01AlI3QC3igcZ285cd4Dt+VlOhyGjEO6LiNATUAPzBqVNHi2LjEz4Ax8tKxheeO4uTqxaj+9TbREdzaW36D27UDYDBpwmMoREwhkTAGBoBz9/+bAyJcJsbu7N5+vnD088f/i3bXPXrqstKUH4xB+UXs3/78/k//f9GK6ar3gmc78hmwHZe8XAO/oHJlGITmMjtUQPwFxJqPpThMQdAqJLxB76Zh46jJ8A7IFBwMtcV3aMPfv3qE71jaIp5GOHZLApeEdHwat4KxvDI/93wDT6N7JOYE3n6+cOzbTyato3/29/7U3NwPhvFZzNQei4TpdlnG/x8BRbdUe8IzlVRAuxbraZCPuTqD0TFaSioAfiL9HPoh6sAACAASURBVPT0ktjYTm+D8beVjK8sLsL+bz7DsEefFR3NpcgOGVlHDiBl8xpYd2/XO44wzOABz2ZR8IxoCa/mreEV0RJeka1gDImgT/Iu5krNAZcdKL+YjZIzp1FyLhMlWadQknUaZTlZkGvsOqUViy98Ayy+B9B5ENCqI8Dc5lw3RfieFUBlmfLxDO9YrdZigZEahEa/CuByoqL6+fj4FqcDaKlkvOThgVnfr0Rwq6s/3nRHeacsSNm4GqlbNqAs75LecVSRvLzhFdUOPtGx8GoZA++odvAMj2xwN3qlkwDHL9srOIm+uOxAWc45FJ1OR1FGOgoz0lB02gxHZYXe0dTxDwZLGAB0HgiEttA7jXi558DnP6dm5v+5ivKAuHPn9rv5f2jxqAG4gri4hFkc+E7p+Db9BuPGdz8TGUk39opypG3dgMTVS3ExzaR3HEUkTy94tWgLr+gY+LSMhVd0DDzDo8Ckhv3JCaAG4Gq4LKM0+wyKTv3WEGSkovi0BY5qN32FEBkDdBsG1qEvYFQ/WdMV8MVvAaeSVBTAXRaLaYGwQA0INQBXJsXGJRwFcJ3SAhNe+wCxQ0cKjORcl8ypSFy9FGlb1qO6XPnjNz0YQyPg0y4Bvm0T4N0qDl4RLRvcJ/u6ogagfrjsQGlWJgqtKchPTYQt9aT7TTj08ql9KtBtOBAerXca5VIPgK9SNb8o0WI2dUPtDn/kL2gOwJXJ4OxpML5FaYGdH76BVr36wdPPfSaJOezVSNu6ASdWLMLFVOXrbZ2JMQmezaPhE9MJvm0T4NOuIzwCQ/SORdwUkwzwb9UO/q3aoeWICQCASlsebKknkZ96EraUEyg9l+naexlUVYAf2wYc2wa0iAG6jwTr0AcwuNGv/KoK8G0/qirBJTwNuvlfET0BuIbY2IRNYBitdHy3Kbdi2GOuPyGwLD8XJ1csRuLqJSgvcPGVMgYDfFrFw6dtR/i2S4B3m44w+NKOzldCTwDEqy4rQUFqEgrSEmFLPYECa5rL71nA/ALBu48A6zYC8HODVUqbvgU/rmqC8VaL2TRKVJyGiBqAa4iJ6ZjAJHYcgKLdfSSDhJlfLESzDp0EJxPjYmoyji35Eeadm+Gwu+4Mac+w5vBt3wN+HbrBN7YLJC8fvSO5DWoAtFdTUY685KPIO3EIuYmHUXb+nN6RrsxgBDr2Aes5Gohw0YnK2VbwH15WM/GvRjbI3TJS3eQxpk6oAaiD2NiED8HwiNLxoe3icPu3S8EMrvMOOjvxGA7/OB+n9u3WO8plMU9v+LRpD7/46+DXqTe8Itz4PabOqAFwvvJL55F38hDyEo8iL/EwqstK9I50eVFxYH3HAzHdAOYitwMugy94AbiQqaIGPrJYTI8Ky9RAuch/cdfWuvV1TY2e9nQA4UprDJnzNHpMnyUwVf1xhwPpOzbj8I/zkWtN1zXL5Xj4B6LpgLHwbd8NPq3jG+2kPdGoAdAXlx0oNKcg9+QhnNmyClVFLnjYXEQboO84sPg+tecM6OnAevCdqrb8zbVXG+MyM08UiorUULnRjBD9ZGaeKIyLS3ieA4oPkfj1q08QM3gEAps7f52uw16N5HUrcWThtyjKcd1Hk7zGgaCRUyFd5kAbQtwVkwwIat8ZAW3jkblhmd5xLu/CaWDVJ+BBS8H6jAO6DNZnwmDBRfC9K1SVYMDzdPOvm4a/CFoQs9n0DYBDSsfbK8qx8aVnIDucNyHVYbcjZeMaLLhlIra/+4pL3/wBwFFRitKT+/SOQYgmzh/Y5bqvAn5XcBF80zfgnz8BfmQz4MydE7kMvuErwF6lvAZjx8xm03xxoRo2agDqTmbAQwAcSgvkJB3H8WXqlrXUhVxT89uNfwI2vfqcy9/4/6ho/1a9IxCiiazta/WOUHfF+cDWH8C/fLK2EXBo3wjwgxuAs2lqSsjcwR4CLfurM2oA6sFsNh0GmKrt/fZ98RFsZ06LivQn3OFA0uql+Gb6GLe78f+u3JqE6lzlJ34R4orKzp9DfsoJvWPUX9FvjcAXT4Mn7gZkrs11cs8Be5arKsGBz6zWpP2CEjUK1ADUE5cr/w0gW+n4mqoqbHr1OXCH4gcJf8/EOSy7tmHBbZOw9e2XUHxBxxtoRBuwkbOAHgp3QOQcRQfoKQBpWLJ2rAO4sptn15tnYthjz6JZ+wTBqeqhKBdY/xX4/GfALcfE1pYdwLrP1b5uyIFc9byoSI0FTbOuJ5vNVhUSHH4GDNOU1ijNvQSD0RNR1/VQned88klseOlfOLLwW1QW6TTvxT8I6DoY7Ia7wQbeCES2A4IjgKPKbuT23BwED5vU4E84c5b8jQsVjYubdrfgJI0Tlx04+cnrqKksVzR+zH/eQNv+g9Fl0lTEXz8GPoFBKLmQg6pSHeYTlJcAKfuBU4lgwRFAoKJT0/9s7yrwFJUf3DnuslrT3fARi76oAVDAZstNDQkO7w6Gvx9SXkc5icfQbsBQ+IUo+wGyZZ7C5tf/jT2fvY+Sizp84pcMQHxP4PrbwEbdAdbuOqBJ0//9bebTBOxUElBS/10F5epKeLeMg2ezBniymQ6oAdDXxaO/4uy2NYrGRnbuhl63/f9/B5+mQWjZvRe6TbkVkV2uQ01VJQrPnXX+tsQlNiDpF+DSWbCIVoCPv6Iy/EJm7ad/hU9HfrPeYjH9R02BxoqWASokSTX/5NxjEAeClIx32O1Y9+8ncOu3S+BZj21sK0uKcfjH+Ti2+Ht9du77/ejRHtcDAdfYb7/zQCDbougyxQe2oEnn3orGEuJKsrYpn/zXadzky/51Jklo3XsAWvcegDJbHlI2rEbi6qXOn/djPgJuPQ70GAE2cArg7Vv3sfZKYPWnta8AlCt21OBBNQUaM3oCoFB+fn5JUGizPAZMVFqjsrgIpfm5iBk84ppfyx0OnFy1BGueewRnD+93bsfPJCCmKzBqFtioWUCbzoBXHX7Qg5sDRzYBCrJW5+UgqP9o2vJXAHoCoJ/Kgjwkf/W+ok+4Rm9vjH7uVRg8r74vhqePL1p06Y5uU25B885dUVVcjKKcLLWfquuOcyAnA0jcBeblCzRrXaddBfn6L4GzqaouzYCHrFbTTlVFGjFqAFSw5V86ERIc3hcMMUpr5FrSERgZhbDYK79NyDp6EKufmQPThlWoqapUeqn68/IBug8HJvwDrMcosKBm9dsu1MMI5GbXzvCtL84h+TSBb4xrnqHgTqgB0M/p9UuQl3RU0dj44Teg/cixdf56xhiCoqLRYdQ4tB81FgwMtsxTzntSaK8GrMcB6zGwkBZXnR/AE3cD+1arux7HZovF9IS6Io0bzbJSh8syuw9AsZoi29979bJLA8tsedjw0r+wdM49yDul7FG6Ik3DwK6fBfbQ3No/B0UoLsW6DFE8tnDvBpc/YY2QK5Fr7MjcvFLx+E7jb1Q8NiiqFYY99izuX7UdQx99BgERTpxPc/EM+MLXwNd9DpRd5ldjXjaw5Tu1Vyn+7Xevkx5zNEz0BEClgoJLxaEh4XlQ8SpArrEj++QxJIybDMngAS7LOLlyMdY+9wguOvMwq/BosBG3go25p/YMcYOiAxD/rGkoYNoHVJbVe6hcVQHPZlHwimytPkcjRk8A9JG9Zyuyd29WNDYoqhUGP/wUmMoDegyenmie0AXdptyCoOjWKMrOQrktX1XNOrt0FuzkLsDbD4hoVfv00F4NLHobKFV3HsJvj/53CcnZiFEDIEB+fu7xkJDwHgDilNYot+WjsqgQTcLCsebZR5C0Zhkc1dUCU14Za9URuOEusOEzgfBosaeCMQbUVAOZJkXDa2yX0HTADeLyNELUAOjj5Kevo6pQ2c229+33oUWXbsKyMElCWLs4dJk8DZEJXVCaewnFF3KE1b+iGnvta4HMJLDmbWv3+T+dqLbqOovZ9LSIeI0dnQYoSLt2XcIlgyMRQDM1dSSD5LzzAtp2BhtwIxCluG+pm7Ji8E/nAAof50c/8hZ82um4CYqbo9MAnS/fdAL7//uQorEGoyfuX70dPoGKFhjVWXbiMRz4dh7OHHLS5nkSE7GT4EXZYeiSkZF4SUSkxo7mAAiSkZF4iUu4AyrfSTnl5h8VB9z6PNj0f2l/8wcAvwAgrqfi4bZdKicLEeJkp9ctVjw2dthIzW/+ANCiS3fc/MFXmPH5T2g7YIjq1w3XpP7mz8HZvXTzF4caAIGsaabNHFB1VoCm2nQCu+NFsNtfAIvu4NxrdxuueGhZ0gHY8y8KDEOIdsov5uDiUeWnWnaZNFVgmmuL7NwVk9/+FDM+/xHRvfo59dr1wYB5FkvyOr1zNCTUAAhWWR7wFIAUvXP8SWQ7sFueBZvxDBCpeMWiKiy6AxDSXNFYLsso/MWNTlIjjdrp9UsV79MR0qYdWnRVv0W4Es07dcWUD7/ClI++RrMOLrf8NrW01PspvUM0NNQACHbu3P4KLvNpYFC28bdIIc2BGx8Gm/Ui0Ernd+iMAT1HKx5e+OtmyBX6/ysl5GpqKsqRtWuD4vHdp96m/aP4a4ju2Re3fr0IUz78CqHtnPCK8NoqwXFLTs5R+gUgGDUAGrBaU0wc7GHdAvgF1B7Mc+/bYO37iJ3VrwLrPAjMu+7bHv+RXFWBogPKllQR4ixnt6xGTXn9l7wCgHdAINqPniA4kXLRvfrh9m+XYsSTL8A3KFi3HJyxhywWEx30owFqADRiTU/+hgPfO/WiBg+g1yiwB96rfecuucaN/3+MXuBdlW8MZNu2ArLdOUsjCakvR3UVMtYtUjy+y+RpMHp7C0ykHjMY0PXGabhn6Sb0u/tBeHh6OTvCImt68nxnX7SxoAZAQ77ehgcBqNvsuo5Y+z5g978Ddv2s2i18XRTrMVJxY1JTUoCiXzcJTkSIGGe2rEJVgbJ1/8xgQNfJ0wUnEsfo44t+9zyIO35ajbiho5x12VRPI+5z1sUaI2oANJSYmFgmG+RpAJQ9E6yL0BbArc8DNz4MNA3T7DLCBIYBsSqWBG5bDk5PAYiLcVRXI2O1sg2XACBu6Ej4N1O+5bazBEZGYfxr72Pqx98guHVbLS9VJhvkaSaTqVTLizR21ABoLCM1NZmB3QPRe1YbvcGGzQS753XnL+lTifVWvrNfTVE+ivZvEZiGEPXObl2j+NM/AHSfPktgGu217N4bs75bgUEPPg6jTz2OAK4jBtybkerMfdAbJ2oAnMBsTl4Mxt8TVrB9L7AH3gb6jgMkN9zNOSpe1QZE+duWgtc46YQzQq7BUV2FjNU/Kh4f1a0nmid0EZjIOSQPD/S69W7cuXAtYoeOFFaXg71nNpuUT6YgdUYNgJNY0hOeYYCYF9hGb6CJ9juFaYn1VbY9LQDUFOaj6MBWgWkIUS5r+zpU2vIUj+91+70C0zhfk7BweAc2FVKLAzuiIkOfEVKMXBM1AE6z1GE04lYAp1SXStoD7F6iPpKeYrqBhbZUPNy2dQkdFUx0J9fYkbHmZ8XjQ9vFoXXvAQITOd/eeR8gafVS9YUYzkL2nLFr1y76wXYSagCcyGQy2WSJ3Q5A9Sw2vn8tcGC9gFQ6YQy8n/KnAPaCPHoKQHR3dsd6VOReUDy+92336L7xjxqHf5yPwz99I6JUNeO41Wo9niuiGKkbagCcLCMt+VcGNguA6lN/+K5FwMld6kPphHXsCwSEKh6fv3kR5OoqgYkIqTtHVSWsSxcoHh/YvAXiR7jvUddJq5di7+cfiiglM+AOs9lEx086GTUAOqidFIhnVRfiHHzTfPD0QwJS6UAyAP2V73xWU5iPgp2rBAYipO4y1vyMygIV7/5vuwfM4IaTeAGk79iE7e+9As4FLG7i7Bma9KcPagB0Ykk3vQ3OP1ddSObA6s/ALUcFpHI+1mWIqqcAtm1L4Si2CUxEyLVVFRXglIp3/wERzZEw7kaBiZzn9P5fsOnl54QcXc6A+RZL8jsCYhEFqAHQUUCAzxyAbVNdyFEDrPzYPZsAg4eqpwByVSXyNir/RUyIEuk/f4UaFYdT9bnjARiMRoGJnOP0/l+w5tlH4RCxGRfDlsjIsH+oL0SUogZAR0ePHrVzufJmcKZ+w4v/NQHHBCRzLtZ1aO0OgQoV7d+MqvNnxAUi5CpKz51B1g7lE3D9IyLRccwkgYmcI/PAHnE3fyDFXmWcTjP+9UUNgM6sVmuxJEkTAZxXXey3JgBWNzs4SzIAfZU/BeCyjNw1C8TlIeQqUr7/BFx2KB7f7073+/SfsXcXVj8zR9TNP9tRgzGZmScKRRQjylED4ALS0xNPM2AMgCLVxRx28BUfARnu1QSwroNVzQUoMx1Gudm9/pmJ+8lLPIxLx/YrHh8YGeV2n/5P7duNdf9+DA67kN03Cw2SNObUKdNZEcWIOtQAuAiz2XSSy9IkAJWqizns4Ms/BE87qD6Ysxg8wAbfrKrEpZXzwbn6iUmEXA6XZaT+qG7e7oD750Dy8BCUSHsZv2zH2ueF3fwrGfjEtLSkJBHFiHrUALgQqzVpN2e4HQL2CICjBlj9CXjibvXBnKXTACBM+e6AVdmnUfwrHRREtHF22xoUnUpXPD4str1brftPWrMMa//9mKjH/g4GeabZnLJHRDEiBjUALsaablrGGXtISDGZAxu+Bj8s5ggCzTEJbKi6M9Fz1yxATTG9WiRiVRXakP7TF6pqDHrwMTDJPX7lHlm4ANvefknIUj8AnAH/NJtTadMOF+Me342NjDU9eR5neExIMc6BbT8COxcLKae5mOuAVgmKhzsqSpG7ar7AQIQApgVzUV1Wonh8VLeebrPn/+Ef5+OXT98Vs8kPADA8YzabvhJTjIhEDYCLsqabPgTHK6Lq8QNrwbd9D7jBO3I2ZCqgYn/04iM7UZZGEwKJGLknDiFnr/LtOhhjGDL7SYGJtCE7ZGx/9xXsmfeBuKIc/7Gkm94WV5CIRA2AC7NYTC+AQ9wPz+Et4CvmAmLe6WmnRQzQoY+qEpeWfgru6v+cxOXJ9mokf6Nuv/v2o8ahWYdOghJpo6a6Chv++xROrhT3pJABH1gspleFFSTCUQPg4iwW0zNCtgz+nfkI+KLXgQrljzOdgQ2dCRg9FY+vzj2P/C1u8tqDuCzLsgUoy1G+Ys3o7YOB/xDzNk8r5QU2LH3oLph3bhZXlPG5ZrPpcXEFiRaoAXB93GJJeZADnwqreM4KvuC/gE393kOaCQwB66P8uGAAsG1bjqoLtNyYKFOWcxYZa9SdUdN71n3wD28mKJF4hdlZWPTPWThvShRZ9ktLesqjIgsSbVAD4B641Wx6GBzzhFUsvAT+w8tAtlVYSeH6jgcCQhQP544aXFzyGe0NQOqNyzJOznsLsorXSAERLdBjxh0CU4mVk3wCP993CwqzMsUVZXyuxWz6BwBBMwiJlqgBcB/cYjHNBtjHwiqWl4D/9BqQ5KJLc42eYMNmqCpRYU1Gwa41ggKRxuL0+iWwpZ5UVWPIw0/Cw8tLUCKx0rZuwLI596CiqEBcUc4//+2TP9383QQ1AO6FW8zJjwhtAhx28HVfADsX1e4b4Go69AWL7qCqRN667+mwIFJnxVmnkP7zl6pqRPfqh9ihIwUlEkd2yNj9ybvY8OLTqKmqEla3dsJfyj9BN3+3Qg2A++EWc/IczvCM0KIH1gFL3wEqlR9xqgnGgDF3Awblh6dwezXOL3ibVgWQa5Lt1Tjx0ctwVCv/XjEYPTHi8ecFphKjuqwUa5+bg6M/LxBalwFv0YQ/90QNgJuyppveAmePQGDHzU8lAgteAPJyRJUUI7g50HesqhJV588gb8NPggKRhipt0VcozlQ3L6b3rHsRFN1aTCBBCs6dwcL7b0HG3l0iy3Jw9pTZbBL6YYQ4DzUAbsxiSZ4Lzv8JEWcH/IYXXAD/4UVwyzFRJYVg/SYDQeGqahTsWIlya7KgRKShyTedwOm16paONm3ZGr1uu0dQIjGsu7dj4T3TYcs8JbKsgzN2n8WS/K7IosS5qAFwcxZLyhfguA2AkOO6ANS+Blj+AfjOn11n50CjERh9p6oSnMs4/8P7kCtc7DUH0Z29vAwnPnkVXFb3/X79E8/Dw9M1Jv7JNTXYPfdtrH3+UVSVloosXc0ZZljTk2nPbTdHDUADYLGYfgZn4wCI292Hc+DAevAfXwNKBM4UVoG16QKWoG4/9ZqCS7i0TNxqStIwmL5+DxW5F1TV6Dh2EqJ79ROUSJ2SSxexZPadOLr4e3F7+tcqkhjGWNNNy0QWJfqgBqCBsFiStxokaQCAc0ILn0sHn/8c+GmhG4UoN+oOwD9IVYmiwztRtJ+ODSa1zm5bg3O/qPt+8AsJw9A5/xKUSJ2sY4ew8J5pyEkWfh7GeXAMTU837RBdmOiDGoAGJC0tKckgOQYBSBNauKIEWPIO8Msy/V8JePuCjVK/ucrFZZ+j8qxFQCDizoqsqUier26vfwAY+a8X4e0fICCRcnJNDfZ+8RGWPXIvymz5osubZAfrY7GY6JStBoQagAYmLS0t09OIAQD2Ci0sc/B9q2p3Dyy4JLR0vcX1BDqqe9TK7dXI+eZ1OEqLBYUi7qa6uBBH3vu3qt3+AKDjmIloO2CIoFTKFJw7g0X/vB2Hvv9K9TyGv2HYXeUlDcrISM4SW5jojRqABshkMtm4XHU9B74XXjzbCv7N80DibuGl64ONmgX4BaqqYbflImfB2+J/YRKXx2UZxz54ERW5F1XV8QsNx9BH9F0Fl7x2OX68cyoupCSJL875N54eGHU2Kck1JgIRoQx6ByDasNlsDlt+7qqQ0GaFAEYBYMKKO2oAyzEgNwusdSdVp/YpZvQCwloCKb+qKmPPvwBur4Zf+26Cgrme/I0LFY2Lm3a34CSuI+3Hecj+Rd3pd4wxjHv5HYS1ixOUqn6qSkqw5Y3/4OD3X0GuEbcI6Decgb1ssZgez83NdYguTlwDPQFo4CzpyR8xsCkAyoQXTz8MPv85IEPdnulKsbZdgO7Xq65j27ECJSf2CUhE3MH5AzuRseZn1XW6T5+FNv0GC0hUf6d//QULbpuEtK0btChfwmVMMpuTX9SiOHEd1AA0AmZz8kou80EcEL8hfokNfMk74Ou+AK8U32NcCxt2CxAWpa4I57jw04eopvMCGrySs6dw8tM3ape5qhAW2x4D//GIoFR1V1lchE2vPIuVTz2IsjxN5uKckhgbaLWa1mpRnLgWagAaCas15biH5OgBYKsmF0jaA3z5NJB+WJPyV2Q0gk16qHajIBXkqgpkffYC7HpPcCSaqbTl4dAbT6FG5UZQHp5eGPPCGzA4+dXX6V9/wfezbkTKJo3uzRy7ZIehX3p6sous+SVaowagEUlLS8tvERk2Foy/Cy1O7SorAl/xEbBmHlAhdOexqwuLAhsyU3WZmqJ8ZH/+Ehzlzn+SQbRlLyvFwVceVz3pDwCGzPkXQtvGCkhVNxVFBdjw4tNY+dSDKM3VpEHlDHjTYul4fUZGInXAjQhNAmxkMjMzZVt+7tbQkGZpAMYAEP8xJjcLSNwN5hcIhEfXnuintRbtwHLPAfnZqso4SotQkZmGgO6DwQwN48ejsU8ClO3VOPzGUyi0pqqu1WHUeKc9+uecI2XDKqx+Zo42M/xrlYDjVovF9DGQQkf5NjL0BKCRMpuTFzNIPTmgzW+W8pLaeQE/vlrbEDjDhPuB0EjVZSqsycj59i1aHtgQcI7EeW8iX8D+NUHRrTHiqf8ICHVtBWczsfzR+7D59f+golCzFXipskHub7GYlmt1AeLaGsZHHKJIfv6lvAB/v28NHsYAgPXR5CLF+cDxnUBlCVhUHGBQ967+qgweQKv2tfMRZHUrl6ovZcNRWoQmCb0EhdNPY34CkLLgY5zZtkZ1HaOPL6Z89DX8w5sJSHVl9spKHPruS2x46WkUnjur2XUY8ENZqffEs6cT1T0yI26NGoBGrrCwsMaWn7spNCQ8E8BIaPFKABzIyQBMvwKBIWChLcRf4jfMNxCsSRBgOaq6VuVZC5iHEb7tEgQk009jbQAyVv8Ey7LvhNS64d+vIbqHNj0yUPu437xjM1b/azYy9u7S8ulTCWf8Hos55eWSkvPCNw8g7oUaAAIAyM/PPRkcFL6KMQwCoM3HnKoKIPUgcCYFLLwl0ETdoT5X1KwVUFVa23SoVG4+CcnoCZ+2HQUE00djbAAyVv+E1B/EnPrY89a70GOG+vMnruRCShLWv/Akji3+HtVlmk5APS4xw2hLevJOLS9C3Ac1AOR/bLbc3OCgwG8l5mEE0B8idw/8o+I84OQusNxs8BbtwLx8hV+Cte4CXDgFFKif9V2efgJgDL4xndUH00FjawBE3vxb9emP0c++BiaJ/1Eozb2E3Z++ix3vvYqSi+eF1/8DDsY/5nL1DIslVf0PBGkwqAEgf2Kz2Rz5+bnbQoKb7QfDCAD+ml0sLxs4sROQHWDN29a+wxeFMbB2XcHSjwCV6pckVliS3LYJaEwNgHnpt0hf+KWQWkHRrXHz+1/C6O0tpN7v7JUVOPjtF9jw4lM4b0pUvSnRNWRxiU22pps+t9lstKUv+RNqAMhl2WyXToWHhXzHIbUDoN3zb9kBnE0FO7m7doJgs2hAEvRt6eEJtO4EmPbWnl+gUoUlCZBl+MZ1ERDOeRpLA5C+6GtYln4rpJaXvz+mfvwNmoSJexvmsFfjxIqfse75x3D6wB7INeq/J6+GA4urvaTxp1OSxR4PThoMagDIFeXl5VXY8nOXBIeGpTCwYQDEP6v/nb0KOHUSSNoLZvQCIlqJ2T/A1x9oEQukHAC4+olVFRnJ4NWVbnV4UGNoANIXfQ3LsgVCahmMRkx6Yy4iOoh52sNlGZZdW7DmmUeQvnUD7JUVQupeRS5n/C6rOeXlokuXKrW+GHFf1ACQa7Ll56YERIT/IMkshgHtNb1YVQVgPQ6kHADzC6hd16+yEWCBYUDTMMCsfmUAAFScToWjevZ1ywAADA1JREFUuABNOvYAmOtvpdGQGwAuO5D81fs4tXaRkHpMkjDmhTfRbtAw1bW4LCN96wase/5xJK5agqqSYgEJr46BLeWy5zirJcnJe3ITd+SELdpIQxIbm3ALGOYCCHHG9VhoS/D+48E69lN9s+X71wK7FgtKBvi1747Iu5+B5K3dgxER0ueMVzRu/LK9gpOIVVNehqPv/we5Jw4JqznkoSfRY+adqmpwhwNp2zbi0A9fIf+0+pUodZTLGZ9tTU9Z6qwLEvdHTwBIvdhsuUlBTZsvYAyRYND+ZXh5MZB+BDDtA/PwrD35T+EcAdYyHqy8GDh/Skg0e955lCYfQpOE3jD4+AmpqYWG+ASgPPcCDrz0KArMycJqdp96G/rf95Di8Q57NZLXLsf6/z6F5HUrtNzB7484B36QYJ9kMacdccYFScNBTwCIYjExnUYxic8D0NZpF/UPAvqMA7tuGGD0qv94LoOv/bx2UyJBPPyD0OKBF+Ad7bwDYuqjoT0BKLKm4vCb/0JloU1YzY5jJmL0c6+CSfV/ymSvrEDi6qU4snCBVkf0Xh6HhTH+T7M5ZbvzLkoaEmoAiCqRkT18mzSpfIEDjwPQcJ/fv/BuAtZtGND9eiCgnm8juAy+cm7tkwVBJE8vNJ/1JJp06SespigNqQG4cGA3jn/8MhxVVcJqxg0dhbEvvwvJUL+bf8nFCzixfCGS1i5HZXGRsDx1YAfD2/aqslczMzNpkh9RjBoAIkRMTMcESGwuA4Y79cJMAtr3But1A9Aipu7jHDXAsvfBTwk8+pwxBA+/CWHjZwEudJJgQ2gAuKMGaQu/RMaan4Wum287YAgmvPYhDMa69645ySdwfPEPMO/eBu5w+tL6reDsEYslWf3RhqTRowaACBUT33EqA3sXHNFOv3hkDFiv0UB8z7odOmS3A0vfAT+TIjSGd+t4RN7xNIwh2h4cU1fu3gCUX8zBsQ9eRKFV7H+n6F79MPntT+Dhee1XSQ57Ncw7t+DYkh9xMVXcvIN6yARnT1gsySv0uDhpmKgBIMJFRvbw9fOvfBYcTwIQu41aXfj4A10G1c4TCG5+9a+1V4Ov+AA4JfZUZMnHF81mPIyAboOE1lXCnRuAnH3bkfTF27CXi90jv3XfQZj4+ofw8Lr6zd925jSS1iyDaeNqVBYVCs1QRxUM7O3ycv+3zp3br/kGAqRxoQaAaCYmpksUkxz/AXAvAF0WzLOI1sB1w4FOAwHjFQ46dNSAr/oEMIufRB3YaxiaTZ8N5un8Puh37tgAOKqrkfbTZzi9fpnw2m0HDMH4V9+/4id/h70aGXt3InH1MmQdOQCu7Va9V8IZ2DLGpH+lpyee1iMAafioASCai4tL6MWB9wDo93HYuwlYx77gnQaARcb8fXMh2QGs+hQ8Xdya8t95RUSj2YyHdDtR0N0agIJ0E07Oex2l584Irx0/4gaMeeFNSB5/PneCc47zySeQunkd0rdvcvakvj/j2CUbpCcz0pLE7FxFyBVQA0CcJi6u040c/A0A8boGaRoOltAfSBgAhPzhFQGXgQ3zwRN3i78mY2jaZyRCJ90Jg1+A+PpX4S4NgKOyAmk/f4HMjSvAZfXbNv9V54lTMOLJF/4029+WeQqpW9cjbfM6FJ3PFn7NekrlDM9Y001r9A5CGgdqAIhTDR061CM7+9LtnLH/MqCV3nkQ0QYsoR8Q16t2u2DOgb0rwPeu1ORyBr8AhE26C4F9rhdz1kEduEMDcOHAbpi++xgVuRc0qd/vngfR7+4HAQBF57Nh3bUVaVs34GK62ImFCp1mwEtmc8cfgaV0Yh9xGmoAiC569OhhLCmpvIsD/wUQqXceAEBoC7D2fcBju4NdOgO+8ZvaVwMa8GnbEc2mz4ZXc+17IFduAMrOn0XyN3ORe/yAJvUlg4Thj/8brXr3R8a+XTBv34zzySf0eq//V5c4w/twVH1otVrFbWxASB1RA0B0FRnZw9fPr+pBxvgTHIjQO8//BDcHPDyAS1naXcNgQNO+oxBywwx4BGp3tIIrNgCVtjyYl36LrB3rwQUc1XwlYTHxsFdVoTArU7NrKHCeA+9Ulgd8TjP7iZ6oASAuISqqn4+PT9G9YOxpAFF653EmyeiJpoPHI2j4zfDwDxRe35UagKqiAmSsWYgzG5fDUV0tvL5LYzjLON6uri6bTzv4EVdADQBxKQkJCZ52O+7kwDMA2uidx5kkoycC+o1C8IibYAwKF1bXFRqAitzzsK7+Ged2rGt8N34ggwFvGo343mQyNbp/eOK6qAEgLmqqISbedDPj7EkAvfRO41QGAwK69EPgoPHwjemkupyeDUC+6TjObFqJ84d+0fRRv2tiBziT37emJ6ygyX3EFVEDQFxebGyHwYD0BBjGQ6cNhfTi1bwVAvuPhn+3wfAIaKqohrMbgKpCG7L3bUPWtrUoyWp0e9jIAFZLDO+lp5v26R2GkKuhBoC4jfbt28c5ZI+HAH4HAOcuptebJMGvfQ/49xgM/4SekHz96zzUGQ2AvaQIF48dQM6+bcg9cQhco9UTLqwIHN/KMj7NyDBZ9Q5DSF1QA0DcTnx8vL8DxtsY5w8B0Gd7PR0xSYJP2wT4JfSGb1xneLVoe9Vz7LVoALgsoyjTAlvSMVw8tg+21ERNNu9xdRxIYpx/6uPj8WNiYqLYAwsI0Rg1AMSttYtPGMY4HmDAZADXPtatATL4+sGnXQK8o+PgHdUOXtEx8PAP+t/fF9EAVBbaUHwqHUWn0lFoTYUt9STsZaWqs7upSgAruSx9YbUmabBtJCHOQQ0AaRDat28f4uAet3HO72FAZ73z6M3g0wTGsObwDG+B4iO7FNVoMWgUys6fQ/n5LFSXlYgN6J5OgvP5np7sJ5PJZNM7DCFqUQNAGpy4uIRenOMuMEwHEKx3HuLW8hmwmDH2bXp6svjjIgnRETUApAGbaoiLSx4GSLM4cBMAP70TEbdQCWAbZ/x7Lw+2mtbuk4aKGgDSKLRt2yNQMlbdLHE+lQMjABj1zkRcSjUHtjOOJZxXrbBarcV6ByJEa9QAkEandevrmnp62icCbDwHHwt6MtBYVQLYxoC1suy50mo9nqt3IEKciRoA0qjFxMQESJL3GM4xAYzfAEC7U3mIK8hjwEaZ8bVeHmyjyWRqtEsZCKEGgJD/mWqIizP155yN/23XwUa3x0BDxIEkCVjvkNjajLQOB2lbXkJqUQNAyBW0adOpmcFTHsw4ux7AWDSyUwrd2CUGthvg22pqsOnUKdNZvQMR4oqoASCkblhcXEIXGRgOsMEMfACAML1DEQDAJTDsAdgeWXJsz0hNTdY7ECHugBoAQpRhMTEJHSQJAwE+iIP1BRCjd6hGgcPCGA4A+AWQ9prNSWl6RyLEHVEDQIggCQkJwVUO9GIcvQH0Yhy9OBChdy43l8OAw5yzw5zjcLUPO3w2KalA71CENATUABCioXbtuoRLktwVQFfGeBcOdAHQAYCnztFcTRWAFACJDEgE5ERZ9j5JS/MI0Q41AIQ42dChQz2ysnJbSxKLZ0xuL4PFM4Y4cMQAaA7gykf7uTcZtZ/oLZwxM+c8XQJPk2XJbLV2yKTZ+YQ4FzUAhLiQmJgYL9lojDbUGFozxltzhlbgiGJAMxlowYBwAM30znkZHMAlABc5kM1qJ+ZlMY4zgJzpcEiZ3t44S9vqEuI6qAEgxM306NHDWFJSEy5JcnBNDYIliQfLDEFMRjBnCJbAvXnt7ob+ALwB5g9wxoCmf6zDAR9wJjPGq/5yiWIO5gB4MWofzZcwoEwGr5AAG+ewMcYLOIfNYPAo4Lw6v3nz5pd27dpV46R/BYQQQgghhBBCCCGEEEIIIYQQQgghhBBCCCGEEEIIIYQQQgghhBBCCCGEEEIIIYQQQgghhBBCCCGEEEIIIYQQQgghhBBCCCGEEEIIIYQQQgghhBBCCCGEEEIIIYQQQgghhBBCCCGEEEIIIYQQQgghhBBCCCGEEEIIIYQQQgghhBBCCCGEEEIIIYQQQgghhBBCCCGEEEIIIYQQQgghhBBCCCGEEEIIIYQQQgghhBBCCPm/9uCABAAAAEDQ/9ftCFQAAAAAAAAAAAAAAAAAAAAAAAAAAB4Cl7cIuycEV94AAAAASUVORK5CYII=;" parent="1" vertex="1">
          <mxGeometry x="946" y="829" width="71" height="71" as="geometry" />
        </mxCell>
        <object placeholders="1" c4Name="PropDevelopment" c4Type="Software System" c4Technology="" c4Description="" label="&lt;font style=&quot;font-size: 16px&quot;&gt;&lt;b&gt;%c4Name%&lt;/b&gt;&lt;/font&gt;&lt;div&gt;[%c4Type%: %c4Technology%]&lt;/div&gt;&lt;br&gt;&lt;div&gt;&lt;font style=&quot;font-size: 11px&quot;&gt;&lt;font color=&quot;#E6E6E6&quot;&gt;%c4Description%&lt;/font&gt;&lt;/div&gt;" id="_bE7263p_LXFPztFBxZn-1">
          <mxCell style="rounded=1;whiteSpace=wrap;html=1;fontSize=11;labelBackgroundColor=none;fillColor=#23A2D9;fontColor=#ffffff;align=center;arcSize=10;strokeColor=#0E7DAD;metaEdit=1;resizable=0;points=[[0.25,0,0],[0.5,0,0],[0.75,0,0],[1,0.25,0],[1,0.5,0],[1,0.75,0],[0.75,1,0],[0.5,1,0],[0.25,1,0],[0,0.75,0],[0,0.5,0],[0,0.25,0]];" vertex="1" parent="1">
            <mxGeometry x="210" y="890" width="240" height="120" as="geometry" />
          </mxCell>
        </object>
        <mxCell id="_bE7263p_LXFPztFBxZn-2" style="edgeStyle=entityRelationEdgeStyle;rounded=0;orthogonalLoop=1;jettySize=auto;html=1;exitX=0;exitY=0.25;exitDx=0;exitDy=0;exitPerimeter=0;entryX=1;entryY=0.25;entryDx=0;entryDy=0;entryPerimeter=0;" edge="1" parent="1" source="_bE7263p_LXFPztFBxZn-1" target="nFB4tpNnGNIT1_HhN5Ei-210">
          <mxGeometry relative="1" as="geometry" />
        </mxCell>
        <mxCell id="_bE7263p_LXFPztFBxZn-3" value="СМЭВ&lt;div&gt;[SOAP]&lt;/div&gt;" style="edgeLabel;html=1;align=center;verticalAlign=middle;resizable=0;points=[];" vertex="1" connectable="0" parent="_bE7263p_LXFPztFBxZn-2">
          <mxGeometry x="0.043" y="-1" relative="1" as="geometry">
            <mxPoint y="1" as="offset" />
          </mxGeometry>
        </mxCell>
        <mxCell id="_bE7263p_LXFPztFBxZn-4" style="edgeStyle=orthogonalEdgeStyle;rounded=0;orthogonalLoop=1;jettySize=auto;html=1;exitX=0.5;exitY=0;exitDx=0;exitDy=0;exitPerimeter=0;entryX=0.5;entryY=1;entryDx=0;entryDy=0;entryPerimeter=0;" edge="1" parent="1" source="nFB4tpNnGNIT1_HhN5Ei-201" target="_bE7263p_LXFPztFBxZn-1">
          <mxGeometry relative="1" as="geometry" />
        </mxCell>
        <mxCell id="_bE7263p_LXFPztFBxZn-5" style="edgeStyle=orthogonalEdgeStyle;rounded=0;orthogonalLoop=1;jettySize=auto;html=1;exitX=0.5;exitY=1;exitDx=0;exitDy=0;exitPerimeter=0;entryX=0.5;entryY=0;entryDx=0;entryDy=0;entryPerimeter=0;" edge="1" parent="1" source="nFB4tpNnGNIT1_HhN5Ei-214" target="_bE7263p_LXFPztFBxZn-1">
          <mxGeometry relative="1" as="geometry" />
        </mxCell>
      </root>
    </mxGraphModel>
  </diagram>
</mxfile>
